<?xml version="1.0" standalone="no"?>
<!DOCTYPE svg PUBLIC "-//W3C//DTD SVG 1.1//EN" "http://www.w3.org/Graphics/SVG/1.1/DTD/svg11.dtd" >
<svg xmlns="http://www.w3.org/2000/svg" xmlns:xlink="http://www.w3.org/1999/xlink" version="1.1">
<metadata>
Created by FontForge 20170731 at Wed Sep  5 03:59:47 2001
 By Aleksey,,,
The digitally encoded machine readable software for producing the Typefaces licensed to you is copyrighted (c) 2000, Linotype Library GmbH or its affiliated Linotype-Hell companies. All rights reserved. This software is now the property of Heidelberger Druckmaschinen AG and its licensors and may not be reproduced, used, displayed, modified, disclosed or transferred without the express written approval of Heidelberger Druckmaschinen AG.
</metadata>
<defs>
<font id="LinotypeTetria-Regular" horiz-adv-x="595" >
  <font-face 
    font-family="LTTetria Regular"
    font-weight="400"
    font-stretch="normal"
    units-per-em="1000"
    panose-1="2 0 5 6 4 0 0 2 0 3"
    ascent="777"
    descent="-223"
    x-height="516"
    cap-height="738"
    bbox="-40 -248 1123 971"
    underline-thickness="50"
    underline-position="-175"
    unicode-range="U+0020-FB02"
  />
<missing-glyph horiz-adv-x="240" 
 />
    <glyph glyph-name=".notdef" horiz-adv-x="240" 
 />
    <glyph glyph-name=".null" horiz-adv-x="0" 
 />
    <glyph glyph-name="nonmarkingreturn" horiz-adv-x="240" 
 />
    <glyph glyph-name="space" unicode=" " horiz-adv-x="240" 
 />
    <glyph glyph-name="exclam" unicode="!" horiz-adv-x="338" 
d="M227 738l-18 -518h-81l-17 518h116zM236 54q0 -27 -19.5 -46.5t-46.5 -19.5t-46.5 19.5t-19.5 46.5q0 28 19.5 47t46.5 19t46.5 -19t19.5 -47z" />
    <glyph glyph-name="quotedbl" unicode="&#x22;" horiz-adv-x="397" 
d="M342 790l-16 -223h-72l-16 223h104zM158 790l-16 -223h-72l-15 223h103z" />
    <glyph glyph-name="numbersign" unicode="#" horiz-adv-x="618" 
d="M608 558l-15 -82h-110l-39 -209h111l-15 -81l-112 -1l-35 -185h-83l35 185h-134l-35 -185h-88l35 187l-113 1l17 81h110l38 207h-116l16 82h117l32 180h87l-32 -180h132l33 180h86l-33 -180h111zM396 476h-132l-38 -207h132z" />
    <glyph glyph-name="dollar" unicode="$" horiz-adv-x="538" 
d="M307 -108h-48v97h-17q-107 0 -171 102l72 39q45 -62 103 -62h13v289q-80 46 -117 87q-55 58 -55 132q0 65 41 112q47 55 131 62v92h48v-93q87 -9 135 -88l-69 -39q-29 41 -66 47v-216q181 -97 181 -253q0 -78 -50 -136q-50 -57 -131 -71v-101zM192 588q0 -67 67 -110v194
q-67 -13 -67 -84zM307 76q72 25 72 117q0 73 -72 132v-249z" />
    <glyph glyph-name="percent" unicode="%" horiz-adv-x="862" 
d="M652 738l-376 -738h-70l377 738h69zM206 314q-89 0 -127 83q-22 48 -22 121q0 90 35 145q39 60 115 60q101 0 136 -96q16 -45 16 -109q0 -94 -36 -146q-39 -58 -117 -58zM209 658q-37 0 -53 -34q-15 -30 -15 -106q0 -80 17.5 -109.5t48.5 -29.5q35 0 51 28q17 29 17 111
q0 77 -15.5 108.5t-50.5 31.5zM634 -9q-89 0 -127 83q-22 48 -22 121q0 90 35 145q39 60 115 60q101 0 136 -96q16 -45 16 -109q0 -94 -36 -146q-39 -58 -117 -58zM637 335q-37 0 -53 -34q-15 -30 -15 -106q0 -80 17.5 -109.5t48.5 -29.5q35 0 51 28q17 29 17 111
q0 77 -15.5 108.5t-50.5 31.5z" />
    <glyph glyph-name="ampersand" unicode="&#x26;" horiz-adv-x="695" 
d="M635 -2q-39 2 -75 19q-10 5 -17.5 9t-12.5 8q-18 13 -45 43q-76 -91 -210 -91q-102 0 -160 50q-60 52 -60 139q0 37 17 76q17 36 39 55q7 6 30 26t63 54l-40 43q-56 61 -56 133q0 59 45 103q46 45 116 45q67 0 109 -44q43 -43 43 -106q0 -69 -55 -124q-1 -1 -14 -14.5
t-39 -39.5l159 -179q18 35 15 88q-1 25 -9 46l69 25q11 -25 16 -71q7 -76 -32 -144q35 -40 68 -57q28 -16 76 -21zM343 556q0 35 -20.5 59.5t-52.5 24.5q-37 0 -58.5 -24.5t-21.5 -62.5q0 -31 22 -62q2 -4 15.5 -17.5t36.5 -38.5l41 40q38 38 38 81zM255 327l-64 -60
q-39 -38 -39 -91q0 -23 9 -43t25.5 -34.5t39 -23t49.5 -8.5q95 0 151 66z" />
    <glyph glyph-name="quotesingle" unicode="'" horiz-adv-x="206" 
d="M151 790l-16 -223h-64l-16 223h96z" />
    <glyph glyph-name="parenleft" unicode="(" horiz-adv-x="345" 
d="M304 -199q-101 0 -158 51q-34 31 -47 71q-9 31 -9 85v665q0 208 213 208v-83q-107 2 -107 -116v-685q0 -110 108 -114v-82z" />
    <glyph glyph-name="parenright" unicode=")" horiz-adv-x="344" 
d="M254 8q0 -54 -9 -85q-13 -40 -47 -71q-57 -51 -158 -51v82q108 4 108 114v685q0 118 -107 116v83q213 0 213 -208v-665z" />
    <glyph glyph-name="asterisk" unicode="*" horiz-adv-x="570" 
d="M496 572l-149 -48l92 -126l-62 -45l-92 126l-92 -126l-62 45l92 126l-149 48l24 72l149 -48v156h76v-156l149 48z" />
    <glyph glyph-name="plus" unicode="+" horiz-adv-x="509" 
d="M459 242h-163v-164h-83v164h-163v81h163v163h83v-163h163v-81z" />
    <glyph glyph-name="comma" unicode="," horiz-adv-x="236" 
d="M164 -2q-10 -26 -26 -55t-38 -61h-60q34 63 48 108q-46 15 -46 63q0 28 19 47.5t48 19.5q28 0 47.5 -20t19.5 -46q0 -28 -12 -56z" />
    <glyph glyph-name="hyphen" unicode="-" horiz-adv-x="419" 
d="M368 245h-318v77h318v-77z" />
    <glyph glyph-name="hyphen" unicode="&#xad;" horiz-adv-x="419" 
d="M368 245h-318v77h318v-77z" />
    <glyph glyph-name="period" unicode="." horiz-adv-x="274" 
d="M203 55q0 -27 -19 -46.5t-47 -19.5q-27 0 -46.5 19.5t-19.5 46.5q0 28 19.5 47.5t46.5 19.5q28 0 47 -19.5t19 -47.5z" />
    <glyph glyph-name="slash" unicode="/" horiz-adv-x="445" 
d="M431 811l-306 -887h-83l306 887h83z" />
    <glyph glyph-name="zero" unicode="0" horiz-adv-x="478" 
d="M433 264q0 -119 -39 -189q-49 -88 -156 -88q-51 0 -93 24.5t-64 69.5q-36 70 -36 183q0 112 32 181q46 99 161 99q109 0 157 -86q38 -70 38 -194zM335 265q0 57 -6 95.5t-17.5 62t-29.5 33.5t-42 10t-42.5 -10t-30.5 -33.5t-18 -62t-6 -95.5q0 -137 40 -177
q23 -23 56 -23q25 0 47 14q49 34 49 186z" />
    <glyph glyph-name="one" unicode="1" horiz-adv-x="317" 
d="M227 0h-102l1 460l-81 -20l-15 59l197 52v-551z" />
    <glyph glyph-name="two" unicode="2" horiz-adv-x="414" 
d="M374 0h-330v63l153 176q63 75 63 137q0 43 -22.5 67.5t-64.5 24.5q-47 0 -76 -38l-57 37q22 33 60 54q40 24 85 24q77 0 127 -47q49 -46 49 -114q0 -77 -61 -153l-125 -154h199v-77z" />
    <glyph glyph-name="three" unicode="3" horiz-adv-x="414" 
d="M378 75q0 -102 -60 -165q-58 -64 -158 -64q-110 0 -165 79l52 48q39 -47 102 -47q58 0 92.5 40t34.5 109q0 58 -37 93t-92 35h-12v65h8q48 0 76 30t28 75q0 43 -24.5 68.5t-69.5 25.5q-49 0 -76 -35l-49 46q23 28 59 45q40 21 81 21q39 0 72 -12t56 -33t36 -51t13 -66
q0 -43 -22 -80q-26 -44 -69 -57q54 -11 89 -59q35 -49 35 -111z" />
    <glyph glyph-name="four" unicode="4" horiz-adv-x="533" 
d="M498 77l-1 -77h-86v-144h-93v144h-278v96l239 422h132v-441h87zM317 77v361l-195 -361h195z" />
    <glyph glyph-name="five" unicode="5" horiz-adv-x="461" 
d="M426 70q0 -92 -62 -157q-63 -67 -163 -67q-102 0 -156 77l54 47q38 -47 95 -47q63 0 97 41t34 108q0 136 -102 136q-43 0 -65 -28h-91v338h307v-79h-212v-181q29 29 84 29q83 0 131 -60q49 -59 49 -157z" />
    <glyph glyph-name="six" unicode="6" horiz-adv-x="470" 
d="M425 201q0 -97 -47 -156q-49 -61 -141 -61q-89 0 -141 58q-51 58 -51 153q0 113 46 199l140 266h108l-150 -276q28 19 71 19q37 0 67.5 -14.5t52.5 -41t33.5 -64t11.5 -82.5zM327 196q0 133 -91 133t-91 -136q0 -132 91 -132t91 135z" />
    <glyph glyph-name="seven" unicode="7" horiz-adv-x="389" 
d="M359 446l-191 -589h-99l191 579h-245v82h344v-72z" />
    <glyph glyph-name="eight" unicode="8" horiz-adv-x="473" 
d="M428 194q0 -92 -51 -150q-51 -59 -141 -59t-142 60q-51 57 -51 149q0 57 26 103q29 51 83 65q-86 30 -86 137q0 74 48 122q49 48 122 48t121 -48t48 -124q0 -104 -84 -135q52 -13 81 -65q26 -46 26 -103zM312 499q0 43 -20 68.5t-55 25.5q-78 0 -78 -94q0 -101 77 -101
q76 0 76 101zM331 193q0 57 -24 92t-69 35q-48 0 -73 -34t-25 -91q0 -131 98 -131q48 0 72 41q21 34 21 88z" />
    <glyph glyph-name="nine" unicode="9" horiz-adv-x="453" 
d="M418 344q0 -109 -65 -244l-118 -243h-106l154 298q-23 -24 -73 -24q-79 0 -125 61q-45 58 -45 144q0 92 50 150q51 58 137 58q89 0 140 -57t51 -143zM321 337q0 129 -94 129q-92 0 -92 -130q0 -58 24 -94t72 -36q42 0 68 39q22 35 22 92z" />
    <glyph glyph-name="colon" unicode=":" horiz-adv-x="275" 
d="M204 381q0 -28 -19.5 -47.5t-47.5 -19.5q-27 0 -46.5 19.5t-19.5 47.5q0 27 19.5 46.5t46.5 19.5q28 0 47.5 -19.5t19.5 -46.5zM204 55q0 -28 -19.5 -47.5t-47.5 -19.5q-27 0 -46.5 19.5t-19.5 47.5q0 27 19.5 46.5t46.5 19.5q28 0 47.5 -19.5t19.5 -46.5z" />
    <glyph glyph-name="semicolon" unicode=";" horiz-adv-x="236" 
d="M175 382q0 -28 -19.5 -47.5t-47.5 -19.5t-47 19.5t-19 47.5q0 27 19 46.5t47 19.5t47.5 -19.5t19.5 -46.5zM164 -2q-10 -26 -26 -55t-38 -61h-60q34 63 48 108q-46 15 -46 63q0 28 19 47.5t48 19.5q28 0 47.5 -20t19.5 -46q0 -28 -12 -56z" />
    <glyph glyph-name="semicolon" unicode="&#x37e;" horiz-adv-x="236" 
d="M175 382q0 -28 -19.5 -47.5t-47.5 -19.5t-47 19.5t-19 47.5q0 27 19 46.5t47 19.5t47.5 -19.5t19.5 -46.5zM164 -2q-10 -26 -26 -55t-38 -61h-60q34 63 48 108q-46 15 -46 63q0 28 19 47.5t48 19.5q28 0 47.5 -20t19.5 -46q0 -28 -12 -56z" />
    <glyph glyph-name="less" unicode="&#x3c;" horiz-adv-x="287" 
d="M242 111h-73l-124 163l128 161h68l-85 -162z" />
    <glyph glyph-name="equal" unicode="=" horiz-adv-x="542" 
d="M487 323h-430v84h430v-84zM485 140h-430v84h430v-84z" />
    <glyph glyph-name="greater" unicode="&#x3e;" horiz-adv-x="287" 
d="M242 274l-125 -163h-72l85 162l-85 162h68z" />
    <glyph glyph-name="question" unicode="?" horiz-adv-x="445" 
d="M388 605q0 -72 -75 -154q-47 -52 -47 -171v-33q0 -15 -1 -31h-86l-2 64q-2 85 7 118q16 59 75 127q32 37 32 71q0 35 -22.5 59t-60.5 24q-53 0 -81 -36l-52 30q22 33 61.5 55.5t82.5 22.5q73 0 119 -37q50 -39 50 -109zM291 51q0 -27 -19.5 -46.5t-46.5 -19.5t-46.5 19.5
t-19.5 46.5q0 28 19.5 47t46.5 19t46.5 -19t19.5 -47z" />
    <glyph glyph-name="at" unicode="@" horiz-adv-x="884" 
d="M829 246q0 -93 -35 -151q-40 -67 -127 -67q-39 0 -71.5 19.5t-45.5 51.5q-10 -30 -44 -50.5t-80 -20.5q-79 0 -125 43.5t-46 118.5q0 81 46 126.5t128 45.5h40q27 0 65 -1v26q0 45 -29 70t-74 25q-50 0 -87 -24l-37 48q55 44 125 44q183 0 183 -187v-195q0 -74 54 -74
q46 0 61 51q9 28 9 96v60q0 202 -59 276q-82 103 -237 103q-158 0 -238 -116q-57 -84 -57 -257q0 -129 14 -202q21 -103 94 -155q68 -50 174 -50q63 0 104 23l33 -62q-59 -32 -143 -32q-88 0 -166 32q-146 62 -184 230q-19 83 -19 214q0 176 72 289q47 73 129 116
q86 46 188 46q195 0 303 -132q82 -100 82 -324v-54zM529 291h-86q-88 0 -88 -102q0 -94 84 -94q45 0 67.5 27t22.5 69v100z" />
    <glyph glyph-name="A" unicode="A" horiz-adv-x="565" 
d="M553 0h-105l-65 230h-212l-57 -230h-102l204 738h133zM359 316l-76 342h-5l-84 -342h165z" />
    <glyph glyph-name="B" unicode="B" horiz-adv-x="548" 
d="M503 219q0 -105 -58.5 -162t-173.5 -57h-196v738h190q99 0 156.5 -46.5t57.5 -134.5q0 -54 -25 -95q-29 -50 -85 -67q69 -16 104 -70q30 -45 30 -106zM374 548q0 52 -29 79.5t-80 27.5h-90v-225h95q103 0 104 118zM397 219q0 61 -33.5 95t-93.5 34h-95v-266h92
q61 0 95.5 37t34.5 100z" />
    <glyph glyph-name="C" unicode="C" horiz-adv-x="525" 
d="M500 86q-13 -23 -33.5 -41t-46 -31t-54.5 -20t-59 -7q-180 0 -231 174q-21 73 -21 220q0 217 84 304q64 67 173 67t177 -89l-73 -43q-36 50 -104 50q-64 0 -100 -41q-50 -56 -50 -249q0 -63 3.5 -111t10.5 -83q22 -117 130 -117q73 0 114 53z" />
    <glyph glyph-name="D" unicode="D" horiz-adv-x="570" 
d="M520 384q0 -384 -269 -384h-176v738h182q150 0 214 -109q49 -83 49 -245zM414 383q0 131 -16 176q-35 95 -151 95h-70v-570h74q106 0 142 106q21 61 21 193z" />
    <glyph glyph-name="E" unicode="E" horiz-adv-x="478" 
d="M433 87l-1 -87h-357v738h353v-85h-252v-222h211v-85h-211v-259h257z" />
    <glyph glyph-name="F" unicode="F" horiz-adv-x="453" 
d="M428 652h-252v-216h205v-88h-204v-348h-102v738h353v-86z" />
    <glyph glyph-name="G" unicode="G" horiz-adv-x="601" 
d="M550 306q0 -144 -48 -220q-65 -101 -194 -101q-136 0 -199 107q-54 91 -54 289q0 181 62 273q69 99 198 99q53 0 105 -29q53 -29 78 -73l-80 -36q-34 55 -105 55q-76 0 -114 -62t-38 -222t26 -232q31 -87 122 -87q83 0 118 74q19 39 19 134v68h-78v76h182v-113z" />
    <glyph glyph-name="H" unicode="H" horiz-adv-x="586" 
d="M511 0h-103v343h-231v-343h-102v738h101l1 -301h231v301h103v-738z" />
    <glyph glyph-name="I" unicode="I" horiz-adv-x="248" 
d="M173 0h-98v738h98v-738z" />
    <glyph glyph-name="J" unicode="J" horiz-adv-x="383" 
d="M318 738v-509q0 -127 -54 -181q-48 -48 -148 -48h-86v75h76q108 0 108 129l1 449h-161v85h264z" />
    <glyph glyph-name="K" unicode="K" horiz-adv-x="529" 
d="M525 0h-118l-232 382v-382h-100v738h100v-335l205 335h110l-212 -339z" />
    <glyph glyph-name="L" unicode="L" horiz-adv-x="463" 
d="M443 0h-368v738h103v-651h265v-87z" />
    <glyph glyph-name="M" unicode="M" horiz-adv-x="687" 
d="M612 0h-93v553h-4l-152 -225h-36l-155 225h-4v-553h-93v738h84l184 -285h2l183 285h84v-738z" />
    <glyph glyph-name="N" unicode="N" horiz-adv-x="638" 
d="M563 0h-94l-301 549v-549h-93v738h94l300 -550v550h93z" />
    <glyph glyph-name="O" unicode="O" 
d="M540 379q0 -239 -86 -331q-60 -63 -157 -63q-94 0 -156 62q-86 88 -86 331q0 214 80 303q66 72 162 72q105 0 166 -73q77 -91 77 -301zM433 380q0 145 -24 210q-30 81 -111 81q-85 0 -113 -85q-23 -69 -23 -208q0 -162 23 -228q30 -83 114 -83q83 0 112 86q22 65 22 227z
" />
    <glyph glyph-name="P" unicode="P" horiz-adv-x="502" 
d="M495 536q0 -100 -61 -157.5t-169 -57.5h-89v-321h-101v738h195q51 0 92.5 -13.5t71 -39.5t45.5 -63.5t16 -85.5zM394 536q0 57 -32 88t-87 31h-98v-252h96q121 0 121 133z" />
    <glyph glyph-name="Q" unicode="Q" 
d="M540 379q0 -239 -86 -331q-44 -47 -114 -59v-40q0 -56 63 -56h53v-63h-102q-105 0 -105 117v43q-63 12 -108 57q-86 88 -86 331q0 214 80 303q66 72 162 72q105 0 166 -73q77 -91 77 -301zM433 380q0 145 -24 210q-30 81 -111 81q-85 0 -113 -85q-23 -69 -23 -208
q0 -162 23 -228q30 -83 114 -83q83 0 112 86q22 65 22 227z" />
    <glyph glyph-name="R" unicode="R" horiz-adv-x="564" 
d="M549 0h-115l-182 320h-76v-320h-101v738h195q49 0 89 -14.5t68 -41t43 -64t15 -84.5q0 -33 -9.5 -63t-26.5 -54.5t-41.5 -43t-54.5 -27.5zM388 536q0 116 -114 116h-98v-246h85q60 0 93.5 34.5t33.5 95.5z" />
    <glyph glyph-name="S" unicode="S" horiz-adv-x="518" 
d="M478 205q0 -93 -68 -156t-171 -63q-121 0 -187 107l79 43q36 -66 112 -66q27 0 49.5 10t38.5 27t25 40.5t9 50.5q0 90 -127 163q-165 94 -165 210q0 73 47 125q53 56 146 56q102 0 161 -93l-74 -39q-29 51 -86 51q-40 0 -63 -26.5t-23 -61.5q0 -69 91 -115
q206 -102 206 -263z" />
    <glyph glyph-name="T" unicode="T" horiz-adv-x="448" 
d="M438 652h-163v-652h-102v651h-163v87h428v-86z" />
    <glyph glyph-name="U" unicode="U" horiz-adv-x="562" 
d="M497 234q0 -73 -18 -119q-22 -60 -73 -94.5t-121 -34.5q-72 0 -123.5 34t-75.5 92q-21 49 -21 120v506h101v-497q0 -60 11 -93q28 -78 105 -78q80 0 106 81q8 27 8 89v498h101v-504z" />
    <glyph glyph-name="V" unicode="V" horiz-adv-x="527" 
d="M518 738l-191 -738h-124l-194 738h106l150 -615h1l151 615h101z" />
    <glyph glyph-name="W" unicode="W" horiz-adv-x="818" 
d="M809 738l-148 -738h-112l-141 601l-143 -601h-107l-149 738h103l106 -597l133 597h118l132 -597l105 597h103z" />
    <glyph glyph-name="X" unicode="X" horiz-adv-x="514" 
d="M508 0h-114l-139 287h-5l-137 -287h-107l193 385l-175 353h114l123 -259h5l122 259h102l-173 -359z" />
    <glyph glyph-name="Y" unicode="Y" horiz-adv-x="495" 
d="M489 738l-195 -390v-348h-101l-1 349l-186 389h102l135 -296h4l141 296h101z" />
    <glyph glyph-name="Z" unicode="Z" horiz-adv-x="521" 
d="M486 0h-451v83l336 567h-316v88h429v-81l-339 -569h341v-88z" />
    <glyph glyph-name="bracketleft" unicode="[" horiz-adv-x="339" 
d="M299 -203h-213v1082h212v-83h-107v-915h108v-84z" />
    <glyph glyph-name="backslash" unicode="\" horiz-adv-x="426" 
d="M406 -75h-85l-301 886h85z" />
    <glyph glyph-name="bracketright" unicode="]" horiz-adv-x="339" 
d="M254 -203h-214v84h108v915h-107v83h213v-1082z" />
    <glyph glyph-name="asciicircum" unicode="^" horiz-adv-x="364" 
d="M317 674l-31 -51l-105 44l-100 -43l-34 48l133 74z" />
    <glyph glyph-name="underscore" unicode="_" horiz-adv-x="489" 
d="M489 -140h-489v70h489v-70z" />
    <glyph glyph-name="grave" unicode="`" horiz-adv-x="255" 
d="M210 598h-73l-92 137h110z" />
    <glyph glyph-name="a" unicode="a" horiz-adv-x="492" 
d="M472 0h-51q-73 0 -85 58q-34 -73 -133 -73q-38 0 -68.5 11.5t-53 33t-34.5 52t-12 68.5q0 88 45.5 137.5t135.5 49.5h96v13q0 108 -97 108q-61 0 -107 -31l-37 48q65 59 149 59q91 0 140 -49t49 -143v-227q0 -53 49 -54h14v-61zM312 262h-86q-92 0 -92 -109
q0 -42 22.5 -69t60.5 -27q95 0 95 102v103z" />
    <glyph glyph-name="b" unicode="b" horiz-adv-x="505" 
d="M454 279q0 -102 -24 -172q-19 -60 -67 -91t-108 -31q-123 0 -169 112q-25 59 -25 156v523h97v-298h3q40 54 116 54q69 0 111 -44q66 -68 66 -209zM354 263q0 55 -6 92.5t-18 60.5t-30 32.5t-42 9.5q-53 0 -78 -46q-21 -39 -21 -151q0 -129 34 -169q24 -29 64 -29
q36 0 60 26q37 37 37 174z" />
    <glyph glyph-name="c" unicode="c" horiz-adv-x="425" 
d="M396 60q-51 -75 -143 -75q-69 0 -119 41q-46 37 -63 100q-16 57 -16 134q0 169 85 236q49 38 112 38q89 0 140 -79l-63 -37q-25 37 -74 37q-39 0 -66 -31q-33 -38 -33 -163q0 -137 36 -171q29 -26 66 -26q52 0 80 37z" />
    <glyph glyph-name="d" unicode="d" horiz-adv-x="529" 
d="M508 0h-48q-77 0 -92 69q-5 -18 -17.5 -33t-29.5 -26t-37.5 -17.5t-41.5 -6.5q-60 0 -104 33t-62 90q-21 66 -21 164q0 112 42 183q47 77 140 77q70 0 106 -58h3v302h97v-656q0 -61 51 -61h14v-60zM152 262q0 -137 37 -174q24 -26 60 -26q40 0 64 29q34 40 34 169
q0 112 -21 151q-25 46 -78 46q-24 0 -42 -9.5t-30 -32.5t-18 -60.5t-6 -92.5z" />
    <glyph glyph-name="e" unicode="e" horiz-adv-x="495" 
d="M447 246h-291v-36q0 -145 110 -145q65 0 95 44l59 -41q-52 -82 -156 -82q-122 0 -171 88q-38 68 -38 194q0 110 45 181q54 83 156 83q75 0 128 -53q63 -63 63 -197v-36zM346 323q0 48 -14 81q-23 50 -79 50q-50 0 -75 -46q-20 -35 -20 -85h188z" />
    <glyph glyph-name="f" unicode="f" horiz-adv-x="315" 
d="M329 631h-60q-45 0 -61.5 -20t-16.5 -63v-32h120v-73h-120v-443h-97v442h-74v74h74v45q0 73 39 111q34 34 92 34h104v-75z" />
    <glyph glyph-name="g" unicode="g" horiz-adv-x="507" 
d="M442 516v-499q0 -230 -199 -230h-96v75h94q48 0 74 29.5t26 77.5v131q-10 -30 -42.5 -48.5t-68.5 -18.5q-70 0 -116 48q-61 64 -61 198q0 138 64 202q52 51 118 51q86 0 128 -81h3v65h76zM343 275q0 99 -21 137q-23 42 -72 42q-75 0 -91 -91q-7 -34 -7 -87
q0 -109 37 -146q24 -25 60 -25q52 0 74 43q20 42 20 127z" />
    <glyph glyph-name="h" unicode="h" horiz-adv-x="511" 
d="M443 0h-97v349q0 37 -11 62q-23 47 -81 47q-53 0 -77 -47q-14 -28 -14 -69v-342h-97v777h97v-297l3 -1q43 55 117 55q36 0 65.5 -13t50.5 -36.5t32.5 -56.5t11.5 -74v-354z" />
    <glyph glyph-name="i" unicode="i" horiz-adv-x="253" 
d="M193 669q0 -28 -19.5 -47.5t-47.5 -19.5q-27 0 -46.5 19.5t-19.5 47.5q0 27 19.5 46.5t46.5 19.5q28 0 47.5 -19.5t19.5 -46.5zM175 516v-516h-99v516h99z" />
    <glyph glyph-name="j" unicode="j" horiz-adv-x="253" 
d="M198 669q0 -28 -19.5 -47.5t-47.5 -19.5q-27 0 -46.5 19.5t-19.5 47.5q0 27 19.5 46.5t46.5 19.5q28 0 47.5 -19.5t19.5 -46.5zM183 -76q0 -69 -33 -103.5t-90 -34.5h-100v75h40q45 0 65 17.5t20 65.5v572h98v-592z" />
    <glyph glyph-name="k" unicode="k" horiz-adv-x="473" 
d="M461 0h-108l-190 298v-298h-97v776l97 1v-458l159 197h117l-172 -210z" />
    <glyph glyph-name="l" unicode="l" horiz-adv-x="279" 
d="M259 0h-79q-52 0 -80.5 30t-28.5 79v668l97 -1v-647q0 -69 68 -69h23v-60z" />
    <glyph glyph-name="m" unicode="m" horiz-adv-x="764" 
d="M697 0h-97v354q0 45 -22 73.5t-59 28.5q-42 0 -65.5 -28.5t-23.5 -71.5v-356h-97v349q0 105 -85 105q-42 0 -64 -30.5t-22 -76.5v-347h-97v516h72v-70h3q15 39 50 62.5t80 23.5q43 0 78.5 -26.5t48.5 -71.5q16 44 59 73q38 25 85 25q72 0 114 -48t42 -130v-354z" />
    <glyph glyph-name="n" unicode="n" horiz-adv-x="517" 
d="M450 0h-97v334q0 53 -23 85q-26 35 -72 35q-55 0 -81 -47q-15 -29 -15 -73v-334h-97v516h71v-70h3q13 38 52.5 61.5t87.5 23.5q78 0 124.5 -51.5t46.5 -148.5v-331z" />
    <glyph glyph-name="o" unicode="o" horiz-adv-x="497" 
d="M445 263q0 -163 -74 -232q-49 -46 -121 -46q-83 0 -133 53q-65 71 -65 231q0 119 48 187q52 76 148 76q99 0 152 -78q45 -65 45 -191zM344 261q0 109 -24 150t-70 41q-51 0 -75 -45q-22 -40 -22 -148q0 -127 33 -166q24 -28 63 -28q35 0 59 25q36 37 36 171z" />
    <glyph glyph-name="p" unicode="p" horiz-adv-x="508" 
d="M453 263q0 -277 -184 -277q-64 0 -103 46l-3 -1v-254h-98v739h75v-71h3q39 87 132 87q73 0 119 -55q59 -70 59 -214zM355 261q0 55 -6 92.5t-18 60.5t-30 32.5t-42 9.5q-52 0 -77 -46q-22 -40 -22 -151q0 -129 34 -169q24 -29 64 -29q36 0 60 26q37 37 37 174z" />
    <glyph glyph-name="q" unicode="q" horiz-adv-x="504" 
d="M438 -215h-97v250h-3q-28 -49 -101 -49q-48 0 -88 24.5t-60 66.5q-34 68 -34 178q0 142 51.5 210t145.5 68q54 0 97.5 -29t64.5 -80q24 -56 24 -168v-471zM149 259q0 -137 37 -174q24 -26 60 -26q40 0 64 29q34 40 34 169q0 112 -22 152q-25 46 -77 46q-47 0 -72 -42
q-24 -42 -24 -154z" />
    <glyph glyph-name="r" unicode="r" horiz-adv-x="317" 
d="M307 444h-40q-51 0 -78 -31.5t-27 -82.5v-330h-97v516h83v-63h2q12 28 43 45.5t70 17.5h44v-72z" />
    <glyph glyph-name="s" unicode="s" horiz-adv-x="411" 
d="M366 139q0 -64 -48 -109t-127 -45q-111 0 -161 92l64 32q31 -51 93 -51q37 0 58 23.5t21 60.5q0 34 -26 60q-15 15 -60 42q-111 66 -111 160q0 27 9.5 50t28 40.5t45 27.5t59.5 10q87 0 131 -71l-62 -36q-23 35 -61 35q-26 0 -41.5 -16t-15.5 -38q0 -47 56 -76
q75 -37 111 -79q37 -46 37 -112z" />
    <glyph glyph-name="t" unicode="t" horiz-adv-x="330" 
d="M303 445h-117v-325q0 -60 66 -60h41v-60h-96q-108 0 -108 118v327h-69v70q49 0 74 31.5t29 106.5h62v-137h117z" />
    <glyph glyph-name="u" unicode="u" horiz-adv-x="536" 
d="M516 0h-60q-70 0 -89 63q-33 -77 -139 -77q-81 0 -124 57q-39 51 -39 135v338h97v-355q0 -45 23.5 -73t68.5 -28q43 0 68 30t25 75v351h97v-395q0 -59 48 -60h24v-61z" />
    <glyph glyph-name="v" unicode="v" horiz-adv-x="435" 
d="M423 516l-156 -516h-96l-159 516h96l111 -403h3l110 403h91z" />
    <glyph glyph-name="w" unicode="w" horiz-adv-x="674" 
d="M662 516l-123 -516h-97l-105 404h-1l-107 -404h-97l-120 516h90l80 -400h1l104 400h99l105 -400h1l83 400h87z" />
    <glyph glyph-name="x" unicode="x" horiz-adv-x="444" 
d="M336 1l-114 202l-112 -202h-96l156 270l-150 245h98l102 -179l94 179h95l-138 -243l161 -272h-96z" />
    <glyph glyph-name="y" unicode="y" horiz-adv-x="425" 
d="M416 516l-153 -579q-40 -151 -199 -151h-29v75h19q108 0 132 95l4 16l-175 544h96l115 -400h3l97 400h90z" />
    <glyph glyph-name="z" unicode="z" horiz-adv-x="442" 
d="M402 0h-362v96l266 347h-256l1 73h347v-98l-260 -343h264v-75z" />
    <glyph glyph-name="braceleft" unicode="{" horiz-adv-x="304" 
d="M283 -203h-67q-54 0 -83.5 34.5t-29.5 91.5v277q0 93 -68 104v72q68 9 68 99v277q0 50 32 88t81 38h68l-1 -71q-29 -2 -38 -4q-20 -6 -27.5 -23.5t-7.5 -47.5v-271q0 -45 -19 -72t-68 -48q58 -25 73 -59q14 -31 14 -66v-273q0 -49 21 -64q14 -9 53 -10z" />
    <glyph glyph-name="bar" unicode="|" horiz-adv-x="330" 
d="M210 -74h-90v886h90v-886z" />
    <glyph glyph-name="braceright" unicode="}" horiz-adv-x="304" 
d="M269 304q-68 -11 -68 -104v-277q0 -57 -29.5 -91.5t-83.5 -34.5h-67l-1 72q29 2 38 4q20 5 28 22.5t8 47.5v273q0 37 13 66q16 34 74 59q-49 21 -68 48t-19 72v271q0 50 -21 65q-14 9 -52 10l-1 71h68q49 0 81 -38t32 -88v-277q0 -90 68 -99v-72z" />
    <glyph glyph-name="asciitilde" unicode="~" horiz-adv-x="456" 
d="M413 307q-36 -51 -103 -51q-51 0 -89 20q-37 20 -64 20q-39 0 -65 -26l-49 32q7 12 20 22.5t28.5 18t32.5 12t32 4.5q42 0 71 -15q46 -25 81 -25q36 0 58 22z" />
    <glyph glyph-name="nonbreakingspace" unicode="&#xa0;" horiz-adv-x="240" 
 />
    <glyph glyph-name="exclamdown" unicode="&#xa1;" horiz-adv-x="338" 
d="M227 -201l-116 1l17 507h81zM235 475q0 -28 -19.5 -47t-46.5 -19q-28 0 -47 19t-19 47q0 27 19 46.5t47 19.5q27 0 46.5 -19.5t19.5 -46.5z" />
    <glyph glyph-name="cent" unicode="&#xa2;" horiz-adv-x="425" 
d="M398 60q-44 -66 -122 -73v-83h-52v84q-85 10 -132 89q-37 61 -37 186q0 112 39 180q44 77 130 88v85h52v-84q78 -8 117 -78l-63 -36q-16 31 -54 37v-391q40 3 62 37zM224 451q-32 -9 -48 -42q-22 -43 -22 -149q0 -76 11 -123q15 -59 59 -70v384z" />
    <glyph glyph-name="sterling" unicode="&#xa3;" horiz-adv-x="552" 
d="M527 37q-58 -37 -159 -37h-328v69h132v278h-90v64h90v49q0 30 1 71q0 42 3 62q12 78 70 121q52 40 128 40q64 0 109 -21l-22 -48q-32 12 -68 12q-57 0 -87 -35.5t-30 -93.5v-151h187l-1 -71h-187v-277h118q80 0 133 30z" />
    <glyph glyph-name="currency" unicode="&#xa4;" horiz-adv-x="487" 
d="M249 520q-58 0 -88 -47q-24 -39 -24 -100q0 -58 24 -95q29 -47 87 -47t86 46q24 37 24 98q0 59 -22 96q-28 49 -87 49zM463 577l-59 -66q38 -47 38 -134q0 -82 -43 -140l65 -71l-49 -43l-66 67q-41 -32 -100 -32q-68 0 -109 37l-67 -73l-50 44l71 76q-41 55 -41 141
q0 81 34 124l-65 67l50 46l62 -64q43 39 113 39q69 0 112 -37l57 61z" />
    <glyph glyph-name="yen" unicode="&#xa5;" horiz-adv-x="500" 
d="M492 738l-186 -392h148v-67h-148v-71h148v-63h-146v-145h-108v145h-154v63h149v71h-149l1 64l150 1l-189 394h118l127 -307l129 307h110z" />
    <glyph glyph-name="brokenbar" unicode="&#xa6;" horiz-adv-x="330" 
d="M210 450h-90v361h90v-361zM210 -74h-90v358h90v-358z" />
    <glyph glyph-name="section" unicode="&#xa7;" horiz-adv-x="580" 
d="M515 258q0 -50 -39 -84q-40 -36 -95 -37q96 -50 96 -161q0 -79 -59 -132t-140 -53q-60 0 -112 26.5t-77 74.5l74 36q38 -56 100 -56q51 0 82.5 33t31.5 81q0 46 -41 81q-10 8 -30 19.5t-51 27.5q-90 46 -126 79q-64 55 -64 126q0 28 11 51.5t31 40t48 25t61 7.5
q-91 51 -91 140q0 71 47 120q51 51 137 51q112 0 165 -102l-71 -33q-28 55 -87 55q-43 0 -67 -24.5t-24 -60.5q0 -63 62 -104q55 -30 112 -59q63 -37 89.5 -75t26.5 -93zM408 240q5 15 5 27q0 60 -93 101q-41 18 -76 18q-55 0 -73 -46q-4 -11 -4 -24q0 -48 60 -87
q56 -35 106 -35q57 0 75 46z" />
    <glyph glyph-name="dieresis" unicode="&#xa8;" horiz-adv-x="434" 
d="M366 688q0 -24 -17 -40.5t-40 -16.5q-24 0 -40.5 16.5t-16.5 40.5t16.5 40.5t40.5 16.5q23 0 40 -16.5t17 -40.5zM182 688q0 -24 -16.5 -40.5t-40.5 -16.5q-23 0 -40 16.5t-17 40.5t17 40.5t40 16.5q24 0 40.5 -16.5t16.5 -40.5z" />
    <glyph glyph-name="copyright" unicode="&#xa9;" horiz-adv-x="735" 
d="M490 214q-42 -69 -118 -69q-112 0 -139 115q-10 44 -10 103q0 109 28 156q39 66 121 66q77 0 116 -71l-59 -28q-21 31 -56 31q-53 0 -60 -73q-2 -14 -3 -34t-1 -47q0 -26 1.5 -47t3.5 -38q10 -64 62 -64q34 0 53 25zM685 372q0 -209 -94 -303q-87 -88 -227 -88
q-142 0 -227 85q-97 96 -97 306q0 194 94 289q92 92 230 92q143 0 231 -94q90 -98 90 -287zM601 373q0 177 -66 245q-66 67 -170 67q-106 0 -171 -65q-69 -71 -69 -247q0 -199 75 -266q62 -58 164 -58t167 63q45 44 60 122q5 25 7.5 59.5t2.5 79.5z" />
    <glyph glyph-name="ordfeminine" unicode="&#xaa;" horiz-adv-x="416" 
d="M371 348h-42q-50 0 -63 42q-28 -52 -89 -52q-60 0 -96 36.5t-36 96.5q0 61 35.5 98.5t102.5 37.5h66v17q0 63 -71 63q-38 0 -61 -19l-35 45q39 41 102 41q142 0 142 -144v-168q0 -37 32 -39l13 -1v-54zM245 546h-57q-61 0 -61 -73q0 -72 60 -72q58 0 58 72v73zM370 234
h-318v65h318v-65z" />
    <glyph glyph-name="guillemotleft" unicode="&#xab;" horiz-adv-x="484" 
d="M429 111h-72l-124 163l128 161h68l-85 -162zM237 111h-73l-124 163l128 161h68l-85 -162z" />
    <glyph glyph-name="logicalnot" unicode="&#xac;" horiz-adv-x="586" 
d="M531 113h-83v193h-393v81h476v-274z" />
    <glyph glyph-name="registered" unicode="&#xae;" horiz-adv-x="721" 
d="M517 160h-92l-90 171h-13v-171h-81v421h116q57 0 91 -34t34 -91q0 -76 -65 -109zM405 457q0 54 -54 54h-29v-115h26q57 0 57 61zM685 372q0 -209 -94 -303q-87 -88 -227 -88q-142 0 -227 85q-97 96 -97 306q0 195 94 289q92 92 230 92q143 0 231 -94q90 -98 90 -287z
M601 373q0 176 -65 244t-171 68q-111 0 -172 -66q-68 -74 -68 -246q0 -196 75 -266q61 -58 164 -58q107 0 167 63q70 71 70 261z" />
    <glyph glyph-name="macron" unicode="&#xaf;" horiz-adv-x="501" 
d="M381 743l-1 -77h-260l1 77h260z" />
    <glyph glyph-name="macron" unicode="&#x2c9;" horiz-adv-x="501" 
d="M381 743l-1 -77h-260l1 77h260z" />
    <glyph glyph-name="degree" unicode="&#xb0;" horiz-adv-x="349" 
d="M306 595q0 -33 -9.5 -60t-27 -46.5t-41.5 -30.5t-52 -11q-64 0 -100 46q-33 43 -33 109q0 31 9 59t25.5 48.5t41 32.5t55.5 12q63 0 97.5 -43.5t34.5 -115.5zM237 596q0 100 -63 100q-62 0 -62 -96t63 -96q62 0 62 92z" />
    <glyph glyph-name="plusminus" unicode="&#xb1;" horiz-adv-x="511" 
d="M459 315h-163v-162h-83v162h-163v82h163v162h83v-162h163v-82zM461 1h-409v81h409v-81z" />
    <glyph glyph-name="twosuperior" unicode="&#xb2;" horiz-adv-x="352" 
d="M307 357h-245v50l119 140q33 37 33 83q0 28 -18 45.5t-40 17.5q-36 0 -58 -30l-43 31q42 60 111 60q56 0 94 -35t38 -83q0 -52 -34 -95l-96 -122h139v-62z" />
    <glyph glyph-name="threesuperior" unicode="&#xb3;" horiz-adv-x="366" 
d="M323 414q0 -70 -48 -113q-48 -42 -118 -42q-31 0 -63.5 15.5t-49.5 39.5l42 34q25 -30 67 -30q37 0 62 25t25 71q0 43 -23.5 69.5t-61.5 26.5h-13v48h11q31 0 51.5 21t20.5 51q0 28 -17.5 47t-47.5 19t-54 -26l-38 30q16 22 45.5 38t57.5 16t52.5 -8.5t42.5 -24.5
t28 -37.5t10 -47.5q0 -24 -15 -51q-17 -31 -43 -44q37 -14 57 -49.5t20 -77.5z" />
    <glyph glyph-name="acute" unicode="&#xb4;" horiz-adv-x="256" 
d="M216 735l-93 -137h-72l54 137h111z" />
    <glyph glyph-name="mu" unicode="&#xb5;" horiz-adv-x="546" 
d="M526 0h-60q-71 0 -89 58q-14 -31 -48 -50.5t-71 -19.5q-60 0 -85 33v-201h-98v696h99v-348q0 -49 21 -74q25 -31 69 -31q42 0 66.5 29t24.5 77v347h99v-395q0 -59 48 -60h24v-61z" />
    <glyph glyph-name="mu" unicode="&#x3bc;" horiz-adv-x="546" 
d="M526 0h-60q-71 0 -89 58q-14 -31 -48 -50.5t-71 -19.5q-60 0 -85 33v-201h-98v696h99v-348q0 -49 21 -74q25 -31 69 -31q42 0 66.5 29t24.5 77v347h99v-395q0 -59 48 -60h24v-61z" />
    <glyph glyph-name="paragraph" unicode="&#xb6;" horiz-adv-x="572" 
d="M401 -123v768h-95v-768h-95v536q-75 5 -115.5 46.5t-40.5 116.5q0 35 10.5 64.5t29.5 51.5t46.5 34t60.5 12h293q1 -38 1 -254v-607h-95z" />
    <glyph glyph-name="periodcentered" unicode="&#xb7;" horiz-adv-x="272" 
d="M201 347q0 -28 -19.5 -47t-46.5 -19t-46.5 19t-19.5 47q0 27 19.5 46.5t46.5 19.5t46.5 -19.5t19.5 -46.5z" />
    <glyph glyph-name="periodcentered" unicode="&#x22c5;" horiz-adv-x="272" 
d="M201 347q0 -28 -19.5 -47t-46.5 -19t-46.5 19t-19.5 47q0 27 19.5 46.5t46.5 19.5t46.5 -19.5t19.5 -46.5z" />
    <glyph glyph-name="cedilla" unicode="&#xb8;" horiz-adv-x="297" 
d="M223 -146q0 -36 -26 -59t-68 -23t-58 24l34 36q7 -5 21 -5q12 0 20.5 10t8.5 21v21q0 31 -30 31q-12 0 -24 -5v81l45 -1v-30q38 3 59 -22q18 -20 18 -50v-29z" />
    <glyph glyph-name="onesuperior" unicode="&#xb9;" horiz-adv-x="289" 
d="M209 355h-78v322l-63 -17l-13 50l154 38v-393z" />
    <glyph glyph-name="ordmasculine" unicode="&#xba;" horiz-adv-x="392" 
d="M343 547q0 -93 -30 -145q-38 -65 -117 -65q-81 0 -117 63q-32 56 -32 151q0 103 42 152.5t106 49.5q111 0 139 -115q9 -39 9 -91zM346 234h-301v65h301v-65zM262 545q0 67 -11 102q-13 40 -55 40q-43 0 -56 -43q-11 -36 -11 -95q0 -71 10 -102q14 -44 56 -44q41 0 55 38
q12 31 12 104z" />
    <glyph glyph-name="guillemotright" unicode="&#xbb;" horiz-adv-x="484" 
d="M444 274l-124 -163h-72l85 162l-85 162h68zM252 274l-125 -163h-72l85 162l-85 162h68z" />
    <glyph glyph-name="onequarter" unicode="&#xbc;" horiz-adv-x="734" 
d="M707 137h-61v-98h-75v98h-191v63l166 309h100v-315h60zM555 738l-386 -739h-70l386 739h70zM194 357h-78v320l-63 -17l-13 50l154 38v-391zM571 194l-1 231l-120 -230z" />
    <glyph glyph-name="onehalf" unicode="&#xbd;" horiz-adv-x="735" 
d="M710 74h-245v50l119 140q32 38 32 83q0 28 -17.5 46t-40.5 18q-35 0 -57 -31l-44 31q43 60 112 60q28 0 52.5 -9t42 -25t27.5 -37.5t10 -46.5q0 -52 -34 -95l-97 -122h140v-62zM547 738l-386 -739h-70l386 739h70zM194 357h-78v320l-63 -17l-13 50l154 38v-391z" />
    <glyph glyph-name="threequarters" unicode="&#xbe;" horiz-adv-x="852" 
d="M806 137h-60v-98h-75v98h-191v63l166 309h100v-315h60v-57zM661 738l-386 -739h-70l386 739h70zM670 194v231l-120 -230zM323 414q0 -70 -48 -113q-48 -42 -118 -42q-31 0 -63.5 15.5t-49.5 39.5l42 34q25 -30 67 -30q37 0 62 25t25 71q0 43 -23.5 69.5t-61.5 26.5h-13
v48h11q31 0 51.5 21t20.5 51q0 28 -17.5 47t-47.5 19t-54 -26l-38 30q16 22 45.5 38t57.5 16t52.5 -8.5t42.5 -24.5t28 -37.5t10 -47.5q0 -24 -15 -51q-17 -31 -43 -44q37 -14 57 -49.5t20 -77.5z" />
    <glyph glyph-name="questiondown" unicode="&#xbf;" horiz-adv-x="445" 
d="M60 -85q0 71 75 154q47 52 47 171v32q0 16 1 32h86l2 -64q2 -85 -7 -118q-16 -59 -75 -127q-32 -37 -32 -71q0 -35 22.5 -59t60.5 -24q52 0 81 36l52 -30q-22 -32 -60 -55q-41 -23 -84 -23q-73 0 -119 37q-50 39 -50 109zM157 469q0 27 19.5 46.5t46.5 19.5t46.5 -19.5
t19.5 -46.5q0 -28 -19.5 -47t-46.5 -19t-46.5 19t-19.5 47z" />
    <glyph glyph-name="Agrave" unicode="&#xc0;" horiz-adv-x="565" 
d="M330 794h-73l-92 137h110zM553 0h-105l-65 230h-212l-57 -230h-102l204 738h133zM359 316l-76 342h-5l-84 -342h165z" />
    <glyph glyph-name="Aacute" unicode="&#xc1;" horiz-adv-x="565" 
d="M401 931l-93 -137h-72l54 137h111zM553 0h-105l-65 230h-212l-57 -230h-102l204 738h133zM359 316l-76 342h-5l-84 -342h165z" />
    <glyph glyph-name="Acircumflex" unicode="&#xc2;" horiz-adv-x="565" 
d="M409 828l-20 -51l-112 55l-107 -54l-19 48l127 82zM553 0h-105l-65 230h-212l-57 -230h-102l204 738h133zM359 316l-76 342h-5l-84 -342h165z" />
    <glyph glyph-name="Atilde" unicode="&#xc3;" horiz-adv-x="565" 
d="M454 837q-31 -52 -90 -52q-42 0 -81 21q-38 21 -57 21q-31 0 -53 -27l-49 32q37 57 102 57q33 0 62 -15q52 -27 73 -27q29 0 46 24zM553 0h-105l-65 230h-212l-57 -230h-102l204 738h133zM359 316l-76 342h-5l-84 -342h165z" />
    <glyph glyph-name="Adieresis" unicode="&#xc4;" horiz-adv-x="565" 
d="M432 870q0 -24 -17 -40.5t-40 -16.5q-24 0 -40.5 16.5t-16.5 40.5t16.5 40.5t40.5 16.5q23 0 40 -16.5t17 -40.5zM248 870q0 -24 -16.5 -40.5t-40.5 -16.5q-23 0 -40 16.5t-17 40.5t17 40.5t40 16.5q24 0 40.5 -16.5t16.5 -40.5zM553 0h-105l-65 230h-212l-57 -230h-102
l204 738h133zM359 316l-76 342h-5l-84 -342h165z" />
    <glyph glyph-name="Aring" unicode="&#xc5;" horiz-adv-x="565" 
d="M281 775q-38 0 -61 29q-20 26 -20 68q0 43 21.5 71t61.5 28q81 0 81 -100q0 -42 -22.5 -69t-60.5 -27zM314 872q0 60 -32 60t-32 -59t32 -59t32 58zM553 0h-105l-65 230h-212l-57 -230h-102l204 738h133zM359 316l-76 342h-5l-84 -342h165z" />
    <glyph glyph-name="AE" unicode="&#xc6;" horiz-adv-x="856" 
d="M811 88l-1 -88h-351v99q0 60 -1 139h-214l-125 -238h-109l388 738h407l-1 -89l-239 1v-211h200v-81h-197v-270h243zM459 319l-1 338l-175 -338h176z" />
    <glyph glyph-name="Ccedilla" unicode="&#xc7;" horiz-adv-x="524" 
d="M500 86q-49 -83 -163 -97v-36q77 5 77 -85q0 -98 -94 -98q-37 0 -58 24l34 36q7 -5 21 -5q29 0 29 42q0 41 -30 41q-16 0 -28 -5v85q-164 11 -212 173q-21 73 -21 220q0 217 84 304q64 67 173 67t177 -89l-73 -43q-36 50 -104 50q-64 0 -100 -41q-50 -56 -50 -249
q0 -63 3.5 -111t10.5 -83q22 -117 130 -117q73 0 114 53z" />
    <glyph glyph-name="Egrave" unicode="&#xc8;" horiz-adv-x="483" 
d="M310 795h-73l-92 137h110zM433 87l-1 -87h-357v738h353v-85h-252v-222h211v-85h-211v-259h257z" />
    <glyph glyph-name="Eacute" unicode="&#xc9;" horiz-adv-x="493" 
d="M351 932l-93 -137h-72l54 137h111zM433 87l-1 -87h-357v738h353v-85h-252v-222h211v-85h-211v-259h257z" />
    <glyph glyph-name="Ecircumflex" unicode="&#xca;" horiz-adv-x="478" 
d="M380 830l-20 -51l-112 55l-107 -54l-19 48l127 82zM433 87l-1 -87h-357v738h353v-85h-252v-222h211v-85h-211v-259h257z" />
    <glyph glyph-name="Edieresis" unicode="&#xcb;" horiz-adv-x="483" 
d="M403 869q0 -24 -17 -40.5t-40 -16.5q-24 0 -40.5 16.5t-16.5 40.5t16.5 40.5t40.5 16.5q23 0 40 -16.5t17 -40.5zM219 869q0 -24 -16.5 -40.5t-40.5 -16.5q-23 0 -40 16.5t-17 40.5t17 40.5t40 16.5q24 0 40.5 -16.5t16.5 -40.5zM433 87l-1 -87h-357v738h353v-85h-252
v-222h211v-85h-211v-259h257z" />
    <glyph glyph-name="Igrave" unicode="&#xcc;" horiz-adv-x="235" 
d="M151 794h-73l-92 137h110zM160 0h-98v738h98v-738z" />
    <glyph glyph-name="Iacute" unicode="&#xcd;" horiz-adv-x="249" 
d="M249 931l-93 -137h-72l54 137h111zM173 0h-98v738h98v-738z" />
    <glyph glyph-name="Icircumflex" unicode="&#xce;" horiz-adv-x="242" 
d="M250 828l-20 -51l-112 55l-107 -54l-19 48l127 82zM169 0h-98v738h98v-738z" />
    <glyph glyph-name="Idieresis" unicode="&#xcf;" horiz-adv-x="260" 
d="M275 871q0 -24 -17 -40.5t-40 -16.5q-24 0 -40.5 16.5t-16.5 40.5t16.5 40.5t40.5 16.5q23 0 40 -16.5t17 -40.5zM91 871q0 -24 -16.5 -40.5t-40.5 -16.5q-23 0 -40 16.5t-17 40.5t17 40.5t40 16.5q24 0 40.5 -16.5t16.5 -40.5zM173 0h-98v738h98v-738z" />
    <glyph glyph-name="Eth" unicode="&#xd0;" horiz-adv-x="583" 
d="M185 431h128v-85h-128v-262h74q106 0 142 106q21 61 21 193q0 131 -16 176q-35 95 -151 95h-70v-223zM10 431h73v307h182q150 0 214 -109q49 -83 49 -245q0 -384 -269 -384h-176v346h-73v85z" />
    <glyph glyph-name="Ntilde" unicode="&#xd1;" horiz-adv-x="648" 
d="M483 857q-32 -51 -90 -51q-43 0 -82 21q-38 21 -57 21q-30 0 -52 -27l-49 31q37 58 101 58q34 0 63 -16q52 -27 73 -27q30 0 46 25zM563 0h-94l-301 549v-549h-93v738h94l300 -550v550h93z" />
    <glyph glyph-name="Ograve" unicode="&#xd2;" 
d="M341 795h-73l-92 137h110zM540 379q0 -239 -86 -331q-60 -63 -157 -63q-94 0 -156 62q-86 88 -86 331q0 214 80 303q66 72 162 72q105 0 166 -73q77 -91 77 -301zM433 380q0 145 -24 210q-30 81 -111 81q-85 0 -113 -85q-23 -69 -23 -208q0 -162 23 -228q30 -83 114 -83
q83 0 112 86q22 65 22 227z" />
    <glyph glyph-name="Oacute" unicode="&#xd3;" 
d="M422 932l-93 -137h-72l54 137h111zM540 379q0 -239 -86 -331q-60 -63 -157 -63q-94 0 -156 62q-86 88 -86 331q0 214 80 303q66 72 162 72q105 0 166 -73q77 -91 77 -301zM433 380q0 145 -24 210q-30 81 -111 81q-85 0 -113 -85q-23 -69 -23 -208q0 -162 23 -228
q30 -83 114 -83q83 0 112 86q22 65 22 227z" />
    <glyph glyph-name="Ocircumflex" unicode="&#xd4;" 
d="M431 832l-20 -51l-112 55l-107 -54l-19 48l127 82zM540 379q0 -239 -86 -331q-60 -63 -157 -63q-94 0 -156 62q-86 88 -86 331q0 214 80 303q66 72 162 72q105 0 166 -73q77 -91 77 -301zM433 380q0 145 -24 210q-30 81 -111 81q-85 0 -113 -85q-23 -69 -23 -208
q0 -162 23 -228q30 -83 114 -83q83 0 112 86q22 65 22 227z" />
    <glyph glyph-name="Otilde" unicode="&#xd5;" 
d="M457 843q-31 -52 -90 -52q-42 0 -81 21q-38 21 -57 21q-31 0 -53 -27l-49 32q37 57 102 57q33 0 62 -15q52 -27 73 -27q29 0 46 24zM540 379q0 -239 -86 -331q-60 -63 -157 -63q-94 0 -156 62q-86 88 -86 331q0 214 80 303q66 72 162 72q105 0 166 -73q77 -91 77 -301z
M433 380q0 145 -24 210q-30 81 -111 81q-85 0 -113 -85q-23 -69 -23 -208q0 -162 23 -228q30 -83 114 -83q83 0 112 86q22 65 22 227z" />
    <glyph glyph-name="Odieresis" unicode="&#xd6;" 
d="M449 870q0 -24 -17 -40.5t-40 -16.5q-24 0 -40.5 16.5t-16.5 40.5t16.5 40.5t40.5 16.5q23 0 40 -16.5t17 -40.5zM265 870q0 -24 -16.5 -40.5t-40.5 -16.5q-23 0 -40 16.5t-17 40.5t17 40.5t40 16.5q24 0 40.5 -16.5t16.5 -40.5zM540 379q0 -239 -86 -331
q-60 -63 -157 -63q-94 0 -156 62q-86 88 -86 331q0 214 80 303q66 72 162 72q105 0 166 -73q77 -91 77 -301zM433 380q0 145 -24 210q-30 81 -111 81q-85 0 -113 -85q-23 -69 -23 -208q0 -162 23 -228q30 -83 114 -83q83 0 112 86q22 65 22 227z" />
    <glyph glyph-name="multiply" unicode="&#xd7;" horiz-adv-x="522" 
d="M461 114l-56 -56l-144 143l-144 -143l-56 56l144 144l-144 143l56 57l144 -145l144 145l56 -57l-145 -143z" />
    <glyph glyph-name="Oslash" unicode="&#xd8;" 
d="M580 732l-77 -114q37 -81 37 -236q0 -255 -93 -340q-62 -57 -153 -57q-101 0 -159 72l-67 -100l-41 28l76 116q-48 85 -48 274q0 220 80 306q67 72 165 72q108 0 176 -86l63 93zM415 573q-11 42 -39 69q-32 29 -76 29q-63 0 -97 -51q-41 -61 -41 -247q0 -119 10 -166z
M433 378q0 43 -1 74t-3 51l-239 -360q11 -34 40 -55t67 -21q56 0 91 42q45 55 45 269z" />
    <glyph glyph-name="Ugrave" unicode="&#xd9;" horiz-adv-x="562" 
d="M345 795h-73l-92 137h110zM497 234q0 -73 -18 -119q-22 -60 -73 -94.5t-121 -34.5q-72 0 -123.5 34t-75.5 92q-21 49 -21 120v506h101v-497q0 -60 11 -93q28 -78 105 -78q80 0 106 81q8 27 8 89v498h101v-504z" />
    <glyph glyph-name="Uacute" unicode="&#xda;" horiz-adv-x="562" 
d="M382 932l-93 -137h-72l54 137h111zM497 234q0 -73 -18 -119q-22 -60 -73 -94.5t-121 -34.5q-72 0 -123.5 34t-75.5 92q-21 49 -21 120v506h101v-497q0 -60 11 -93q28 -78 105 -78q80 0 106 81q8 27 8 89v498h101v-504z" />
    <glyph glyph-name="Ucircumflex" unicode="&#xdb;" horiz-adv-x="562" 
d="M412 831l-20 -51l-112 55l-107 -54l-19 48l127 82zM497 234q0 -73 -18 -119q-22 -60 -73 -94.5t-121 -34.5q-72 0 -123.5 34t-75.5 92q-21 49 -21 120v506h101v-497q0 -60 11 -93q28 -78 105 -78q80 0 106 81q8 27 8 89v498h101v-504z" />
    <glyph glyph-name="Udieresis" unicode="&#xdc;" horiz-adv-x="562" 
d="M429 870q0 -24 -17 -40.5t-40 -16.5q-24 0 -40.5 16.5t-16.5 40.5t16.5 40.5t40.5 16.5q23 0 40 -16.5t17 -40.5zM245 870q0 -24 -16.5 -40.5t-40.5 -16.5q-23 0 -40 16.5t-17 40.5t17 40.5t40 16.5q24 0 40.5 -16.5t16.5 -40.5zM497 234q0 -73 -18 -119
q-22 -60 -73 -94.5t-121 -34.5q-72 0 -123.5 34t-75.5 92q-21 49 -21 120v506h101v-497q0 -60 11 -93q28 -78 105 -78q80 0 106 81q8 27 8 89v498h101v-504z" />
    <glyph glyph-name="Yacute" unicode="&#xdd;" horiz-adv-x="495" 
d="M339 932l-93 -137h-72l54 137h111zM489 738l-195 -390v-348h-101l-1 349l-186 389h102l135 -296h4l141 296h101z" />
    <glyph glyph-name="Thorn" unicode="&#xde;" horiz-adv-x="569" 
d="M533 379q0 -93 -61 -157q-67 -70 -175 -70h-122v-152h-100v738h100v-141h122q112 0 177 -66q59 -62 59 -152zM448 379q0 66 -43 106t-118 40h-112v-301h115q71 0 114 43q44 44 44 112z" />
    <glyph glyph-name="germandbls" unicode="&#xdf;" horiz-adv-x="522" 
d="M477 188q0 -188 -197 -188h-32v60l29 1q49 1 78 36q25 31 25 80q0 65 -65 132q-53 53 -53 114q0 54 48 104q24 25 24 63q0 28 -21 47.5t-52 19.5q-43 0 -69 -34t-26 -91v-532h-101v513q0 106 52 164.5t146 58.5q70 0 116 -40q47 -39 47 -97q0 -51 -29 -86
q-44 -53 -44 -85q0 -27 23 -56q11 -12 22.5 -24t22.5 -25q56 -65 56 -135z" />
    <glyph glyph-name="agrave" unicode="&#xe0;" horiz-adv-x="492" 
d="M281 601h-73l-92 137h110zM472 0h-51q-73 0 -85 58q-34 -73 -133 -73q-38 0 -68.5 11.5t-53 33t-34.5 52t-12 68.5q0 88 45.5 137.5t135.5 49.5h96v13q0 108 -97 108q-61 0 -107 -31l-37 48q65 59 149 59q91 0 140 -49t49 -143v-227q0 -53 49 -54h14v-61zM312 262h-86
q-92 0 -92 -109q0 -42 22.5 -69t60.5 -27q95 0 95 102v103z" />
    <glyph glyph-name="aacute" unicode="&#xe1;" horiz-adv-x="492" 
d="M353 736l-93 -137h-72l54 137h111zM472 0h-51q-73 0 -85 58q-34 -73 -133 -73q-38 0 -68.5 11.5t-53 33t-34.5 52t-12 68.5q0 88 45.5 137.5t135.5 49.5h96v13q0 108 -97 108q-61 0 -107 -31l-37 48q65 59 149 59q91 0 140 -49t49 -143v-227q0 -53 49 -54h14v-61z
M312 262h-86q-92 0 -92 -109q0 -42 22.5 -69t60.5 -27q95 0 95 102v103z" />
    <glyph glyph-name="acircumflex" unicode="&#xe2;" horiz-adv-x="492" 
d="M365 624l-20 -51l-112 55l-107 -54l-19 48l127 82zM472 0h-51q-73 0 -85 58q-34 -73 -133 -73q-38 0 -68.5 11.5t-53 33t-34.5 52t-12 68.5q0 88 45.5 137.5t135.5 49.5h96v13q0 108 -97 108q-61 0 -107 -31l-37 48q65 59 149 59q91 0 140 -49t49 -143v-227q0 -53 49 -54
h14v-61zM312 262h-86q-92 0 -92 -109q0 -42 22.5 -69t60.5 -27q95 0 95 102v103z" />
    <glyph glyph-name="atilde" unicode="&#xe3;" horiz-adv-x="492" 
d="M406 654q-32 -51 -90 -51q-43 0 -82 21q-38 21 -57 21q-30 0 -52 -27l-49 31q37 58 101 58q34 0 63 -16q52 -27 73 -27q30 0 46 25zM472 0h-51q-73 0 -85 58q-34 -73 -133 -73q-38 0 -68.5 11.5t-53 33t-34.5 52t-12 68.5q0 88 45.5 137.5t135.5 49.5h96v13
q0 108 -97 108q-61 0 -107 -31l-37 48q65 59 149 59q91 0 140 -49t49 -143v-227q0 -53 49 -54h14v-61zM312 262h-86q-92 0 -92 -109q0 -42 22.5 -69t60.5 -27q95 0 95 102v103z" />
    <glyph glyph-name="adieresis" unicode="&#xe4;" horiz-adv-x="492" 
d="M388 668q0 -24 -17 -40.5t-40 -16.5q-24 0 -40.5 16.5t-16.5 40.5t16.5 40.5t40.5 16.5q23 0 40 -16.5t17 -40.5zM204 668q0 -24 -16.5 -40.5t-40.5 -16.5q-23 0 -40 16.5t-17 40.5t17 40.5t40 16.5q24 0 40.5 -16.5t16.5 -40.5zM472 0h-51q-73 0 -85 58
q-34 -73 -133 -73q-38 0 -68.5 11.5t-53 33t-34.5 52t-12 68.5q0 88 45.5 137.5t135.5 49.5h96v13q0 108 -97 108q-61 0 -107 -31l-37 48q65 59 149 59q91 0 140 -49t49 -143v-227q0 -53 49 -54h14v-61zM312 262h-86q-92 0 -92 -109q0 -42 22.5 -69t60.5 -27q95 0 95 102
v103z" />
    <glyph glyph-name="aring" unicode="&#xe5;" horiz-adv-x="492" 
d="M230 588q-38 0 -61 29q-20 26 -20 68q0 43 21.5 71t61.5 28q81 0 81 -100q0 -42 -22.5 -69t-60.5 -27zM263 685q0 60 -32 60t-32 -59t32 -59t32 58zM472 0h-51q-73 0 -85 58q-34 -73 -133 -73q-38 0 -68.5 11.5t-53 33t-34.5 52t-12 68.5q0 88 45.5 137.5t135.5 49.5h96
v13q0 108 -97 108q-61 0 -107 -31l-37 48q65 59 149 59q91 0 140 -49t49 -143v-227q0 -53 49 -54h14v-61zM312 262h-86q-92 0 -92 -109q0 -42 22.5 -69t60.5 -27q95 0 95 102v103z" />
    <glyph glyph-name="ae" unicode="&#xe6;" horiz-adv-x="735" 
d="M701 247h-292v-49q0 -58 25 -93q29 -41 88 -41t94 45l58 -40q-54 -84 -154 -84q-113 0 -165 87q-16 -39 -56 -63t-94 -24q-72 0 -121 45q-49 46 -49 119q0 85 45.5 134t133.5 49h103v19q0 102 -105 102q-44 0 -87 -24l-37 51q57 51 127 51q105 0 156 -87q9 18 24 34
t33.5 28t40 19t44.5 7q98 0 148 -83q40 -67 40 -173v-29zM607 322q-2 56 -22 90q-26 42 -75 42q-23 0 -40.5 -10.5t-30.5 -28.5t-19.5 -42t-6.5 -51h194zM312 259h-84q-94 0 -94 -107q0 -43 22 -69t64 -26t67 28t25 77v97z" />
    <glyph glyph-name="ccedilla" unicode="&#xe7;" horiz-adv-x="417" 
d="M389 60q-51 -67 -127 -73v-34h8q36 2 53 -26q16 -22 16 -59q0 -98 -94 -98q-36 0 -58 24l34 36q7 -5 21 -5q29 0 29 43q0 40 -30 40q-12 0 -24 -5v85q-58 8 -98.5 45.5t-55.5 92.5q-16 57 -16 132q0 168 84 236q49 38 113 38q88 0 140 -79l-63 -37q-25 37 -74 37
q-42 0 -67 -31q-32 -40 -32 -163q0 -135 36 -169q29 -26 66 -26q52 0 80 37z" />
    <glyph glyph-name="egrave" unicode="&#xe8;" horiz-adv-x="477" 
d="M290 601h-73l-92 137h110zM437 246h-291v-36q0 -145 110 -145q65 0 95 44l59 -41q-52 -82 -156 -82q-122 0 -171 88q-38 68 -38 194q0 110 45 181q54 83 156 83q75 0 128 -53q63 -63 63 -197v-36zM336 323q0 48 -14 81q-23 50 -79 50q-50 0 -75 -46q-20 -35 -20 -85h188z
" />
    <glyph glyph-name="eacute" unicode="&#xe9;" horiz-adv-x="477" 
d="M366 738l-93 -137h-72l54 137h111zM437 246h-291v-36q0 -145 110 -145q65 0 95 44l59 -41q-52 -82 -156 -82q-122 0 -171 88q-38 68 -38 194q0 110 45 181q54 83 156 83q75 0 128 -53q63 -63 63 -197v-36zM336 323q0 48 -14 81q-23 50 -79 50q-50 0 -75 -46
q-20 -35 -20 -85h188z" />
    <glyph glyph-name="ecircumflex" unicode="&#xea;" horiz-adv-x="477" 
d="M381 626l-20 -51l-112 55l-107 -54l-19 48l127 82zM447 246h-291v-36q0 -145 110 -145q65 0 95 44l59 -41q-52 -82 -156 -82q-122 0 -171 88q-38 68 -38 194q0 110 45 181q54 83 156 83q75 0 128 -53q63 -63 63 -197v-36zM346 323q0 48 -14 81q-23 50 -79 50
q-50 0 -75 -46q-20 -35 -20 -85h188z" />
    <glyph glyph-name="edieresis" unicode="&#xeb;" horiz-adv-x="477" 
d="M401 669q0 -24 -17 -40.5t-40 -16.5q-24 0 -40.5 16.5t-16.5 40.5t16.5 40.5t40.5 16.5q23 0 40 -16.5t17 -40.5zM217 669q0 -24 -16.5 -40.5t-40.5 -16.5q-23 0 -40 16.5t-17 40.5t17 40.5t40 16.5q24 0 40.5 -16.5t16.5 -40.5zM437 246h-291v-36q0 -145 110 -145
q65 0 95 44l59 -41q-52 -82 -156 -82q-122 0 -171 88q-38 68 -38 194q0 110 45 181q54 83 156 83q75 0 128 -53q63 -63 63 -197v-36zM336 323q0 48 -14 81q-23 50 -79 50q-50 0 -75 -46q-20 -35 -20 -85h188z" />
    <glyph glyph-name="igrave" unicode="&#xec;" horiz-adv-x="220" 
d="M145 601h-73l-92 137h110zM157 517v-517h-99v517h99z" />
    <glyph glyph-name="iacute" unicode="&#xed;" horiz-adv-x="221" 
d="M241 739l-93 -137h-72l54 137h111zM162 517v-517h-99v517h99z" />
    <glyph glyph-name="icircumflex" unicode="&#xee;" horiz-adv-x="228" 
d="M243 627l-20 -51l-112 55l-107 -54l-19 48l127 82zM164 517v-517h-99v517h99z" />
    <glyph glyph-name="idieresis" unicode="&#xef;" horiz-adv-x="254" 
d="M276 671q0 -24 -17 -40.5t-40 -16.5q-24 0 -40.5 16.5t-16.5 40.5t16.5 40.5t40.5 16.5q23 0 40 -16.5t17 -40.5zM92 671q0 -24 -16.5 -40.5t-40.5 -16.5q-23 0 -40 16.5t-17 40.5t17 40.5t40 16.5q24 0 40.5 -16.5t16.5 -40.5zM176 517v-517h-99v517h99z" />
    <glyph glyph-name="eth" unicode="&#xf0;" horiz-adv-x="473" 
d="M133 223q0 -162 103 -162q102 0 102 158q0 65 -21 106q-26 48 -74 48q-110 0 -110 -150zM48 592l104 51q-48 55 -84 85l75 33q14 -12 35 -31.5t48 -47.5l92 51l52 -50l-98 -55q39 -42 69.5 -90.5t52 -100.5t33 -107t11.5 -109q0 -103 -55 -168q-57 -69 -148 -69
q-96 0 -150 74q-50 68 -50 170q0 105 55 164q52 57 133 57q38 0 70 -21q-36 94 -98 159l-89 -47z" />
    <glyph glyph-name="ntilde" unicode="&#xf1;" horiz-adv-x="517" 
d="M435 654q-32 -51 -90 -51q-43 0 -82 21q-38 21 -57 21q-30 0 -52 -27l-49 31q37 58 101 58q34 0 63 -16q52 -27 73 -27q30 0 46 25zM450 0h-97v334q0 53 -23 85q-26 35 -72 35q-55 0 -81 -47q-15 -29 -15 -73v-334h-97v516h71v-70h3q13 38 52.5 61.5t87.5 23.5
q78 0 124.5 -51.5t46.5 -148.5v-331z" />
    <glyph glyph-name="ograve" unicode="&#xf2;" horiz-adv-x="497" 
d="M289 602h-73l-92 137h110zM445 263q0 -163 -74 -232q-49 -46 -121 -46q-83 0 -133 53q-65 71 -65 231q0 119 48 187q52 76 148 76q99 0 152 -78q45 -65 45 -191zM344 261q0 109 -24 150t-70 41q-51 0 -75 -45q-22 -40 -22 -148q0 -127 33 -166q24 -28 63 -28q35 0 59 25
q36 37 36 171z" />
    <glyph glyph-name="oacute" unicode="&#xf3;" horiz-adv-x="497" 
d="M375 738l-93 -137h-72l54 137h111zM445 263q0 -163 -74 -232q-49 -46 -121 -46q-83 0 -133 53q-65 71 -65 231q0 119 48 187q52 76 148 76q99 0 152 -78q45 -65 45 -191zM344 261q0 109 -24 150t-70 41q-51 0 -75 -45q-22 -40 -22 -148q0 -127 33 -166q24 -28 63 -28
q35 0 59 25q36 37 36 171z" />
    <glyph glyph-name="ocircumflex" unicode="&#xf4;" horiz-adv-x="497" 
d="M383 630l-20 -51l-112 55l-107 -54l-19 48l127 82zM445 263q0 -163 -74 -232q-49 -46 -121 -46q-83 0 -133 53q-65 71 -65 231q0 119 48 187q52 76 148 76q99 0 152 -78q45 -65 45 -191zM344 261q0 109 -24 150t-70 41q-51 0 -75 -45q-22 -40 -22 -148q0 -127 33 -166
q24 -28 63 -28q35 0 59 25q36 37 36 171z" />
    <glyph glyph-name="otilde" unicode="&#xf5;" horiz-adv-x="497" 
d="M423 654q-32 -51 -90 -51q-43 0 -82 21q-38 21 -57 21q-30 0 -52 -27l-49 31q37 58 101 58q34 0 63 -16q52 -27 73 -27q30 0 46 25zM445 263q0 -163 -74 -232q-49 -46 -121 -46q-83 0 -133 53q-65 71 -65 231q0 119 48 187q52 76 148 76q99 0 152 -78q45 -65 45 -191z
M344 261q0 109 -24 150t-70 41q-51 0 -75 -45q-22 -40 -22 -148q0 -127 33 -166q24 -28 63 -28q35 0 59 25q36 37 36 171z" />
    <glyph glyph-name="odieresis" unicode="&#xf6;" horiz-adv-x="497" 
d="M403 668q0 -24 -17 -40.5t-40 -16.5q-24 0 -40.5 16.5t-16.5 40.5t16.5 40.5t40.5 16.5q23 0 40 -16.5t17 -40.5zM219 668q0 -24 -16.5 -40.5t-40.5 -16.5q-23 0 -40 16.5t-17 40.5t17 40.5t40 16.5q24 0 40.5 -16.5t16.5 -40.5zM445 263q0 -163 -74 -232
q-49 -46 -121 -46q-83 0 -133 53q-65 71 -65 231q0 119 48 187q52 76 148 76q99 0 152 -78q45 -65 45 -191zM344 261q0 109 -24 150t-70 41q-51 0 -75 -45q-22 -40 -22 -148q0 -127 33 -166q24 -28 63 -28q35 0 59 25q36 37 36 171z" />
    <glyph glyph-name="divide" unicode="&#xf7;" horiz-adv-x="513" 
d="M326 432q0 -28 -19.5 -47.5t-47.5 -19.5q-27 0 -46.5 19.5t-19.5 47.5q0 27 19.5 46.5t46.5 19.5q28 0 47.5 -19.5t19.5 -46.5zM468 208h-423v75h423v-75zM324 63q0 -28 -19.5 -47.5t-47.5 -19.5q-27 0 -46.5 19.5t-19.5 47.5q0 27 19.5 46.5t46.5 19.5q28 0 47.5 -19.5
t19.5 -46.5z" />
    <glyph glyph-name="oslash" unicode="&#xf8;" horiz-adv-x="502" 
d="M492 597l-89 -141q45 -66 45 -190q0 -133 -43 -200q-51 -81 -152 -81q-66 0 -115 38l-81 -128l-43 26l88 142l-2 4q-45 64 -45 205q0 99 34 161q52 99 162 99q70 0 117 -39l81 130zM321 415q-22 37 -68 37q-50 0 -73.5 -42.5t-23.5 -147.5q0 -68 6 -102zM347 264
q0 26 -1.5 48.5t-3.5 41.5l-157 -253q22 -36 66 -36q47 0 71 39q25 40 25 160z" />
    <glyph glyph-name="ugrave" unicode="&#xf9;" horiz-adv-x="536" 
d="M310 600h-73l-92 137h110zM516 0h-60q-70 0 -89 63q-33 -77 -139 -77q-81 0 -124 57q-39 51 -39 135v338h97v-355q0 -45 23.5 -73t68.5 -28q43 0 68 30t25 75v351h97v-395q0 -59 48 -60h24v-61z" />
    <glyph glyph-name="uacute" unicode="&#xfa;" horiz-adv-x="536" 
d="M359 737l-93 -137h-72l54 137h111zM516 0h-60q-70 0 -89 63q-33 -77 -139 -77q-81 0 -124 57q-39 51 -39 135v338h97v-355q0 -45 23.5 -73t68.5 -28q43 0 68 30t25 75v351h97v-395q0 -59 48 -60h24v-61z" />
    <glyph glyph-name="ucircumflex" unicode="&#xfb;" horiz-adv-x="536" 
d="M384 628l-20 -51l-112 55l-107 -54l-19 48l127 82zM516 0h-60q-70 0 -89 63q-33 -77 -139 -77q-81 0 -124 57q-39 51 -39 135v338h97v-355q0 -45 23.5 -73t68.5 -28q43 0 68 30t25 75v351h97v-395q0 -59 48 -60h24v-61z" />
    <glyph glyph-name="udieresis" unicode="&#xfc;" horiz-adv-x="536" 
d="M406 670q0 -24 -17 -40.5t-40 -16.5q-24 0 -40.5 16.5t-16.5 40.5t16.5 40.5t40.5 16.5q23 0 40 -16.5t17 -40.5zM222 670q0 -24 -16.5 -40.5t-40.5 -16.5q-23 0 -40 16.5t-17 40.5t17 40.5t40 16.5q24 0 40.5 -16.5t16.5 -40.5zM516 0h-60q-70 0 -89 63
q-33 -77 -139 -77q-81 0 -124 57q-39 51 -39 135v338h97v-355q0 -45 23.5 -73t68.5 -28q43 0 68 30t25 75v351h97v-395q0 -59 48 -60h24v-61z" />
    <glyph glyph-name="yacute" unicode="&#xfd;" horiz-adv-x="424" 
d="M307 738l-93 -137h-72l54 137h111zM408 516l-153 -579q-40 -151 -199 -151h-29v75h19q108 0 132 95l4 16l-175 544h96l115 -400h3l97 400h90z" />
    <glyph glyph-name="thorn" unicode="&#xfe;" horiz-adv-x="505" 
d="M460 265q0 -272 -168 -272q-82 0 -116 57h-3v-298h-98v1024h98v-298h3q39 58 119 58q74 0 114 -49q51 -62 51 -222zM366 253q0 79 -6 118q-14 93 -91 93q-44 0 -66 -34q-27 -41 -27 -187q0 -81 12 -117q21 -61 78 -61q66 0 86 71q14 48 14 117z" />
    <glyph glyph-name="ydieresis" unicode="&#xff;" horiz-adv-x="423" 
d="M365 668q0 -24 -17 -40.5t-40 -16.5q-24 0 -40.5 16.5t-16.5 40.5t16.5 40.5t40.5 16.5q23 0 40 -16.5t17 -40.5zM181 668q0 -24 -16.5 -40.5t-40.5 -16.5q-23 0 -40 16.5t-17 40.5t17 40.5t40 16.5q24 0 40.5 -16.5t16.5 -40.5zM416 516l-153 -579q-40 -151 -199 -151
h-29v75h19q108 0 132 95l4 16l-175 544h96l115 -400h3l97 400h90z" />
    <glyph glyph-name="dotlessi" unicode="&#x131;" horiz-adv-x="255" 
d="M177 517v-517h-99v517h99z" />
    <glyph glyph-name="Lslash" unicode="&#x141;" horiz-adv-x="484" 
d="M468 -1h-318v280l-95 -87l-45 45l140 131v370h102v-278l94 89l46 -47l-140 -129l1 -286h215v-88z" />
    <glyph glyph-name="lslash" unicode="&#x142;" horiz-adv-x="320" 
d="M320 497l-125 -113v-253q0 -71 67 -71h18v-60h-74q-52 0 -81 30t-29 79v185l-78 -68l-38 45l116 102v404h99v-314l87 77z" />
    <glyph glyph-name="OE" unicode="&#x152;" horiz-adv-x="796" 
d="M751 87l-1 -87h-431q-269 0 -269 384q0 354 263 354h433v-85h-252v-222h211v-85h-211v-259h257zM393 84v570h-70q-115 0 -150 -95q-17 -51 -17 -176q0 -124 19 -184q34 -115 144 -115h74z" />
    <glyph glyph-name="oe" unicode="&#x153;" horiz-adv-x="781" 
d="M734 246h-290l1 -56q1 -58 31 -92t82 -34q57 0 92 45l58 -41q-55 -82 -152 -82q-118 0 -163 83q-20 -38 -57.5 -61t-82.5 -23q-101 0 -153 76q-45 67 -45 207q0 102 35 169q50 95 161 95q107 0 152 -88q52 88 144 88q84 0 137 -66q50 -62 50 -188v-32zM640 323
q0 53 -20 88q-24 43 -75 43t-76 -43q-20 -35 -21 -88h192zM346 262q1 105 -21 147.5t-72 42.5q-74 0 -90 -97q-4 -21 -5.5 -45t-1.5 -52q0 -104 23 -148.5t72 -44.5t73 41q22 37 22 156z" />
    <glyph glyph-name="Scaron" unicode="&#x160;" horiz-adv-x="538" 
d="M393 873l-127 -83l-127 82l18 45l107 -54l108 54zM478 205q0 -93 -68 -156t-171 -63q-121 0 -187 107l79 43q36 -66 112 -66q27 0 49.5 10t38.5 27t25 40.5t9 50.5q0 90 -127 163q-165 94 -165 210q0 73 47 125q53 56 146 56q102 0 161 -93l-74 -39q-29 51 -86 51
q-40 0 -63 -26.5t-23 -61.5q0 -69 91 -115q206 -102 206 -263z" />
    <glyph glyph-name="scaron" unicode="&#x161;" horiz-adv-x="406" 
d="M335 657l-127 -83l-127 82l18 45l107 -54l108 54zM366 139q0 -64 -48 -109t-127 -45q-111 0 -161 92l64 32q31 -51 93 -51q37 0 58 23.5t21 60.5q0 34 -26 60q-15 15 -60 42q-111 66 -111 160q0 27 9.5 50t28 40.5t45 27.5t59.5 10q87 0 131 -71l-62 -36q-23 35 -61 35
q-26 0 -41.5 -16t-15.5 -38q0 -47 56 -76q75 -37 111 -79q37 -46 37 -112z" />
    <glyph glyph-name="Ydieresis" unicode="&#x178;" horiz-adv-x="495" 
d="M394 870q0 -24 -17 -40.5t-40 -16.5q-24 0 -40.5 16.5t-16.5 40.5t16.5 40.5t40.5 16.5q23 0 40 -16.5t17 -40.5zM210 870q0 -24 -16.5 -40.5t-40.5 -16.5q-23 0 -40 16.5t-17 40.5t17 40.5t40 16.5q24 0 40.5 -16.5t16.5 -40.5zM489 738l-195 -390v-348h-101l-1 349
l-186 389h102l135 -296h4l141 296h101z" />
    <glyph glyph-name="Zcaron" unicode="&#x17d;" horiz-adv-x="521" 
d="M395 861l-127 -83l-127 82l18 45l107 -54l108 54zM486 0h-451v83l336 567h-316v88h429v-81l-339 -569h341v-88z" />
    <glyph glyph-name="zcaron" unicode="&#x17e;" horiz-adv-x="424" 
d="M337 641l-127 -83l-127 82l18 45l107 -54l108 54zM389 0h-362v96l266 347h-256l1 73h347v-98l-260 -343h264v-75z" />
    <glyph glyph-name="florin" unicode="&#x192;" horiz-adv-x="481" 
d="M481 733h-40q-112 1 -131 -147l-14 -108h93v-73h-102l-50 -412q-24 -192 -190 -192h-32l1 61h28q78 0 88 88l54 454h-84v74h94l12 103q12 95 62 151q55 61 149 61h62v-60z" />
    <glyph glyph-name="circumflex" unicode="&#x2c6;" horiz-adv-x="348" 
d="M305 635l-20 -51l-112 55l-107 -54l-19 48l127 82z" />
    <glyph glyph-name="caron" unicode="&#x2c7;" horiz-adv-x="343" 
d="M298 697l-127 -83l-127 82l18 45l107 -54l108 54z" />
    <glyph glyph-name="breve" unicode="&#x2d8;" horiz-adv-x="357" 
d="M307 660l-131 -80l-127 82l20 50l107 -54l112 55z" />
    <glyph glyph-name="dotaccent" unicode="&#x2d9;" horiz-adv-x="462" 
d="M306 685q0 -31 -21.5 -52.5t-53.5 -21.5q-30 0 -51.5 21.5t-21.5 52.5q0 30 21.5 51.5t51.5 21.5q32 0 53.5 -21.5t21.5 -51.5z" />
    <glyph glyph-name="ring" unicode="&#x2da;" horiz-adv-x="314" 
d="M156 562q-38 0 -61 29q-20 26 -20 68q0 43 21.5 71t61.5 28q81 0 81 -100q0 -42 -22.5 -69t-60.5 -27zM189 659q0 60 -32 60t-32 -59t32 -59t32 58z" />
    <glyph glyph-name="ogonek" unicode="&#x2db;" horiz-adv-x="500" 
d="M329 -148h-101l-51 147h82z" />
    <glyph glyph-name="tilde" unicode="&#x2dc;" horiz-adv-x="397" 
d="M361 643q-32 -51 -90 -51q-43 0 -82 21q-38 21 -57 21q-30 0 -52 -27l-49 31q37 58 101 58q34 0 63 -16q52 -27 73 -27q30 0 46 25z" />
    <glyph glyph-name="hungarumlaut" unicode="&#x2dd;" horiz-adv-x="348" 
d="M174 755l-88 -172h-72l49 172h111zM334 755l-88 -172h-72l49 172h111z" />
    <glyph glyph-name="Delta" unicode="&#x394;" horiz-adv-x="652" 
d="M644 -1h-636l319 765zM471 94l-150 399l-153 -399h303z" />
    <glyph glyph-name="Omega" unicode="&#x3a9;" horiz-adv-x="768" 
d="M330 0h-295v163h16q5 -19 10 -31t13 -18.5t19.5 -8.5t29.5 -2h148v14q-79 23 -122 57q-22 18 -39.5 42t-30 52t-19 59t-6.5 61q0 74 39 143q40 69 115.5 106.5t175.5 37.5q101 0 175 -37q77 -38 115 -107q40 -68 40 -143q0 -60 -26 -120q-25 -59 -69 -93.5t-121 -57.5
v-14h148q18 0 29.5 2t19 8.5t12.5 18.5t10 31h17v-163h-296l16 142q60 23 90 64q51 70 51 183q0 126 -56 189t-152 63q-100 0 -150 -56q-63 -71 -63 -195q0 -72 19.5 -126t55.5 -85q22 -22 66 -37z" />
    <glyph glyph-name="pi" unicode="&#x3c0;" horiz-adv-x="505" 
d="M485 447v-71h-113l-10 -148q-3 -39 -3 -67q0 -68 16 -83t38 -15q47 0 56 59h17q-17 -135 -108 -135q-43 0 -69 26t-26 78q0 17 2.5 53t7.5 91l13 141h-103q-5 -90 -11.5 -154t-13.5 -106q-13 -81 -32 -106q-17 -23 -47 -23q-22 0 -37.5 13t-15.5 34t26 56q38 51 58 108
q10 28 17 72.5t12 105.5h-34q-40 0 -61 -18t-40 -51h-18q15 52 37 86q22 33 46 44q23 10 84 10h312z" />
    <glyph glyph-name="endash" unicode="&#x2013;" horiz-adv-x="482" 
d="M482 246h-482v77h482v-77z" />
    <glyph glyph-name="emdash" unicode="&#x2014;" horiz-adv-x="961" 
d="M961 246h-961v77h961v-77z" />
    <glyph glyph-name="quoteleft" unicode="&#x2018;" horiz-adv-x="236" 
d="M71 637q21 52 65 116h60q-36 -63 -48 -108q46 -15 46 -63q0 -28 -19.5 -47.5t-47.5 -19.5q-29 0 -48 20t-19 46t11 56z" />
    <glyph glyph-name="quoteright" unicode="&#x2019;" horiz-adv-x="236" 
d="M164 631q-10 -26 -26 -55t-38 -61h-60q34 63 48 108q-46 16 -46 63q0 29 19 48t48 19q28 0 47.5 -19.5t19.5 -46.5q0 -28 -12 -56z" />
    <glyph glyph-name="quotesinglbase" unicode="&#x201a;" horiz-adv-x="236" 
d="M164 -2q-10 -26 -26 -55t-38 -61h-60q34 63 48 108q-46 15 -46 63q0 28 19 47.5t48 19.5q28 0 47.5 -20t19.5 -46q0 -28 -12 -56z" />
    <glyph glyph-name="quotedblleft" unicode="&#x201c;" horiz-adv-x="409" 
d="M71 637q21 52 65 116h60q-36 -63 -48 -108q46 -15 46 -63q0 -28 -19.5 -47.5t-47.5 -19.5q-29 0 -48 20t-19 46t11 56zM244 637q21 52 65 116h60q-36 -63 -48 -108q46 -15 46 -63q0 -28 -19.5 -47.5t-47.5 -19.5q-29 0 -48 20t-19 46t11 56z" />
    <glyph glyph-name="quotedblright" unicode="&#x201d;" horiz-adv-x="409" 
d="M337 631q-10 -26 -26 -55t-38 -61h-60q34 63 48 108q-46 16 -46 63q0 29 19 48t48 19q28 0 47.5 -19.5t19.5 -46.5q0 -28 -12 -56zM164 631q-10 -26 -26 -55t-38 -61h-60q34 63 48 108q-46 16 -46 63q0 29 19 48t48 19q28 0 47.5 -19.5t19.5 -46.5q0 -28 -12 -56z" />
    <glyph glyph-name="quotedblbase" unicode="&#x201e;" horiz-adv-x="408" 
d="M164 -2q-10 -26 -26 -55t-38 -61h-60q34 63 48 108q-46 15 -46 63q0 28 19 47.5t48 19.5q28 0 47.5 -20t19.5 -46q0 -28 -12 -56zM337 -2q-21 -52 -65 -116h-60q36 63 48 108q-46 15 -46 63q0 28 19.5 47.5t47.5 19.5q29 0 48 -20t19 -46t-11 -56z" />
    <glyph glyph-name="dagger" unicode="&#x2020;" horiz-adv-x="570" 
d="M525 431h-190l-1 -431h-100l1 431h-190v86h190v221h100v-221h190v-86z" />
    <glyph glyph-name="daggerdbl" unicode="&#x2021;" horiz-adv-x="584" 
d="M519 -4h-179v-225h-98v225h-177v88h177v337h-177v88h177v225h98v-225h179v-88h-179v-337h179v-88z" />
    <glyph glyph-name="bullet" unicode="&#x2022;" horiz-adv-x="446" 
d="M371 352q0 -64 -44 -110q-44 -45 -104 -45q-62 0 -105 45q-43 44 -43 110q0 64 43 110t105 46q61 0 104 -46q44 -47 44 -110z" />
    <glyph glyph-name="ellipsis" unicode="&#x2026;" horiz-adv-x="1012" 
d="M896 55q0 -27 -19.5 -46.5t-46.5 -19.5q-28 0 -47.5 19.5t-19.5 46.5q0 28 19.5 47t47.5 19q27 0 46.5 -19t19.5 -47zM567 57q0 -27 -19.5 -46.5t-46.5 -19.5t-46.5 19.5t-19.5 46.5t19.5 46.5t46.5 19.5t46.5 -19.5t19.5 -46.5zM248 57q0 -27 -19 -46.5t-47 -19.5
q-27 0 -46.5 19.5t-19.5 46.5t19.5 46.5t46.5 19.5q28 0 47 -19.5t19 -46.5z" />
    <glyph glyph-name="perthousand" unicode="&#x2030;" horiz-adv-x="1186" 
d="M635 738l-376 -738h-70l377 738h69zM190 314q-89 0 -127 83q-22 48 -22 121q0 90 35 145q39 60 115 60q101 0 136 -96q16 -45 16 -109q0 -94 -36 -146q-39 -58 -117 -58zM193 658q-37 0 -53 -34q-15 -30 -15 -106q0 -80 17.5 -109.5t48.5 -29.5q35 0 51 28q17 29 17 111
q0 77 -15.5 108.5t-50.5 31.5zM618 -9q-89 0 -127 83q-22 48 -22 121q0 90 35 145q39 60 115 60q101 0 136 -96q16 -45 16 -109q0 -94 -36 -146q-39 -58 -117 -58zM621 335q-37 0 -53 -34q-15 -30 -15 -106q0 -80 17.5 -109.5t48.5 -29.5q35 0 51 28q17 29 17 111
q0 77 -15.5 108.5t-50.5 31.5zM970 -9q-89 0 -127 83q-22 48 -22 121q0 90 35 145q39 60 115 60q101 0 136 -96q16 -45 16 -109q0 -94 -36 -146q-39 -58 -117 -58zM973 335q-37 0 -53 -34q-15 -30 -15 -106q0 -80 17.5 -109.5t48.5 -29.5q35 0 51 28q17 29 17 111
q0 77 -15.5 108.5t-50.5 31.5z" />
    <glyph glyph-name="guilsinglleft" unicode="&#x2039;" horiz-adv-x="287" 
d="M242 111h-73l-124 163l128 161h68l-85 -162z" />
    <glyph glyph-name="guilsinglright" unicode="&#x203a;" horiz-adv-x="287" 
d="M242 274l-125 -163h-72l85 162l-85 162h68z" />
    <glyph glyph-name="Euro" unicode="&#x20ac;" horiz-adv-x="583" 
d="M569 86q-23 -45 -73 -72.5t-113 -27.5q-195 0 -245 182q-7 26 -11 55.5t-5 61.5h-115l19 62h95v71h-113l19 62h97q11 129 71 191q73 75 185 75q77 0 133 -49l-23 -68q-39 41 -108 41q-67 0 -106.5 -46.5t-44.5 -143.5h209l-19 -62h-192v-71h174l-19 -62h-153
q0 -55 15 -110q30 -113 136 -113q82 0 118 53z" />
    <glyph glyph-name="trademark" unicode="&#x2122;" horiz-adv-x="625" 
d="M570 387h-70v228l-67 -64h-2l-65 64v-228h-69v351h53l84 -100l82 100h54v-351zM243 673h-72v-286h-74v285h-72v66h218v-65z" />
    <glyph glyph-name="partialdiff" unicode="&#x2202;" horiz-adv-x="494" 
d="M454 350q2 28 3.5 50.5t1.5 40.5q0 88 -46 136t-122 48q-52 0 -86.5 -19.5t-60.5 -58.5h-23q38 78 81.5 112.5t104.5 34.5q33 -1 65.5 -13.5t58 -41.5t41 -75.5t14.5 -114.5q0 -174 -75 -310q-85 -154 -214 -154q-76 0 -121 44t-45 119q0 44 13.5 85.5t35 76.5t50 62
t58.5 42q56 29 113 29q40 0 72.5 -15t53.5 -37q13 -13 27 -41zM445 307q-19 54 -56.5 82t-83.5 28q-44 0 -87 -31q-42 -30 -73 -106q-31 -75 -31 -152q0 -55 26.5 -85t68.5 -30q60 0 123 63q78 80 113 231z" />
    <glyph glyph-name="product" unicode="&#x220f;" horiz-adv-x="823" 
d="M605 655h-388v-776q0 -42 18 -59t61 -17h18v-18h-292v18h18q43 0 61 17t18 59v721q0 40 -18 57.5t-61 17.5h-18v18h779v-18h-17q-43 0 -61 -17.5t-18 -57.5v-721q0 -42 18 -59t61 -17h17v-18h-292v18h17q43 0 61 17t18 59v776z" />
    <glyph glyph-name="summation" unicode="&#x2211;" horiz-adv-x="713" 
d="M662 -215h-641v18l327 439l-327 433v18h624l13 -164h-19q-8 67 -38 96t-84 29h-361l274 -370l-307 -413h399q36 0 75 13q28 9 46.5 32.5t30.5 74.5l19 -4z" />
    <glyph glyph-name="minus" unicode="&#x2212;" horiz-adv-x="521" 
d="M471 245h-421v78h421v-78z" />
    <glyph glyph-name="fraction" unicode="&#x2215;" horiz-adv-x="445" 
d="M131 -76h-75l312 887h75z" />
    <glyph glyph-name="radical" unicode="&#x221a;" horiz-adv-x="549" 
d="M512 913h36l-152 -951l-242 498l-97 -44l-16 31l146 74l198 -402z" />
    <glyph glyph-name="infinity" unicode="&#x221e;" horiz-adv-x="713" 
d="M319 326q33 76 72 105q40 30 109 30q77 0 133 -57q54 -56 54 -147q0 -88 -53 -147q-52 -58 -118 -58q-48 0 -90 36q-27 23 -74 104q-32 -61 -69 -87.5t-90 -26.5q-70 0 -118 50q-49 50 -49 130t45 130q45 49 105 49q43 0 74 -22q31 -21 69 -89zM366 227q18 -39 35.5 -64
t36 -39.5t38.5 -20t42 -5.5q30 0 56 11.5t44.5 32t29.5 50t11 65.5q0 73 -43 119q-42 47 -95 47q-34 0 -59 -17t-45 -55q-13 -24 -51 -124zM305 288q-24 54 -55 79.5t-76 25.5q-26 0 -48 -9.5t-38 -27t-25.5 -42.5t-9.5 -55q0 -66 34 -104q34 -39 78 -39q46 0 82 42
q24 29 58 130z" />
    <glyph glyph-name="integral" unicode="&#x222b;" horiz-adv-x="274" 
d="M106 721q5 76 25 124q13 33 36 49t45 16q25 0 43 -16.5t18 -36.5q0 -23 -12.5 -36.5t-31.5 -13.5q-18 0 -38 17q-10 10 -19 10q-8 0 -14 -7t-6 -24q0 -10 1.5 -27.5t3.5 -43.5q18 -201 18 -324q0 -17 -2 -88.5t-6 -199.5q-5 -144 -44 -194q-26 -33 -65 -33
q-26 0 -42 16.5t-16 42.5q0 22 12.5 35t31.5 13t33 -15q15 -16 25 -16q19 0 19 30q0 10 -1.5 24.5t-3.5 33.5q-8 70 -12 165q-6 121 -6 215z" />
    <glyph glyph-name="approxequal" unicode="&#x2248;" horiz-adv-x="406" 
d="M351 348q-39 -47 -82 -51q-36 -4 -75 13q-27 13 -48 13q-28 0 -56 -28l-45 35q41 48 87 52q26 2 50 -6.5t47 -17.5q16 -5 30 -3q24 3 45 24zM361 224q-37 -44 -81 -49q-36 -4 -75 13q-30 14 -48 14q-27 0 -57 -30l-43 37q39 46 87 51q30 2 67 -14q39 -15 59 -13
q23 3 46 24z" />
    <glyph glyph-name="notequal" unicode="&#x2260;" horiz-adv-x="549" 
d="M12 399h294l103 261h39l-101 -261h190v-45h-208l-70 -181h278v-46h-296l-103 -258h-39l102 258h-189v46h207l71 181h-278v45z" />
    <glyph glyph-name="lessequal" unicode="&#x2264;" horiz-adv-x="549" 
d="M536 120l-524 223v40l524 222v-50l-464 -192l464 -193v-50zM12 -34h525v-45h-525v45z" />
    <glyph glyph-name="greaterequal" unicode="&#x2265;" horiz-adv-x="549" 
d="M12 605l524 -223v-40l-524 -222v50l464 192l-464 193v50zM12 -34h525v-45h-525v45z" />
    <glyph glyph-name="lozenge" unicode="&#x25ca;" horiz-adv-x="494" 
d="M268 694l204 -348l-204 -346h-54l-191 346l191 348h54zM242 647l-166 -301l166 -300l175 300z" />
    <glyph glyph-name="fi" unicode="&#xfb01;" horiz-adv-x="603" 
d="M502 0h-99v443h-207l1 -443l-99 -1v443h-73v76h72v59q0 144 134 144h102v-68h-58q-79 0 -79 -79v-56l305 1zM518 665q0 -28 -19.5 -47t-46.5 -19t-46.5 19t-19.5 47q0 27 19.5 46.5t46.5 19.5t46.5 -19.5t19.5 -46.5z" />
    <glyph glyph-name="fl" unicode="&#xfb02;" horiz-adv-x="623" 
d="M605 0l-77 -1q-52 -1 -81 29.5t-29 79.5v543h-129q-93 0 -93 -98v-35h120v-63h-120l1 -455l-99 -1v455h-73v64h72v43q0 162 184 162h236v-593q0 -70 71 -70h17v-60z" />
    <glyph glyph-name="hyphenminus" horiz-adv-x="419" 
d="M368 245h-318v77h318v-77z" />
    </font>
</defs>
</svg>
