<?xml version="1.0" encoding="utf-8"?>
<!-- Generator: Adobe Illustrator 21.1.0, SVG Export Plug-In . SVG Version: 6.00 Build 0)  -->
<svg version="1.1" id="Layer_1" xmlns="http://www.w3.org/2000/svg" xmlns:xlink="http://www.w3.org/1999/xlink" x="0px" y="0px"
	 viewBox="0 0 493 214.2" style="enable-background:new 0 0 493 214.2;" xml:space="preserve">
<style type="text/css">
	.st0{opacity:0.3;}
	.st1{clip-path:url(#SVGID_2_);}
	.st2{fill:#0033A0;}
</style>
<title>Asset 2</title>
<g>
	<g id="Layer_2">
		<g id="Capa_1">
			<g class="st0">
				<g>
					<defs>
						<rect id="SVGID_1_" width="493" height="213"/>
					</defs>
					<clipPath id="SVGID_2_">
						<use xlink:href="#SVGID_1_"  style="overflow:visible;"/>
					</clipPath>
					<g class="st1">
						<path class="st2" d="M122.1,32.5c0.8,0.5,1.9,0.4,2.6-0.3L157,0h-5.8l-27.9,27.9L95.3,0h-5.8l32.3,32.3
							C121.9,32.4,122,32.5,122.1,32.5z"/>
						<path class="st2" d="M368.6,32.5c0.8,0.5,1.9,0.4,2.6-0.3L403.5,0h-5.8l-27.9,27.9L341.8,0H336l32.3,32.3
							C368.4,32.4,368.5,32.5,368.6,32.5z"/>
						<path class="st2" d="M245.4,32.5c0.8,0.5,1.9,0.4,2.6-0.3L280.2,0h-5.8l-27.9,27.9L218.6,0h-5.8L245,32.3
							C245.1,32.4,245.2,32.5,245.4,32.5z"/>
						<path class="st2" d="M493,32.9v-5L465.1,0h-5.8l32.3,32.3C491.9,32.7,492.5,32.9,493,32.9z"/>
						<path class="st2" d="M0,32.9c0.5,0,1.1-0.2,1.5-0.6L33.7,0h-5.8L0,27.9V32.9z"/>
						<path class="st2" d="M0,12.3c0.5,0,1.1-0.2,1.5-0.6L13.2,0H7.4L0,7.4V12.3z"/>
						<path class="st2" d="M368.6,12c0.8,0.5,1.9,0.4,2.6-0.3L382.9,0h-5.8l-7.4,7.4L362.4,0h-5.8l11.7,11.7
							C368.4,11.8,368.5,11.9,368.6,12z"/>
						<path class="st2" d="M493,12.3v-5L485.6,0h-5.8l11.7,11.7C491.9,12.1,492.5,12.3,493,12.3z"/>
						<path class="st2" d="M245.4,12c0.8,0.5,1.9,0.4,2.6-0.3L259.7,0h-5.8l-7.4,7.4L239.1,0h-5.8L245,11.7
							C245.1,11.8,245.2,11.9,245.4,12z"/>
						<path class="st2" d="M122.1,12c0.8,0.5,1.9,0.4,2.6-0.3L136.4,0h-5.8l-7.4,7.4L115.9,0h-5.8l11.7,11.7
							C121.9,11.8,122,11.9,122.1,12z"/>
						<path class="st2" d="M0,53.4c0.5,0,1.1-0.2,1.5-0.6L54.3,0h-5.8L0,48.5V53.4z"/>
						<path class="st2" d="M245.4,53.1c0.8,0.5,1.9,0.4,2.6-0.3L300.8,0H295l-48.5,48.5L198.1,0h-5.8L245,52.8
							C245.1,52.9,245.2,53,245.4,53.1z"/>
						<path class="st2" d="M368.6,53.1c0.8,0.5,1.9,0.4,2.6-0.3L424,0h-5.8l-48.5,48.5L321.3,0h-5.8l52.8,52.8
							C368.4,52.9,368.5,53,368.6,53.1z"/>
						<path class="st2" d="M122.1,53.1c0.8,0.5,1.9,0.4,2.6-0.3L177.5,0h-5.8l-48.4,48.5L74.8,0H69l52.8,52.8
							C121.9,52.9,122,53,122.1,53.1z"/>
						<path class="st2" d="M493,53.4v-5L444.5,0h-5.8l52.8,52.8C491.9,53.2,492.5,53.4,493,53.4z"/>
						<path class="st2" d="M429.9,8.8L369.8,69L309.6,8.8c-0.8-0.8-2.1-0.8-2.9,0c0,0,0,0,0,0L246.5,69L186.3,8.8
							c-0.8-0.8-2.1-0.8-2.9,0c0,0,0,0,0,0L123.2,69L63.1,8.8C62.3,8,61,8,60.2,8.8c0,0,0,0,0,0L0,69v5c0.5,0,1.1-0.2,1.5-0.6
							l60.2-60.2l60.2,60.2c0.8,0.8,2.1,0.8,2.9,0c0,0,0,0,0,0l60.2-60.2L245,73.3c0.8,0.8,2.1,0.8,2.9,0c0,0,0,0,0,0l60.2-60.2
							l60.2,60.2c0.8,0.8,2.1,0.8,2.9,0c0,0,0,0,0,0l60.2-60.2l60.2,60.2c0.4,0.4,0.9,0.6,1.5,0.7v-5L432.8,8.8
							C432,8,430.7,8,429.9,8.8C429.9,8.8,429.9,8.8,429.9,8.8z"/>
						<path class="st2" d="M429.9,29.4l-60.2,60.2l-60.2-60.2c-0.8-0.8-2.1-0.8-2.9,0c0,0,0,0,0,0l-60.2,60.2l-60.2-60.2
							c-0.8-0.8-2.1-0.8-2.9,0c0,0,0,0,0,0l-60.2,60.2L63.1,29.4c-0.8-0.8-2.1-0.8-2.9,0c0,0,0,0,0,0L0,89.5v5
							c0.5,0,1.1-0.2,1.5-0.6l60.2-60.2l60.2,60.2c0.8,0.8,2.1,0.8,2.9,0c0,0,0,0,0,0l60.2-60.2L245,93.9c0.8,0.8,2.1,0.8,2.9,0
							c0,0,0,0,0,0l60.2-60.2l60.2,60.2c0.8,0.8,2.1,0.8,2.9,0c0,0,0,0,0,0l60.2-60.2l60.2,60.2c0.4,0.4,0.9,0.6,1.5,0.6v-5
							l-60.2-60.1C432,28.6,430.7,28.6,429.9,29.4C429.9,29.4,429.9,29.4,429.9,29.4z"/>
						<path class="st2" d="M429.9,49.9l-60.2,60.2l-60.2-60.2c-0.8-0.8-2.1-0.8-2.9,0c0,0,0,0,0,0l-60.2,60.2l-60.2-60.2
							c-0.8-0.8-2.1-0.8-2.9,0c0,0,0,0,0,0l-60.2,60.2L63.1,49.9c-0.8-0.8-2.1-0.8-2.9,0c0,0,0,0,0,0L0,110.1v5
							c0.5,0,1.1-0.2,1.5-0.6l60.2-60.2l60.2,60.2c0.8,0.8,2.1,0.8,2.9,0c0,0,0,0,0,0l60.2-60.2l60.1,60.2c0.8,0.8,2.1,0.8,2.9,0
							c0,0,0,0,0,0l60.2-60.2l60.2,60.2c0.8,0.8,2.1,0.8,2.9,0c0,0,0,0,0,0l60.2-60.2l60.2,60.2c0.4,0.4,0.9,0.6,1.5,0.6v-5
							l-60.1-60.1C432,49.1,430.7,49.1,429.9,49.9C429.9,49.9,429.9,49.9,429.9,49.9z"/>
						<path class="st2" d="M429.9,70.4l-60.2,60.2l-60.2-60.2c-0.8-0.8-2.1-0.8-2.9,0c0,0,0,0,0,0l-60.2,60.2l-60.2-60.2
							c-0.8-0.8-2.1-0.8-2.9,0c0,0,0,0,0,0l-60.2,60.2L63.1,70.4c-0.8-0.8-2.1-0.8-2.9,0c0,0,0,0,0,0L0,130.6v5
							c0.5,0,1.1-0.2,1.5-0.6l60.2-60.2l60.2,60.2c0.8,0.8,2.1,0.8,2.9,0c0,0,0,0,0,0l60.2-60.2L245,135c0.8,0.8,2.1,0.8,2.9,0
							c0,0,0,0,0,0l60.2-60.2l60.2,60.2c0.8,0.8,2.1,0.8,2.9,0c0,0,0,0,0,0l60.2-60.2l60.2,60.2c0.4,0.4,0.9,0.6,1.5,0.6v-5
							l-60.2-60.2C432,69.6,430.7,69.6,429.9,70.4C429.9,70.4,429.9,70.4,429.9,70.4z"/>
						<path class="st2" d="M429.9,91l-60.2,60.2L309.6,91c-0.8-0.8-2.1-0.8-2.9,0c0,0,0,0,0,0l-60.2,60.2L186.3,91
							c-0.8-0.8-2.1-0.8-2.9,0c0,0,0,0,0,0l-60.2,60.2L63.1,91c-0.8-0.8-2.1-0.8-2.9,0c0,0,0,0,0,0L0,151.2v5c0.5,0,1.1-0.2,1.5-0.6
							l60.2-60.2l60.2,60.2c0.8,0.8,2.1,0.8,2.9,0c0,0,0,0,0,0l60.2-60.2l60.1,60.2c0.8,0.8,2.1,0.8,2.9,0c0,0,0,0,0,0l60.2-60.2
							l60.2,60.2c0.8,0.8,2.1,0.8,2.9,0c0,0,0,0,0,0l60.2-60.2l60.2,60.2c0.4,0.4,0.9,0.6,1.5,0.6v-5L432.8,91
							C432,90.2,430.7,90.2,429.9,91C429.9,91,429.9,91,429.9,91z"/>
						<path class="st2" d="M429.9,111.5l-60.2,60.2l-60.2-60.2c-0.8-0.8-2.1-0.8-2.9,0c0,0,0,0,0,0l-60.2,60.2l-60.2-60.2
							c-0.8-0.8-2.1-0.8-2.9,0c0,0,0,0,0,0l-60.2,60.2l-60.2-60.2c-0.8-0.8-2.1-0.8-2.9,0c0,0,0,0,0,0L0,171.7v5
							c0.5,0,1.1-0.2,1.5-0.6l60.2-60.2l60.2,60.2c0.8,0.8,2.1,0.8,2.9,0c0,0,0,0,0,0l60.2-60.2l60.1,60.1c0.8,0.8,2.1,0.8,2.9,0
							c0,0,0,0,0,0l60.2-60.2l60.2,60.2c0.8,0.8,2.1,0.8,2.9,0c0,0,0,0,0,0l60.2-60.2l60.2,60.2c0.4,0.4,0.9,0.6,1.5,0.6v-5
							l-60.2-60.2C432,110.7,430.7,110.7,429.9,111.5z"/>
						<path class="st2" d="M429.9,132.1l-60.2,60.2l-60.2-60.2c-0.8-0.8-2.1-0.8-2.9,0c0,0,0,0,0,0l-60.2,60.2l-60.2-60.2
							c-0.8-0.8-2.1-0.8-2.9,0c0,0,0,0,0,0l-60.2,60.2l-60.2-60.2c-0.8-0.8-2.1-0.8-2.9,0c0,0,0,0,0,0L0,192.2v5
							c0.5,0,1.1-0.2,1.5-0.6l60.2-60.2l60.2,60.1c0.8,0.8,2.1,0.8,2.9,0c0,0,0,0,0,0l60.2-60.2l60.1,60.2c0.8,0.8,2.1,0.8,2.9,0
							c0,0,0,0,0,0l60.2-60.2l60.2,60.2c0.8,0.8,2.1,0.8,2.9,0c0,0,0,0,0,0l60.2-60.2l60.2,60.2c0.4,0.4,0.9,0.6,1.5,0.6v-5
							L432.8,132C432,131.2,430.7,131.3,429.9,132.1C429.9,132.1,429.9,132.1,429.9,132.1z"/>
						<path class="st2" d="M429.9,152.6l-60.2,60.2l-60.2-60.2c-0.8-0.8-2.1-0.8-2.9,0c0,0,0,0,0,0l-60.2,60.2l-60.2-60.2
							c-0.8-0.8-2.1-0.8-2.9,0c0,0,0,0,0,0l-60.2,60.2l-60.2-60.2c-0.8-0.8-2.1-0.8-2.9,0c0,0,0,0,0,0L0,212.8v5
							c0.5,0,1.1-0.2,1.5-0.6L61.6,157l60.2,60.2c0.8,0.8,2.1,0.8,2.9,0c0,0,0,0,0,0l60.2-60.2l60.1,60.1c0.8,0.8,2.1,0.8,2.9,0
							c0,0,0,0,0,0l60.2-60.1l60.2,60.2c0.8,0.8,2.1,0.8,2.9,0c0,0,0,0,0,0l60.2-60.2l60.2,60.2c0.4,0.4,0.9,0.6,1.5,0.6v-5
							l-60.2-60.2C432,151.8,430.7,151.8,429.9,152.6C429.9,152.6,429.9,152.6,429.9,152.6z"/>
						<path class="st2" d="M429.9,173.1l-60.2,60.2l-60.2-60.2c-0.8-0.8-2.1-0.8-2.9,0c0,0,0,0,0,0l-60.2,60.2l-60.2-60.2
							c-0.8-0.8-2.1-0.8-2.9,0c0,0,0,0,0,0l-60.2,60.2l-60.2-60.2c-0.8-0.8-2.1-0.8-2.9,0c0,0,0,0,0,0L0,233.3v5
							c0.5,0,1.1-0.2,1.5-0.6l60.2-60.2l60.2,60.2c0.8,0.8,2.1,0.8,2.9,0c0,0,0,0,0,0l60.2-60.2l60.1,60.1c0.8,0.8,2.1,0.8,2.9,0
							c0,0,0,0,0,0l60.2-60.2l60.2,60.2c0.8,0.8,2.1,0.8,2.9,0c0,0,0,0,0,0l60.2-60.2l60.2,60.2c0.4,0.4,0.9,0.6,1.5,0.6v-5
							l-60.2-60.2C432,172.3,430.7,172.4,429.9,173.1z"/>
						<path class="st2" d="M429.9,193.7l-60.2,60.2l-60.2-60.2c-0.8-0.8-2.1-0.8-2.9,0c0,0,0,0,0,0l-60.2,60.2l-60.2-60.2
							c-0.8-0.8-2.1-0.8-2.9,0c0,0,0,0,0,0l-60.2,60.2l-60.2-60.2c-0.8-0.8-2.1-0.8-2.9,0c0,0,0,0,0,0L0,253.9v5
							c0.5,0,1.1-0.2,1.5-0.6l60.2-60.2l60.2,60.2c0.8,0.8,2.1,0.8,2.9,0c0,0,0,0,0,0l60.2-60.2l60.1,60.1c0.8,0.8,2.1,0.8,2.9,0
							c0,0,0,0,0,0l60.2-60.2l60.2,60.2c0.8,0.8,2.1,0.8,2.9,0c0,0,0,0,0,0l60.2-60.2l60.2,60.2c0.4,0.4,0.9,0.6,1.5,0.6v-5
							l-60.2-60.2C432,192.9,430.7,192.9,429.9,193.7z"/>
						<path class="st2" d="M429.9,214.2l-60.2,60.2l-60.2-60.2c-0.8-0.8-2.1-0.8-2.9,0c0,0,0,0,0,0l-60.2,60.2l-60.2-60.2
							c-0.8-0.8-2.1-0.8-2.9,0c0,0,0,0,0,0l-60.2,60.2l-60.2-60.2c-0.8-0.8-2.1-0.8-2.9,0c0,0,0,0,0,0L0,274.4v5
							c0.5,0,1.1-0.2,1.5-0.6l60.2-60.2l60.2,60.2c0.8,0.8,2.1,0.8,2.9,0c0,0,0,0,0,0l60.2-60.2l60.1,60.1c0.8,0.8,2.1,0.8,2.9,0
							c0,0,0,0,0,0l60.2-60.2l60.2,60.2c0.8,0.8,2.1,0.8,2.9,0c0,0,0,0,0,0l60.2-60.2l60.2,60.2c0.4,0.4,0.9,0.6,1.5,0.6v-5
							l-60.2-60.2C432,213.4,430.7,213.4,429.9,214.2z"/>
						<path class="st2" d="M429.9,234.8L369.8,295l-60.2-60.2c-0.8-0.8-2.1-0.8-2.9,0c0,0,0,0,0,0L246.5,295l-60.2-60.2
							c-0.8-0.8-2.1-0.8-2.9,0c0,0,0,0,0,0L123.2,295l-60.2-60.2c-0.8-0.8-2.1-0.8-2.9,0c0,0,0,0,0,0L0,295v5c0.5,0,1.1-0.2,1.5-0.6
							l60.2-60.2l60.2,60.2c0.8,0.8,2.1,0.8,2.9,0c0,0,0,0,0,0l60.2-60.2l60.1,60.1c0.8,0.8,2.1,0.8,2.9,0c0,0,0,0,0,0l60.2-60.2
							l60.2,60.2c0.8,0.8,2.1,0.8,2.9,0c0,0,0,0,0,0l60.2-60.2l60.2,60.2c0.4,0.4,0.9,0.6,1.5,0.6v-5l-60.2-60.2
							C432,234,430.7,234,429.9,234.8z"/>
						<path class="st2" d="M429.9,255.3l-60.2,60.2l-60.2-60.2c-0.8-0.8-2.1-0.8-2.9,0c0,0,0,0,0,0l-60.2,60.2l-60.2-60.2
							c-0.8-0.8-2.1-0.8-2.9,0c0,0,0,0,0,0l-60.2,60.2l-60.2-60.2c-0.8-0.8-2.1-0.8-2.9,0c0,0,0,0,0,0L0,315.5v5
							c0.5,0,1.1-0.2,1.5-0.6l60.2-60.2l60.2,60.2c0.8,0.8,2.1,0.8,2.9,0c0,0,0,0,0,0l60.2-60.2l60.1,60.1c0.8,0.8,2.1,0.8,2.9,0
							c0,0,0,0,0,0l60.2-60.2l60.2,60.2c0.8,0.8,2.1,0.8,2.9,0c0,0,0,0,0,0l60.2-60.2l60.2,60.2c0.4,0.4,0.9,0.6,1.5,0.6v-5
							l-60.2-60.2C432,254.5,430.7,254.5,429.9,255.3z"/>
						<path class="st2" d="M429.9,275.9L369.8,336l-60.2-60.2c-0.8-0.8-2.1-0.8-2.9,0c0,0,0,0,0,0L246.5,336l-60.2-60.2
							c-0.8-0.8-2.1-0.8-2.9,0c0,0,0,0,0,0L123.2,336l-60.2-60.1c-0.8-0.8-2.1-0.8-2.9,0c0,0,0,0,0,0L0,336v5c0.5,0,1.1-0.2,1.5-0.6
							l60.2-60.2l60.2,60.2c0.8,0.8,2.1,0.8,2.9,0c0,0,0,0,0,0l60.2-60.2l60.1,60.2c0.8,0.8,2.1,0.8,2.9,0c0,0,0,0,0,0l60.2-60.2
							l60.2,60.2c0.8,0.8,2.1,0.8,2.9,0c0,0,0,0,0,0l60.2-60.2l60.2,60.2c0.4,0.4,0.9,0.6,1.5,0.6v-5l-60.2-60.2
							C432,275.1,430.7,275.1,429.9,275.9z"/>
						<path class="st2" d="M429.9,296.4l-60.2,60.2l-60.2-60.2c-0.8-0.8-2.1-0.8-2.9,0c0,0,0,0,0,0l-60.2,60.2l-60.2-60.2
							c-0.8-0.8-2.1-0.8-2.9,0c0,0,0,0,0,0l-60.2,60.2l-60.2-60.2c-0.8-0.8-2.1-0.8-2.9,0c0,0,0,0,0,0L0,356.6v5
							c0.5,0,1.1-0.2,1.5-0.6l60.2-60.2l60.2,60.2c0.8,0.8,2.1,0.8,2.9,0c0,0,0,0,0,0l60.2-60.2l60.1,60.1c0.8,0.8,2.1,0.8,2.9,0
							c0,0,0,0,0,0l60.2-60.2l60.2,60.2c0.8,0.8,2.1,0.8,2.9,0c0,0,0,0,0,0l60.2-60.2l60.2,60.2c0.4,0.4,0.9,0.6,1.5,0.6v-5
							l-60.1-60.1C432,295.6,430.7,295.6,429.9,296.4C429.9,296.4,429.9,296.4,429.9,296.4z"/>
						<path class="st2" d="M429.9,316.9l-60.2,60.2l-60.2-60.2c-0.8-0.8-2.1-0.8-2.9,0c0,0,0,0,0,0l-60.2,60.2L186.3,317
							c-0.8-0.8-2.1-0.8-2.9,0c0,0,0,0,0,0l-60.2,60.2l-60.2-60.2c-0.8-0.8-2.1-0.8-2.9,0c0,0,0,0,0,0L0,377.1v5
							c0.5,0,1.1-0.2,1.5-0.6l60.2-60.2l60.2,60.2c0.8,0.8,2.1,0.8,2.9,0c0,0,0,0,0,0l60.2-60.2l60.1,60.2c0.8,0.8,2.1,0.8,2.9,0
							c0,0,0,0,0,0l60.2-60.2l60.2,60.2c0.8,0.8,2.1,0.8,2.9,0c0,0,0,0,0,0l60.2-60.2l60.2,60.2c0.4,0.4,0.9,0.6,1.5,0.6v-5
							l-60.2-60.2C432,316.1,430.7,316.2,429.9,316.9z"/>
						<path class="st2" d="M429.9,337.5l-60.2,60.2l-60.2-60.2c-0.8-0.8-2.1-0.8-2.9,0c0,0,0,0,0,0l-60.2,60.2l-60.2-60.2
							c-0.8-0.8-2.1-0.8-2.9,0c0,0,0,0,0,0l-60.2,60.2l-60.2-60.2c-0.8-0.8-2.1-0.8-2.9,0c0,0,0,0,0,0L0,397.7v5
							c0.5,0,1.1-0.2,1.5-0.6l60.2-60.2l60.2,60.1c0.8,0.8,2.1,0.8,2.9,0c0,0,0,0,0,0l60.2-60.2L245,402c0.8,0.8,2.1,0.8,2.9,0
							c0,0,0,0,0,0l60.2-60.2l60.2,60.2c0.8,0.8,2.1,0.8,2.9,0c0,0,0,0,0,0l60.2-60.2l60.2,60.2c0.4,0.4,0.9,0.6,1.5,0.6v-5
							l-60.2-60.2C432,336.6,430.7,336.7,429.9,337.5C429.9,337.5,429.9,337.5,429.9,337.5z"/>
						<path class="st2" d="M429.9,358l-60.2,60.2L309.6,358c-0.8-0.8-2.1-0.8-2.9,0c0,0,0,0,0,0l-60.2,60.2L186.3,358
							c-0.8-0.8-2.1-0.8-2.9,0c0,0,0,0,0,0l-60.2,60.2L63.1,358c-0.8-0.8-2.1-0.8-2.9,0c0,0,0,0,0,0L0,418.2v5
							c0.5,0,1.1-0.2,1.5-0.6l60.2-60.2l60.2,60.2c0.8,0.8,2.1,0.8,2.9,0c0,0,0,0,0,0l60.2-60.2l60.1,60.1c0.8,0.8,2.1,0.8,2.9,0
							c0,0,0,0,0,0l60.2-60.2l60.2,60.2c0.8,0.8,2.1,0.8,2.9,0c0,0,0,0,0,0l60.2-60.2l60.2,60.2c0.4,0.4,0.9,0.6,1.5,0.6v-5
							L432.8,358C432,357.2,430.7,357.2,429.9,358C429.9,358,429.9,358,429.9,358z"/>
						<path class="st2" d="M429.9,378.6l-60.2,60.2l-60.2-60.2c-0.8-0.8-2.1-0.8-2.9,0c0,0,0,0,0,0l-60.2,60.2l-60.2-60.2
							c-0.8-0.8-2.1-0.8-2.9,0c0,0,0,0,0,0l-60.2,60.2l-60.2-60.2c-0.8-0.8-2.1-0.8-2.9,0c0,0,0,0,0,0L0,438.7v5
							c0.5,0,1.1-0.2,1.5-0.6L61.6,383l60.2,60.1c0.8,0.8,2.1,0.8,2.9,0c0,0,0,0,0,0l60.2-60.2l60.1,60.2c0.8,0.8,2.1,0.8,2.9,0
							c0,0,0,0,0,0l60.2-60.2l60.2,60.2c0.8,0.8,2.1,0.8,2.9,0c0,0,0,0,0,0l60.2-60.2l60.2,60.2c0.4,0.4,0.9,0.6,1.5,0.6v-5
							l-60.2-60.2C432,377.7,430.7,377.8,429.9,378.6C429.9,378.6,429.9,378.6,429.9,378.6z"/>
						<path class="st2" d="M429.9,399.1l-60.2,60.2l-60.2-60.2c-0.8-0.8-2.1-0.8-2.9,0c0,0,0,0,0,0l-60.2,60.2l-60.2-60.2
							c-0.8-0.8-2.1-0.8-2.9,0c0,0,0,0,0,0l-60.2,60.2l-60.2-60.2c-0.8-0.8-2.1-0.8-2.9,0c0,0,0,0,0,0L0,459.3v5
							c0.5,0,1.1-0.2,1.5-0.6l60.2-60.2l60.2,60.2c0.8,0.8,2.1,0.8,2.9,0c0,0,0,0,0,0l60.2-60.2l60.1,60.1c0.8,0.8,2.1,0.8,2.9,0
							c0,0,0,0,0,0l60.2-60.2l60.2,60.2c0.8,0.8,2.1,0.8,2.9,0c0,0,0,0,0,0l60.2-60.2l60.2,60.2c0.4,0.4,0.9,0.6,1.5,0.6v-5
							l-60.2-60.2C432,398.3,430.7,398.3,429.9,399.1z"/>
						<path class="st2" d="M429.9,419.6l-60.2,60.2l-60.2-60.2c-0.8-0.8-2.1-0.8-2.9,0c0,0,0,0,0,0l-60.2,60.2l-60.2-60.2
							c-0.8-0.8-2.1-0.8-2.9,0c0,0,0,0,0,0l-60.2,60.2l-60.2-60.2c-0.8-0.8-2.1-0.8-2.9,0c0,0,0,0,0,0L0,479.8v5
							c0.5,0,1.1-0.2,1.5-0.6L61.6,424l60.2,60.2c0.8,0.8,2.1,0.8,2.9,0c0,0,0,0,0,0l60.2-60.2l60.1,60.2c0.8,0.8,2.1,0.8,2.9,0
							c0,0,0,0,0,0l60.2-60.2l60.2,60.2c0.8,0.8,2.1,0.8,2.9,0c0,0,0,0,0,0l60.2-60.2l60.2,60.2c0.4,0.4,0.9,0.6,1.5,0.6v-5
							l-60.2-60.2C432,418.8,430.7,418.8,429.9,419.6C429.9,419.6,429.9,419.6,429.9,419.6z"/>
						<path class="st2" d="M429.9,440.2L377.1,493h5.8l48.5-48.5l48.4,48.5h5.8l-52.8-52.8C432,439.4,430.7,439.4,429.9,440.2
							C429.9,440.2,429.9,440.2,429.9,440.2z"/>
						<path class="st2" d="M60.2,440.2L7.4,493h5.8l48.5-48.5l48.4,48.5h5.8l-52.8-52.8C62.3,439.4,61,439.4,60.2,440.2
							C60.2,440.2,60.2,440.2,60.2,440.2z"/>
						<path class="st2" d="M183.4,440.2L130.6,493h5.8l48.4-48.5l48.4,48.5h5.8l-52.8-52.8C185.5,439.4,184.2,439.4,183.4,440.2
							C183.4,440.2,183.4,440.2,183.4,440.2z"/>
						<path class="st2" d="M306.7,440.2L253.9,493h5.8l48.5-48.5l48.4,48.5h5.8l-52.8-52.8C308.8,439.4,307.5,439.4,306.7,440.2
							C306.7,440.2,306.7,440.2,306.7,440.2z"/>
						<path class="st2" d="M429.9,460.7L397.7,493h5.8l27.9-27.9l27.9,27.9h5.8l-32.3-32.3C432,459.9,430.7,459.9,429.9,460.7
							C429.9,460.7,429.9,460.7,429.9,460.7z"/>
						<path class="st2" d="M60.2,460.7L27.9,493h5.8l27.9-27.9L89.5,493h5.8l-32.3-32.3C62.3,459.9,61,459.9,60.2,460.7
							C60.2,460.7,60.2,460.7,60.2,460.7z"/>
						<path class="st2" d="M306.7,460.7L274.4,493h5.8l27.9-27.9L336,493h5.8l-32.3-32.3C308.8,459.9,307.5,459.9,306.7,460.7z"/>
						<path class="st2" d="M183.4,460.7L151.2,493h5.8l27.9-27.9l27.9,27.9h5.8l-32.3-32.3C185.5,459.9,184.2,459.9,183.4,460.7
							C183.4,460.7,183.4,460.7,183.4,460.7z"/>
						<path class="st2" d="M429.9,481.3L418.2,493h5.8l7.4-7.4l7.4,7.4h5.8l-11.7-11.7C432,480.5,430.7,480.5,429.9,481.3
							C429.9,481.3,429.9,481.3,429.9,481.3z"/>
						<path class="st2" d="M60.2,481.3L48.5,493h5.8l7.4-7.4L69,493h5.8l-11.7-11.7C62.3,480.5,61,480.5,60.2,481.3
							C60.2,481.3,60.2,481.3,60.2,481.3z"/>
						<path class="st2" d="M306.7,481.3L295,493h5.8l7.4-7.4l7.4,7.4h5.8l-11.7-11.7C308.8,480.5,307.5,480.5,306.7,481.3
							C306.7,481.3,306.7,481.3,306.7,481.3z"/>
						<path class="st2" d="M183.4,481.3L171.7,493h5.8l7.4-7.4l7.4,7.4h5.8l-11.7-11.7C185.5,480.5,184.2,480.5,183.4,481.3
							C183.4,481.3,183.4,481.3,183.4,481.3z"/>
					</g>
				</g>
			</g>
		</g>
	</g>
</g>
</svg>
