<svg xmlns="http://www.w3.org/2000/svg" viewBox="0 0 1067.85 1237"><defs><style>.cls-1{isolation:isolate;}.cls-2{opacity:0.19;mix-blend-mode:multiply;}.cls-3{fill:#0033a0;fill-rule:evenodd;}</style></defs><title>Asset 10</title><g class="cls-1"><g id="Layer_2" data-name="Layer 2"><g id="Capa_1" data-name="Capa 1"><g class="cls-2"><path class="cls-3" d="M435,519.54c-31.92,18.36-60.7,38.31-86.24,60.65-47.09,40.7-86.2,92.58-117.32,154.83-31.12,56.65-55.06,127.69-74.22,213.08-8.78,40.7-14.36,79-16,115.73L162,1035.1a862.3,862.3,0,0,0-11.17,126.08c9.58-16.75,16-27.92,20.75-34.31L169.2,1237l45.49-110.14c3.19,9.58,5.58,20,8.78,31.92,27.93-64.63,51.88-118.1,73.42-160.4a1156.34,1156.34,0,0,1,65.44-119.71c20.75-34.32,44.69-67.84,70.24-99.76,23.14-28.73,52.67-63,88.58-100.56,6.39-8.78,43.9-25.54,46.3-26.33,16-5.58,35.91-12,61.45-18.36,12-3.19,40.7-9.57,84.6-20.74,38.31-8.78,69.43-17.57,93.37-23.15,74.22-20.75,130.89-43.1,171.59-67,51.88-31.92,82.21-68.63,89.38-111.73a972.88,972.88,0,0,1-152.43,21.54c-27.93,1.6-69.43,2.4-126.1,2.4-49.48,0-87.79.8-114.93,4-41.5,4.78-82.2,12.77-121.31,27.13-43.89,15.16-83,32.73-118.07,53.47ZM211.49,597.75l-23.15,34.32c17.56-15.16,50.28-35.11,96.57-59.85,31.12-16.76,107-56.67,227.46-118.11,91-47.09,166-117.32,224.27-210.69,19.15-30.33,35.91-61.45,49.48-94.17,8-19.15,14.36-35.91,18.35-49.48,1.6-5.58,2.4-16,2.4-28.73a210.77,210.77,0,0,0-1.59-39.9c-1.59-14.37-4-23.94-8-28.73-4.79-4.79-10.38-2.39-16,7.19a938.85,938.85,0,0,1-151.64,163.6c-63,52.68-132.48,98.17-209.1,137.27-95.77,47.09-174,96.57-235.43,147.64C124.51,507.57,68.63,569,16.76,641.65,10.37,651.22,4.79,664,0,681.55,8,676,17.56,674.37,29.53,676L11.17,712.67,40.7,688.73c9.57-8,18.36-13.57,27.14-16L60.65,698.3c19.15-19.15,44.69-37.51,74.22-56.65l-10.37,25.53c13.57-13.57,27.14-25.53,40.69-35.11l46.3-34.32Zm8.78-528.32a131.36,131.36,0,0,0-23.15,50.28c-5.58,18.35-5.58,37.51-.79,57.46,4,19.15,12.77,36.71,23.94,52.67,12,16,26.34,27.93,44.69,39.11,17.57,10.37,35.91,16.75,56.67,21.54,21.56,4,42.3,4,64.64.8C407,286.51,427,280.11,445.34,269c16.76-10.38,31.92-23.15,43.9-39.11,12-15.16,19.15-32.72,23.14-50.27,4.79-18.36,5.59-37.52.8-56.67a130.08,130.08,0,0,0-23.94-53.47c-12-15.16-27.14-27.94-44.7-39.11A195.43,195.43,0,0,0,387.87,8a176.09,176.09,0,0,0-64.64,0c-21.54,3.2-40.69,11.17-59.05,21.55-17.55,10.37-31.92,23.94-43.9,39.9Z"/></g></g></g></g></svg>