<?xml version="1.0" encoding="utf-8"?>
<!-- Generator: Adobe Illustrator 21.1.0, SVG Export Plug-In . SVG Version: 6.00 Build 0)  -->
<svg version="1.1" id="Layer_1" xmlns="http://www.w3.org/2000/svg" xmlns:xlink="http://www.w3.org/1999/xlink" x="0px" y="0px"
	 viewBox="0 0 356 67" style="enable-background:new 0 0 356 67;" xml:space="preserve">
<style type="text/css">
	.st0{opacity:0.3;}
	.st1{clip-path:url(#SVGID_2_);}
	.st2{fill:#0033A0;}
</style>
<title>Asset 11</title>
<g>
	<g id="Layer_2">
		<g id="Capa_1">
			<g class="st0">
				<g>
					<defs>
						<rect id="SVGID_1_" width="356" height="67"/>
					</defs>
					<clipPath id="SVGID_2_">
						<use xlink:href="#SVGID_1_"  style="overflow:visible;"/>
					</clipPath>
					<g class="st1">
						<path class="st2" d="M122.1,180.5c0.8-0.5,1.9-0.4,2.6,0.3L157,213h-5.8l-27.9-27.9L95.3,213h-5.8l32.3-32.3
							C121.9,180.6,122,180.5,122.1,180.5z"/>
						<path class="st2" d="M368.6,180.5c0.8-0.5,1.9-0.4,2.6,0.3l32.3,32.3h-5.8l-27.9-27.9L341.8,213H336l32.3-32.3
							C368.4,180.6,368.5,180.5,368.6,180.5z"/>
						<path class="st2" d="M245.4,180.5c0.8-0.5,1.9-0.4,2.6,0.3l32.3,32.3h-5.8l-27.9-27.9L218.6,213h-5.8l32.2-32.3
							C245.1,180.6,245.2,180.5,245.4,180.5z"/>
						<path class="st2" d="M493,180.1v5L465.1,213h-5.8l32.3-32.3C491.9,180.3,492.5,180.1,493,180.1z"/>
						<path class="st2" d="M0,180.1c0.5,0,1.1,0.2,1.5,0.6L33.7,213h-5.8L0,185.1V180.1z"/>
						<path class="st2" d="M0,200.7c0.5,0,1.1,0.2,1.5,0.6L13.2,213H7.4L0,205.6V200.7z"/>
						<path class="st2" d="M368.6,201c0.8-0.5,1.9-0.4,2.6,0.3l11.7,11.7h-5.8l-7.4-7.4l-7.4,7.4h-5.8l11.7-11.7
							C368.4,201.2,368.5,201.1,368.6,201z"/>
						<path class="st2" d="M493,200.7v5l-7.4,7.3h-5.8l11.7-11.7C491.9,200.9,492.5,200.7,493,200.7z"/>
						<path class="st2" d="M245.4,201c0.8-0.5,1.9-0.4,2.6,0.3l11.7,11.7h-5.8l-7.4-7.4l-7.4,7.4h-5.8l11.7-11.7
							C245.1,201.2,245.2,201.1,245.4,201z"/>
						<path class="st2" d="M122.1,201c0.8-0.5,1.9-0.4,2.6,0.3l11.7,11.7h-5.8l-7.4-7.4l-7.4,7.4h-5.8l11.7-11.7
							C121.9,201.2,122,201.1,122.1,201z"/>
						<path class="st2" d="M0,159.6c0.5,0,1.1,0.2,1.5,0.6L54.3,213h-5.8L0,164.5V159.6z"/>
						<path class="st2" d="M245.4,159.9c0.8-0.5,1.9-0.4,2.6,0.3l52.8,52.8H295l-48.5-48.5L198.1,213h-5.8l52.8-52.8
							C245.1,160.1,245.2,160,245.4,159.9z"/>
						<path class="st2" d="M368.6,159.9c0.8-0.5,1.9-0.4,2.6,0.3L424,213h-5.8l-48.5-48.5L321.3,213h-5.8l52.8-52.8
							C368.4,160.1,368.5,160,368.6,159.9z"/>
						<path class="st2" d="M122.1,159.9c0.8-0.5,1.9-0.4,2.6,0.3l52.8,52.8h-5.8l-48.4-48.5L74.8,213H69l52.8-52.8
							C121.9,160.1,122,160,122.1,159.9z"/>
						<path class="st2" d="M493,159.6v5L444.5,213h-5.8l52.8-52.8C491.9,159.8,492.5,159.6,493,159.6z"/>
						<path class="st2" d="M429.9,204.2L369.8,144l-60.2,60.2c-0.8,0.8-2.1,0.8-2.9,0c0,0,0,0,0,0L246.5,144l-60.2,60.2
							c-0.8,0.8-2.1,0.8-2.9,0c0,0,0,0,0,0L123.2,144l-60.2,60.2c-0.8,0.8-2.1,0.8-2.9,0c0,0,0,0,0,0L0,144v-5
							c0.5,0,1.1,0.2,1.5,0.6l60.2,60.2l60.2-60.2c0.8-0.8,2.1-0.8,2.9,0c0,0,0,0,0,0l60.2,60.2l60.1-60.1c0.8-0.8,2.1-0.8,2.9,0
							c0,0,0,0,0,0l60.2,60.2l60.2-60.2c0.8-0.8,2.1-0.8,2.9,0c0,0,0,0,0,0l60.2,60.2l60.2-60.2c0.4-0.4,0.9-0.6,1.5-0.6v5
							l-60.2,60.2C432,205,430.7,205,429.9,204.2z"/>
						<path class="st2" d="M429.9,183.6l-60.2-60.2l-60.2,60.2c-0.8,0.8-2.1,0.8-2.9,0c0,0,0,0,0,0l-60.2-60.2l-60.2,60.2
							c-0.8,0.8-2.1,0.8-2.9,0c0,0,0,0,0,0l-60.2-60.2l-60.2,60.2c-0.8,0.8-2.1,0.8-2.9,0c0,0,0,0,0,0L0,123.5v-5
							c0.5,0,1.1,0.2,1.5,0.6l60.2,60.2l60.2-60.2c0.8-0.8,2.1-0.8,2.9,0c0,0,0,0,0,0l60.2,60.2l60.1-60.1c0.8-0.8,2.1-0.8,2.9,0
							c0,0,0,0,0,0l60.2,60.2l60.2-60.2c0.8-0.8,2.1-0.8,2.9,0c0,0,0,0,0,0l60.2,60.2l60.2-60.2c0.4-0.4,0.9-0.6,1.5-0.6v5
							l-60.2,60.2C432,184.4,430.7,184.4,429.9,183.6z"/>
						<path class="st2" d="M429.9,163.1l-60.2-60.2l-60.2,60.2c-0.8,0.8-2.1,0.8-2.9,0c0,0,0,0,0,0l-60.2-60.2l-60.2,60.2
							c-0.8,0.8-2.1,0.8-2.9,0c0,0,0,0,0,0l-60.2-60.2l-60.2,60.2c-0.8,0.8-2.1,0.8-2.9,0c0,0,0,0,0,0L0,102.9v-5
							c0.5,0,1.1,0.2,1.5,0.6l60.2,60.2l60.2-60.2c0.8-0.8,2.1-0.8,2.9,0c0,0,0,0,0,0l60.2,60.2L245,98.6c0.8-0.8,2.1-0.8,2.9,0
							c0,0,0,0,0,0l60.2,60.2l60.2-60.2c0.8-0.8,2.1-0.8,2.9,0c0,0,0,0,0,0l60.2,60.2l60.2-60.2c0.4-0.4,0.9-0.6,1.5-0.6v5
							l-60.2,60.1C432,163.9,430.7,163.9,429.9,163.1C429.9,163.1,429.9,163.1,429.9,163.1z"/>
						<path class="st2" d="M429.9,142.6l-60.2-60.2l-60.2,60.2c-0.8,0.8-2.1,0.8-2.9,0c0,0,0,0,0,0l-60.2-60.2l-60.2,60.2
							c-0.8,0.8-2.1,0.8-2.9,0c0,0,0,0,0,0l-60.2-60.2l-60.2,60.2c-0.8,0.8-2.1,0.8-2.9,0c0,0,0,0,0,0L0,82.4v-5
							c0.5,0,1.1,0.2,1.5,0.6l60.2,60.2L121.8,78c0.8-0.8,2.1-0.8,2.9,0c0,0,0,0,0,0l60.2,60.2L245,78c0.8-0.8,2.1-0.8,2.9,0
							c0,0,0,0,0,0l60.2,60.2L368.3,78c0.8-0.8,2.1-0.8,2.9,0c0,0,0,0,0,0l60.2,60.2L491.5,78c0.4-0.4,0.9-0.6,1.5-0.6v5l-60.2,60.2
							C432,143.4,430.7,143.4,429.9,142.6C429.9,142.6,429.9,142.6,429.9,142.6z"/>
						<path class="st2" d="M429.9,122l-60.2-60.2L309.6,122c-0.8,0.8-2.1,0.8-2.9,0c0,0,0,0,0,0l-60.2-60.2L186.3,122
							c-0.8,0.8-2.1,0.8-2.9,0c0,0,0,0,0,0l-60.2-60.2L63.1,122c-0.8,0.8-2.1,0.8-2.9,0c0,0,0,0,0,0L0,61.8v-5
							c0.5,0,1.1,0.2,1.5,0.6l60.2,60.2l60.2-60.2c0.8-0.8,2.1-0.8,2.9,0c0,0,0,0,0,0l60.2,60.2L245,57.5c0.8-0.8,2.1-0.8,2.9,0
							c0,0,0,0,0,0l60.2,60.2l60.2-60.2c0.8-0.8,2.1-0.8,2.9,0c0,0,0,0,0,0l60.2,60.2l60.2-60.2c0.4-0.4,0.9-0.6,1.5-0.6v5
							L432.8,122C432,122.8,430.7,122.8,429.9,122C429.9,122,429.9,122,429.9,122z"/>
						<path class="st2" d="M429.9,101.5l-60.2-60.2l-60.2,60.2c-0.8,0.8-2.1,0.8-2.9,0c0,0,0,0,0,0l-60.2-60.2l-60.2,60.2
							c-0.8,0.8-2.1,0.8-2.9,0c0,0,0,0,0,0l-60.2-60.2l-60.2,60.2c-0.8,0.8-2.1,0.8-2.9,0c0,0,0,0,0,0L0,41.3v-5
							c0.5,0,1.1,0.2,1.5,0.6l60.2,60.2l60.2-60.2c0.8-0.8,2.1-0.8,2.9,0c0,0,0,0,0,0l60.2,60.2L245,36.9c0.8-0.8,2.1-0.8,2.9,0
							c0,0,0,0,0,0l60.2,60.2l60.2-60.2c0.8-0.8,2.1-0.8,2.9,0c0,0,0,0,0,0l60.2,60.2l60.2-60.2c0.4-0.4,0.9-0.6,1.5-0.6v5
							l-60.2,60.2C432,102.3,430.7,102.3,429.9,101.5z"/>
						<path class="st2" d="M429.9,80.9l-60.2-60.2l-60.2,60.2c-0.8,0.8-2.1,0.8-2.9,0c0,0,0,0,0,0l-60.2-60.2l-60.2,60.2
							c-0.8,0.8-2.1,0.8-2.9,0c0,0,0,0,0,0l-60.2-60.2L63.1,80.9c-0.8,0.8-2.1,0.8-2.9,0c0,0,0,0,0,0L0,20.8v-5
							c0.5,0,1.1,0.2,1.5,0.6l60.2,60.2l60.2-60.1c0.8-0.8,2.1-0.8,2.9,0c0,0,0,0,0,0l60.2,60.2L245,16.4c0.8-0.8,2.1-0.8,2.9,0
							c0,0,0,0,0,0l60.2,60.2l60.2-60.2c0.8-0.8,2.1-0.8,2.9,0c0,0,0,0,0,0l60.2,60.2l60.2-60.2c0.4-0.4,0.9-0.6,1.5-0.6v5L432.8,81
							C432,81.8,430.7,81.7,429.9,80.9C429.9,80.9,429.9,80.9,429.9,80.9z"/>
						<path class="st2" d="M429.9,60.4L369.8,0.2l-60.2,60.2c-0.8,0.8-2.1,0.8-2.9,0c0,0,0,0,0,0L246.5,0.2l-60.2,60.2
							c-0.8,0.8-2.1,0.8-2.9,0c0,0,0,0,0,0L123.2,0.2L63.1,60.4c-0.8,0.8-2.1,0.8-2.9,0c0,0,0,0,0,0L0,0.2v-5c0.5,0,1.1,0.2,1.5,0.6
							L61.6,56l60.2-60.2c0.8-0.8,2.1-0.8,2.9,0c0,0,0,0,0,0L184.9,56L245-4.1c0.8-0.8,2.1-0.8,2.9,0c0,0,0,0,0,0L308.1,56
							l60.2-60.2c0.8-0.8,2.1-0.8,2.9,0c0,0,0,0,0,0L431.4,56l60.2-60.2c0.4-0.4,0.9-0.6,1.5-0.6v5l-60.2,60.2
							C432,61.2,430.7,61.2,429.9,60.4C429.9,60.4,429.9,60.4,429.9,60.4z"/>
						<path class="st2" d="M429.9,39.9l-60.2-60.2l-60.2,60.2c-0.8,0.8-2.1,0.8-2.9,0c0,0,0,0,0,0l-60.2-60.2l-60.2,60.2
							c-0.8,0.8-2.1,0.8-2.9,0c0,0,0,0,0,0l-60.2-60.2L63.1,39.9c-0.8,0.8-2.1,0.8-2.9,0c0,0,0,0,0,0L0-20.3v-5
							c0.5,0,1.1,0.2,1.5,0.6l60.2,60.2l60.2-60.2c0.8-0.8,2.1-0.8,2.9,0c0,0,0,0,0,0l60.2,60.2L245-24.7c0.8-0.8,2.1-0.8,2.9,0
							c0,0,0,0,0,0l60.2,60.2l60.2-60.2c0.8-0.8,2.1-0.8,2.9,0c0,0,0,0,0,0l60.2,60.2l60.2-60.2c0.4-0.4,0.9-0.6,1.5-0.6v5
							l-60.2,60.2C432,40.7,430.7,40.6,429.9,39.9z"/>
						<path class="st2" d="M429.9,19.3l-60.2-60.2l-60.2,60.2c-0.8,0.8-2.1,0.8-2.9,0c0,0,0,0,0,0l-60.2-60.2l-60.2,60.2
							c-0.8,0.8-2.1,0.8-2.9,0c0,0,0,0,0,0l-60.2-60.2L63.1,19.3c-0.8,0.8-2.1,0.8-2.9,0c0,0,0,0,0,0L0-40.9v-5
							c0.5,0,1.1,0.2,1.5,0.6l60.2,60.2l60.2-60.2c0.8-0.8,2.1-0.8,2.9,0c0,0,0,0,0,0l60.2,60.2L245-45.2c0.8-0.8,2.1-0.8,2.9,0
							c0,0,0,0,0,0L308.1,15l60.2-60.2c0.8-0.8,2.1-0.8,2.9,0c0,0,0,0,0,0L431.3,15l60.2-60.2c0.4-0.4,0.9-0.6,1.5-0.6v5l-60.2,60.2
							C432,20.1,430.7,20.1,429.9,19.3z"/>
						<path class="st2" d="M429.9-1.2l-60.2-60.2L309.6-1.2c-0.8,0.8-2.1,0.8-2.9,0c0,0,0,0,0,0l-60.2-60.2L186.3-1.2
							c-0.8,0.8-2.1,0.8-2.9,0c0,0,0,0,0,0l-60.2-60.2L63.1-1.2c-0.8,0.8-2.1,0.8-2.9,0c0,0,0,0,0,0L0-61.4v-5
							c0.5,0,1.1,0.2,1.5,0.6L61.6-5.6l60.2-60.2c0.8-0.8,2.1-0.8,2.9,0c0,0,0,0,0,0l60.2,60.2L245-65.8c0.8-0.8,2.1-0.8,2.9,0
							c0,0,0,0,0,0l60.2,60.2l60.2-60.2c0.8-0.8,2.1-0.8,2.9,0c0,0,0,0,0,0l60.2,60.2l60.2-60.2c0.4-0.4,0.9-0.6,1.5-0.6v5
							L432.8-1.2C432-0.4,430.7-0.4,429.9-1.2z"/>
						<path class="st2" d="M429.9-21.8l-60.2-60.2l-60.2,60.2c-0.8,0.8-2.1,0.8-2.9,0c0,0,0,0,0,0l-60.2-60.2l-60.2,60.2
							c-0.8,0.8-2.1,0.8-2.9,0c0,0,0,0,0,0l-60.2-60.2L63.1-21.8c-0.8,0.8-2.1,0.8-2.9,0c0,0,0,0,0,0L0-81.9v-5
							c0.5,0,1.1,0.2,1.5,0.6l60.2,60.2l60.2-60.2c0.8-0.8,2.1-0.8,2.9,0c0,0,0,0,0,0l60.2,60.2L245-86.3c0.8-0.8,2.1-0.8,2.9,0
							c0,0,0,0,0,0l60.2,60.2l60.2-60.2c0.8-0.8,2.1-0.8,2.9,0c0,0,0,0,0,0l60.2,60.2l60.2-60.2c0.4-0.4,0.9-0.6,1.5-0.6v5
							l-60.2,60.2C432-21,430.7-21,429.9-21.8z"/>
						<path class="st2" d="M429.9-42.3l-60.2-60.2l-60.2,60.2c-0.8,0.8-2.1,0.8-2.9,0c0,0,0,0,0,0l-60.2-60.2l-60.2,60.2
							c-0.8,0.8-2.1,0.8-2.9,0c0,0,0,0,0,0l-60.2-60.2L63.1-42.3c-0.8,0.8-2.1,0.8-2.9,0c0,0,0,0,0,0L0-102.5v-5
							c0.5,0,1.1,0.2,1.5,0.6l60.2,60.2l60.2-60.2c0.8-0.8,2.1-0.8,2.9,0c0,0,0,0,0,0l60.2,60.2l60.1-60.1c0.8-0.8,2.1-0.8,2.9,0
							c0,0,0,0,0,0l60.2,60.2l60.2-60.2c0.8-0.8,2.1-0.8,2.9,0c0,0,0,0,0,0l60.2,60.2l60.2-60.2c0.4-0.4,0.9-0.6,1.5-0.6v5
							l-60.2,60.2C432-41.5,430.7-41.5,429.9-42.3z"/>
						<path class="st2" d="M429.9-62.9L369.8-123l-60.2,60.2c-0.8,0.8-2.1,0.8-2.9,0c0,0,0,0,0,0L246.5-123l-60.2,60.2
							c-0.8,0.8-2.1,0.8-2.9,0c0,0,0,0,0,0L123.2-123L63.1-62.9c-0.8,0.8-2.1,0.8-2.9,0c0,0,0,0,0,0L0-123v-5c0.5,0,1.1,0.2,1.5,0.6
							l60.2,60.2l60.2-60.2c0.8-0.8,2.1-0.8,2.9,0c0,0,0,0,0,0l60.2,60.2l60.1-60.2c0.8-0.8,2.1-0.8,2.9,0c0,0,0,0,0,0l60.2,60.2
							l60.2-60.2c0.8-0.8,2.1-0.8,2.9,0c0,0,0,0,0,0l60.2,60.2l60.2-60.2c0.4-0.4,0.9-0.6,1.5-0.6v5l-60.2,60.2
							C432-62,430.7-62,429.9-62.9C429.9-62.9,429.9-62.9,429.9-62.9z"/>
						<path class="st2" d="M429.9-83.4l-60.2-60.2l-60.2,60.2c-0.8,0.8-2.1,0.8-2.9,0c0,0,0,0,0,0l-60.2-60.2l-60.2,60.2
							c-0.8,0.8-2.1,0.8-2.9,0c0,0,0,0,0,0l-60.2-60.2L63.1-83.4c-0.8,0.8-2.1,0.8-2.9,0c0,0,0,0,0,0L0-143.6v-5
							c0.5,0,1.1,0.2,1.5,0.6l60.2,60.2l60.2-60.2c0.8-0.8,2.1-0.8,2.9,0c0,0,0,0,0,0l60.2,60.2l60.1-60.1c0.8-0.8,2.1-0.8,2.9,0
							c0,0,0,0,0,0l60.2,60.2l60.2-60.2c0.8-0.8,2.1-0.8,2.9,0c0,0,0,0,0,0l60.2,60.2l60.2-60.2c0.4-0.4,0.9-0.6,1.5-0.6v5
							l-60.1,60.1C432-82.6,430.7-82.6,429.9-83.4C429.9-83.4,429.9-83.4,429.9-83.4z"/>
						<path class="st2" d="M429.9-103.9l-60.2-60.2l-60.2,60.2c-0.8,0.8-2.1,0.8-2.9,0c0,0,0,0,0,0l-60.2-60.2L186.3-104
							c-0.8,0.8-2.1,0.8-2.9,0c0,0,0,0,0,0l-60.2-60.2l-60.2,60.2c-0.8,0.8-2.1,0.8-2.9,0c0,0,0,0,0,0L0-164.1v-5
							c0.5,0,1.1,0.2,1.5,0.6l60.2,60.2l60.2-60.2c0.8-0.8,2.1-0.8,2.9,0c0,0,0,0,0,0l60.2,60.2l60.1-60.2c0.8-0.8,2.1-0.8,2.9,0
							c0,0,0,0,0,0l60.2,60.2l60.2-60.2c0.8-0.8,2.1-0.8,2.9,0c0,0,0,0,0,0l60.2,60.2l60.2-60.2c0.4-0.4,0.9-0.6,1.5-0.6v5
							l-60.2,60.2C432-103.1,430.7-103.2,429.9-103.9z"/>
						<path class="st2" d="M429.9-124.5l-60.2-60.2l-60.2,60.2c-0.8,0.8-2.1,0.8-2.9,0c0,0,0,0,0,0l-60.2-60.2l-60.2,60.2
							c-0.8,0.8-2.1,0.8-2.9,0c0,0,0,0,0,0l-60.2-60.2l-60.2,60.2c-0.8,0.8-2.1,0.8-2.9,0c0,0,0,0,0,0L0-184.7v-5
							c0.5,0,1.1,0.2,1.5,0.6l60.2,60.2l60.2-60.1c0.8-0.8,2.1-0.8,2.9,0c0,0,0,0,0,0l60.2,60.2L245-189c0.8-0.8,2.1-0.9,2.9-0.1
							c0,0,0.1,0.1,0.1,0.1l60.2,60.2l60.1-60.2c0.8-0.8,2.1-0.8,2.9,0c0,0,0,0,0,0l60.2,60.2l60.2-60.2c0.4-0.4,0.9-0.6,1.5-0.6v5
							l-60.2,60.2C432-123.6,430.7-123.7,429.9-124.5C429.9-124.5,429.9-124.5,429.9-124.5z"/>
						<path class="st2" d="M429.9-145l-60.2-60.2L309.6-145c-0.8,0.8-2.1,0.8-2.9,0c0,0,0,0,0,0l-60.2-60.2L186.3-145
							c-0.8,0.8-2.1,0.8-2.9,0c0,0,0,0,0,0l-60.2-60.2L63.1-145c-0.8,0.8-2.1,0.8-2.9,0c0,0,0,0,0,0L0-205.2v-5
							c0.5,0,1.1,0.2,1.5,0.6l60.2,60.2l60.2-60.1c0.8-0.8,2.1-0.8,2.9,0c0,0,0,0,0,0l60.2,60.2l60.1-60.2c0.8-0.8,2.1-0.8,2.9,0
							c0,0,0,0,0,0l60.2,60.2l60.2-60.2c0.8-0.8,2.1-0.8,2.9,0c0,0,0,0,0,0l60.2,60.2l60.2-60.2c0.4-0.4,0.9-0.6,1.5-0.6v5
							L432.8-145C432-144.2,430.7-144.2,429.9-145C429.9-145,429.9-145,429.9-145z"/>
						<path class="st2" d="M429.9-165.6l-60.2-60.2l-60.2,60.2c-0.8,0.8-2.1,0.8-2.9,0c0,0,0,0,0,0l-60.2-60.2l-60.2,60.2
							c-0.8,0.8-2.1,0.8-2.9,0c0,0,0,0,0,0l-60.2-60.2l-60.2,60.2c-0.8,0.8-2.1,0.8-2.9,0c0,0,0,0,0,0L0-225.7v-5
							c0.5,0,1.1,0.2,1.5,0.6L61.6-170l60.2-60.1c0.8-0.8,2.1-0.8,2.9,0c0,0,0,0,0,0l60.2,60.2l60.1-60.2c0.8-0.8,2.1-0.8,2.9,0
							c0,0,0,0,0,0l60.2,60.2l60.2-60.2c0.8-0.8,2.1-0.8,2.9,0c0,0,0,0,0,0l60.2,60.2l60.2-60.2c0.4-0.4,0.9-0.6,1.5-0.6v5
							l-60.2,60.2C432-164.7,430.7-164.8,429.9-165.6C429.9-165.6,429.9-165.6,429.9-165.6z"/>
						<path class="st2" d="M429.9-186.1l-60.2-60.2l-60.2,60.2c-0.8,0.8-2.1,0.8-2.9,0c0,0,0,0,0,0l-60.2-60.2l-60.2,60.2
							c-0.8,0.8-2.1,0.8-2.9,0c0,0,0,0,0,0l-60.2-60.2l-60.2,60.2c-0.8,0.8-2.1,0.8-2.9,0c0,0,0,0,0,0L0-246.3v-5
							c0.5,0,1.1,0.2,1.5,0.6l60.2,60.2l60.2-60.2c0.8-0.8,2.1-0.8,2.9,0c0,0,0,0,0,0l60.2,60.2l60.1-60.2c0.8-0.8,2.1-0.8,2.9,0
							c0,0,0,0,0,0l60.2,60.2l60.2-60.2c0.8-0.8,2.1-0.8,2.9,0c0,0,0,0,0,0l60.2,60.2l60.2-60.2c0.4-0.4,0.9-0.6,1.5-0.6v5
							l-60.2,60.1C432-185.3,430.7-185.3,429.9-186.1C429.9-186.1,429.9-186.1,429.9-186.1z"/>
						<path class="st2" d="M429.9-206.6l-60.2-60.2l-60.2,60.2c-0.8,0.8-2.1,0.8-2.9,0c0,0,0,0,0,0l-60.2-60.2l-60.2,60.2
							c-0.8,0.8-2.1,0.8-2.9,0c0,0,0,0,0,0l-60.2-60.2l-60.2,60.2c-0.8,0.8-2.1,0.8-2.9,0c0,0,0,0,0,0L0-266.8v-5
							c0.5,0,1.1,0.2,1.5,0.6L61.6-211l60.2-60.2c0.8-0.8,2.1-0.8,2.9,0c0,0,0,0,0,0l60.2,60.2l60.1-60.2c0.8-0.8,2.1-0.8,2.9,0
							c0,0,0,0,0,0l60.2,60.2l60.2-60.2c0.8-0.8,2.1-0.8,2.9,0c0,0,0,0,0,0l60.2,60.2l60.2-60.2c0.4-0.4,0.9-0.6,1.5-0.6v5
							l-60.2,60.1C432-205.8,430.7-205.8,429.9-206.6C429.9-206.6,429.9-206.6,429.9-206.6z"/>
						<path class="st2" d="M429.9-227.2L377.1-280h5.8l48.5,48.4l48.4-48.4h5.8l-52.8,52.8C432-226.4,430.7-226.4,429.9-227.2
							C429.9-227.2,429.9-227.2,429.9-227.2z"/>
						<path class="st2" d="M60.2-227.2L7.4-280h5.8l48.5,48.4l48.4-48.4h5.8l-52.8,52.8C62.3-226.4,61-226.4,60.2-227.2
							C60.2-227.2,60.2-227.2,60.2-227.2z"/>
						<path class="st2" d="M183.4-227.2L130.6-280h5.8l48.4,48.4l48.4-48.4h5.8l-52.8,52.8C185.5-226.4,184.2-226.4,183.4-227.2
							C183.4-227.2,183.4-227.2,183.4-227.2z"/>
						<path class="st2" d="M306.7-227.2L253.9-280h5.8l48.5,48.4l48.4-48.4h5.8l-52.8,52.8C308.8-226.4,307.5-226.4,306.7-227.2
							C306.7-227.2,306.7-227.2,306.7-227.2z"/>
						<path class="st2" d="M429.9-247.7L397.7-280h5.8l27.9,27.9l27.9-27.9h5.8l-32.3,32.3C432-246.9,430.7-246.9,429.9-247.7
							C429.9-247.7,429.9-247.7,429.9-247.7z"/>
						<path class="st2" d="M60.2-247.7L27.9-280h5.8l27.9,27.9L89.5-280h5.8l-32.3,32.3C62.3-246.9,61-246.9,60.2-247.7
							C60.2-247.7,60.2-247.7,60.2-247.7z"/>
						<path class="st2" d="M306.7-247.7L274.4-280h5.8l27.9,27.9L336-280h5.8l-32.2,32.3C308.8-246.9,307.5-246.9,306.7-247.7
							C306.7-247.7,306.7-247.7,306.7-247.7z"/>
						<path class="st2" d="M183.4-247.7L151.2-280h5.8l27.9,27.9l27.9-27.9h5.8l-32.3,32.3C185.5-246.9,184.2-246.9,183.4-247.7
							C183.4-247.7,183.4-247.7,183.4-247.7z"/>
						<path class="st2" d="M429.9-268.3L418.2-280h5.8l7.4,7.4l7.4-7.4h5.8l-11.7,11.7C432-267.5,430.7-267.5,429.9-268.3
							C429.9-268.3,429.9-268.3,429.9-268.3z"/>
						<path class="st2" d="M60.2-268.3L48.5-280h5.8l7.4,7.4L69-280h5.8l-11.7,11.7C62.3-267.5,61-267.5,60.2-268.3
							C60.2-268.3,60.2-268.3,60.2-268.3z"/>
						<path class="st2" d="M306.7-268.3L295-280h5.8l7.4,7.4l7.4-7.4h5.8l-11.7,11.7C308.8-267.5,307.5-267.5,306.7-268.3
							C306.7-268.3,306.7-268.3,306.7-268.3z"/>
						<path class="st2" d="M183.4-268.3L171.7-280h5.8l7.4,7.4l7.4-7.4h5.8l-11.7,11.7C185.5-267.5,184.2-267.5,183.4-268.3
							C183.4-268.3,183.4-268.3,183.4-268.3z"/>
					</g>
				</g>
			</g>
		</g>
	</g>
</g>
</svg>
