<svg xmlns="http://www.w3.org/2000/svg" viewBox="0 0 46.93 44.51"><defs><style>.cls-1{fill:#0033a0;}.cls-2{fill:#fff;}</style></defs><title>Asset 10</title><g id="Layer_2" data-name="Layer 2"><g id="Capa_1" data-name="Capa 1"><path class="cls-1" d="M23.47,0C10.5,0,0,9.42,0,21A19.42,19.42,0,0,0,3.88,32.63C3.56,36.46,2.63,41.87,0,44.51c0,0,8-1.13,13.49-4.42a25.61,25.61,0,0,0,10,2c13,0,23.47-9.42,23.47-21S36.43,0,23.47,0Zm0,0"/><path class="cls-2" d="M14.08,21a2.82,2.82,0,1,1-2.81-2.82A2.81,2.81,0,0,1,14.08,21Zm0,0"/><path class="cls-2" d="M26.28,21a2.81,2.81,0,1,1-2.81-2.82A2.81,2.81,0,0,1,26.28,21Zm0,0"/><path class="cls-2" d="M38.49,21a2.82,2.82,0,1,1-2.82-2.82A2.82,2.82,0,0,1,38.49,21Zm0,0"/></g></g></svg>