<svg xmlns="http://www.w3.org/2000/svg" viewBox="0 0 56.98 56.98"><defs><style>.cls-1{fill:#0033a0;}</style></defs><title>Asset 2</title><g id="Layer_2" data-name="Layer 2"><g id="Capa_1" data-name="Capa 1"><path class="cls-1" d="M11.4,36.09Z"/><polygon class="cls-1" points="41.79 0 41.79 15.19 56.98 15.19 41.79 0"/><path class="cls-1" d="M9.5,26.59A9.47,9.47,0,0,0,3,42.95L.06,54.62a1.9,1.9,0,0,0,2.69,2.16L9.5,53.4l6.75,3.38a2,2,0,0,0,.85.2,1.9,1.9,0,0,0,1.85-2.36L16,42.95A9.47,9.47,0,0,0,9.5,26.59Zm0,15.19a5.7,5.7,0,1,1,5.7-5.7A5.7,5.7,0,0,1,9.5,41.78Z"/><path class="cls-1" d="M38,15.19V0H15.2a3.8,3.8,0,0,0-3.8,3.8V23a13.27,13.27,0,0,1,11.4,13.1A13.11,13.11,0,0,1,20.2,44l2.3,9.23H53.18a3.8,3.8,0,0,0,3.8-3.8V19H41.79A3.8,3.8,0,0,1,38,15.19Zm-19-1.9a1.9,1.9,0,0,1,1.9-1.9h11.4a1.9,1.9,0,0,1,0,3.8H20.89A1.9,1.9,0,0,1,19,13.29ZM47.48,38h-19a1.9,1.9,0,1,1,0-3.8h19a1.9,1.9,0,1,1,0,3.8Zm1.9-13.29a1.9,1.9,0,0,1-1.9,1.9H24.69a1.9,1.9,0,0,1,0-3.8H47.48A1.9,1.9,0,0,1,49.38,24.69Z"/></g></g></svg>