<svg xmlns="http://www.w3.org/2000/svg" viewBox="0 0 47.82 53.32"><defs><style>.cls-1{fill:#0033a0;}</style></defs><title>Asset 8</title><g id="Layer_2" data-name="Layer 2"><g id="Capa_1" data-name="Capa 1"><path class="cls-1" d="M44.85,42.77a6.1,6.1,0,1,0-8.74,0,7.37,7.37,0,0,0-3,5.88v3a1.65,1.65,0,0,0,1.65,1.65H46.17a1.65,1.65,0,0,0,1.65-1.65v-3A7.37,7.37,0,0,0,44.85,42.77Z"/><path class="cls-1" d="M11.71,42.77a6.1,6.1,0,1,0-8.74,0,7.37,7.37,0,0,0-3,5.88v3a1.65,1.65,0,0,0,1.65,1.65H13.08a1.65,1.65,0,0,0,1.65-1.65v-3A7.37,7.37,0,0,0,11.71,42.77Z"/><path class="cls-1" d="M28.25,42.77a6.1,6.1,0,1,0-8.74,0,7.37,7.37,0,0,0-3,5.88v3a1.65,1.65,0,0,0,1.65,1.65H29.63a1.65,1.65,0,0,0,1.65-1.65v-3A7.37,7.37,0,0,0,28.25,42.77Z"/><path class="cls-1" d="M34.14,28.8l2.25-4.12H45A1.65,1.65,0,0,0,46.61,23V1.65A1.65,1.65,0,0,0,45,0H4A1.65,1.65,0,0,0,2.31,1.65V23.09A1.65,1.65,0,0,0,4,24.74h7.42l2.25,4.12a1.65,1.65,0,0,0,2.86,0l2.25-4.12H29l2.25,4.12a1.65,1.65,0,0,0,2.86,0ZM8.63,7.48H25.84v3.3H8.63Zm0,9.29v-3.3H39.19v3.3Z"/></g></g></svg>