<svg xmlns="http://www.w3.org/2000/svg" viewBox="0 0 116.07 57.97"><defs><style>.cls-1{fill:#e4b212;}</style></defs><title>Asset 2</title><g id="Layer_2" data-name="Layer 2"><g id="Capa_1" data-name="Capa 1"><polygon class="cls-1" points="28.55 30.83 28.55 49.7 29.22 49.7 59.52 57.97 89.44 49.7 89.44 31.07 59.52 39.25 28.55 30.83"/><polygon class="cls-1" points="116.07 20.17 58.67 0 0 19.46 59.52 35.64 116.07 20.17"/><path class="cls-1" d="M16.42,37.8a3.19,3.19,0,0,0-1.23-5.66V27.2l-1.11-.3v5.2A3.19,3.19,0,0,0,12.7,37.9a3.33,3.33,0,0,0-1.4,2.72v6.24H18V40.61A3.33,3.33,0,0,0,16.42,37.8Z"/></g></g></svg>