<svg xmlns="http://www.w3.org/2000/svg" viewBox="0 0 60 60"><defs><style>.cls-1{fill:none;stroke:#b3b3b3;stroke-miterlimit:10;}.cls-2{fill:#e4b212;}</style></defs><title>Asset 5</title><g id="Layer_2" data-name="Layer 2"><g id="Capa_1" data-name="Capa 1"><circle class="cls-1" cx="30" cy="30" r="29.5"/><path class="cls-2" d="M47,32H21.55a8.45,8.45,0,0,0,2.94,5.34,9.22,9.22,0,0,0,6.1,2,10.54,10.54,0,0,0,7.62-3.1l6.66,3.13a15.73,15.73,0,0,1-6,5.23,18.66,18.66,0,0,1-8.25,1.69,16.31,16.31,0,0,1-12.08-4.68,15.92,15.92,0,0,1-4.66-11.72,16.46,16.46,0,0,1,4.65-12,15.61,15.61,0,0,1,11.66-4.76,16.19,16.19,0,0,1,12.11,4.76Q47,22.64,47,30.46ZM39,25.74A7.93,7.93,0,0,0,36,21.45,9,9,0,0,0,30.6,19.8a9.47,9.47,0,0,0-5.8,1.85,10.33,10.33,0,0,0-2.9,4.08Z"/></g></g></svg>