<svg xmlns="http://www.w3.org/2000/svg" viewBox="0 0 219.04 112.05"><defs><style>.cls-1,.cls-2{fill:#fff;}.cls-1{fill-rule:evenodd;}</style></defs><title>Asset 14</title><g id="Layer_2" data-name="Layer 2"><g id="Capa_1" data-name="Capa 1"><path class="cls-1" d="M22,9a9.32,9.32,0,0,0-1.5,1.06,8.59,8.59,0,0,0-2,2.7,14.22,14.22,0,0,0-1.29,3.71,12.08,12.08,0,0,0-.28,2l.36-.5A15,15,0,0,0,17,20.21c.17-.29.28-.49.36-.6l0,1.92.79-1.92c.06.17.1.35.15.56.49-1.13.9-2.06,1.28-2.79A20.13,20.13,0,0,1,20.7,15.3a16.33,16.33,0,0,1,1.22-1.74c.4-.5.92-1.1,1.54-1.75a3.3,3.3,0,0,1,.81-.46c.28-.1.63-.21,1.07-.32l1.47-.36c.67-.15,1.21-.31,1.63-.4a12.84,12.84,0,0,0,3-1.17A3,3,0,0,0,33,7.15a16.94,16.94,0,0,1-2.65.38c-.49,0-1.21,0-2.2,0a18.93,18.93,0,0,0-2,.07A9.12,9.12,0,0,0,24,8.11,11.21,11.21,0,0,0,22,9Zm-3.89,1.36-.4.6a10.33,10.33,0,0,1,1.68-1c.54-.29,1.86-1,4-2.06a10,10,0,0,0,3.9-3.67,10.87,10.87,0,0,0,.86-1.64,8.91,8.91,0,0,0,.32-.86,2.13,2.13,0,0,0,0-.5,3.67,3.67,0,0,0,0-.69,1,1,0,0,0-.14-.5c-.08-.08-.18,0-.28.13A16.34,16.34,0,0,1,25.36,3,19.37,19.37,0,0,1,21.72,5.4,20.7,20.7,0,0,0,17.62,8a16.33,16.33,0,0,0-2.93,3.2,2.36,2.36,0,0,0-.29.69.69.69,0,0,1,.51-.1l-.32.64L15.1,12a1.31,1.31,0,0,1,.47-.28l-.13.44a8,8,0,0,1,1.29-1l-.18.44a5.57,5.57,0,0,1,.71-.61l.81-.6Zm.15-9.2a2.29,2.29,0,0,0-.4.88,1.88,1.88,0,0,0,0,1,2.5,2.5,0,0,0,.42.92,2.65,2.65,0,0,0,.78.68,3.38,3.38,0,0,0,1,.38,3,3,0,0,0,2.15-.38A2.75,2.75,0,0,0,22.91,4a2.18,2.18,0,0,0,.4-.88,2,2,0,0,0,0-1,2.26,2.26,0,0,0-.42-.93,3.08,3.08,0,0,0-.78-.68,3.4,3.4,0,0,0-1-.39A3.07,3.07,0,0,0,20,.14a3,3,0,0,0-1,.38,2.61,2.61,0,0,0-.76.69Z"/><path class="cls-2" d="M4,19.36a6.11,6.11,0,0,1,4.76-2,5.87,5.87,0,0,1,3.41,1,5.44,5.44,0,0,1,2.07,2.71h.47l-.22-3.5h-.36c-.07.1-.22.14-.44.15-.07,0-.62-.16-1.69-.48a11.3,11.3,0,0,0-3.39-.49,8.7,8.7,0,0,0-6.21,2.28A7.46,7.46,0,0,0,0,24.84a7.16,7.16,0,0,0,2.39,5.54,8.59,8.59,0,0,0,6,2.17,13.88,13.88,0,0,0,2.93-.34,9.67,9.67,0,0,1,2-.33h.51a12.05,12.05,0,0,0,.78-1.44,15.39,15.39,0,0,0,.75-2.07h-.45c-.1.18-.19.34-.3.52a6.3,6.3,0,0,1-5.58,3,6.27,6.27,0,0,1-4.79-2.17,7.68,7.68,0,0,1-2-5.4,7.14,7.14,0,0,1,1.77-5Z"/><path class="cls-2" d="M45.16,24.1a.77.77,0,0,1,.64.8V35.52c0,.18,0,.34,0,.48h0v.48h0a1.6,1.6,0,0,1-.34.93,1.64,1.64,0,0,1-1.25.36H44v.49h5.68v-.49H49a1.82,1.82,0,0,1-1.17-.32,1.44,1.44,0,0,1-.44-1v-1h0V31.83l.45.16a6.26,6.26,0,0,0,1.74.33A5.1,5.1,0,0,0,51.45,32a5.33,5.33,0,0,0,1.74-1.25,5.43,5.43,0,0,0,1.52-3.81,4.86,4.86,0,0,0-1.07-3.13,3.13,3.13,0,0,0-2.5-1.36,6.88,6.88,0,0,0-3.73,1.76V21.92h-.55l-2.51,1.54v.45l.8.19ZM50,23.61a2.68,2.68,0,0,1,2,1A4.92,4.92,0,0,1,53.1,28a3.92,3.92,0,0,1-.81,2.52,2.47,2.47,0,0,1-2,1,4.39,4.39,0,0,1-2.85-1.28V24.77A4.08,4.08,0,0,1,50,23.61Z"/><path class="cls-2" d="M43.18,26c0-2.41-.8-3.63-2.41-3.62-.78,0-2.21.64-4.25,1.93a2.14,2.14,0,0,0-2.29-1.93,2.87,2.87,0,0,0-.93.12,10.93,10.93,0,0,0-3.36,1.81V22.36h-.36l-2.91,1v.41l.95.11a.78.78,0,0,1,.63.41,2.75,2.75,0,0,1,.08.84v4.72A2.31,2.31,0,0,1,28,31.27a1.76,1.76,0,0,1-1.37.43v.47h5V31.7a2.44,2.44,0,0,1-1.29-.22c-.27-.21-.4-.62-.4-1.28V24.7a6.75,6.75,0,0,1,3.22-1.38h.14a1.69,1.69,0,0,1,1.08.45,2.17,2.17,0,0,1,.58,1.6v4.47a2.07,2.07,0,0,1-.43,1.44,1.83,1.83,0,0,1-1.23.41H33.1v.47h5V31.7a1.71,1.71,0,0,1-1.19-.3,1.68,1.68,0,0,1-.32-1.19V24.66a6.57,6.57,0,0,1,3.21-1.34c1.21,0,1.8.9,1.8,2.74v1.88c0,2-.11,3.15-.34,3.4A1.82,1.82,0,0,1,40,31.7h-.22v.47h5.42V31.7h-.78c-.88,0-1.29-.37-1.26-1.08.05-1.32.07-2.87.07-4.64Z"/><path class="cls-2" d="M25,23.81a5,5,0,0,0-3.68-1.45,5.16,5.16,0,0,0-3.57,1.3,4.79,4.79,0,0,0-1.65,3.8A4.68,4.68,0,0,0,17.62,31a5.29,5.29,0,0,0,3.77,1.43A5,5,0,0,0,25,31a4.92,4.92,0,0,0,1.49-3.58A4.83,4.83,0,0,0,25,23.81Zm-1.41.62A6,6,0,0,1,24.7,28a4.23,4.23,0,0,1-1,2.84,2.68,2.68,0,0,1-2.06,1A3.17,3.17,0,0,1,19,30.38a6.22,6.22,0,0,1-1.08-3.74A3.78,3.78,0,0,1,18.84,24,2.69,2.69,0,0,1,21,22.92a3.19,3.19,0,0,1,2.61,1.51Z"/><path class="cls-2" d="M105.47,32.16V31.7h-.52c-.92,0-1.37-.32-1.34-1s.07-1,.1-1.52c.07-.88.1-1.95.1-3.24,0-2.4-.85-3.59-2.58-3.59a4.33,4.33,0,0,0-1.89.56,21.62,21.62,0,0,0-2.26,1.3V22.39h-.37l-2.78,1v.4l.84.16a.76.76,0,0,1,.64.41,2.61,2.61,0,0,1,.07.77v5.06c0,1-.54,1.51-1.6,1.51v.47h4.83V31.7a1.8,1.8,0,0,1-1.29-.33,1.86,1.86,0,0,1-.33-1.32v-5.2a7.12,7.12,0,0,1,3.22-1.54c1.26,0,1.89.84,1.89,2.52,0,3.26-.15,5-.47,5.38a2,2,0,0,1-1.41.48v.47Z"/><path class="cls-2" d="M92.42,23.94l-.12-.12a5,5,0,0,0-3.69-1.45,5.08,5.08,0,0,0-3.55,1.3,4.77,4.77,0,0,0-1.67,3.8A4.7,4.7,0,0,0,84.91,31,5.29,5.29,0,0,0,86.3,32a5.82,5.82,0,0,0,2.37.48,6.8,6.8,0,0,0,.77,0A5,5,0,0,0,92.29,31l.12-.14a4.81,4.81,0,0,0,1.34-3.44,4.76,4.76,0,0,0-1.34-3.48Zm-4.15-1a3.2,3.2,0,0,1,2.61,1.51A6,6,0,0,1,92,28a4.23,4.23,0,0,1-1,2.84,2.71,2.71,0,0,1-2,1,3.17,3.17,0,0,1-2.65-1.49,6.32,6.32,0,0,1-1.08-3.74A3.86,3.86,0,0,1,86.13,24a2.69,2.69,0,0,1,2.13-1.1Z"/><path class="cls-2" d="M81.71,22.24h-.37l-3.11,1.08v.37l1.12.22a.9.9,0,0,1,.69.38,3.4,3.4,0,0,1,.05.81v4.84a1.77,1.77,0,0,1-.44,1.36,2.27,2.27,0,0,1-1.54.4v.47h5.33V31.7c-1.17,0-1.74-.47-1.74-1.37V22.24Z"/><path class="cls-2" d="M76.66,24.94l-.06-2.21a5.1,5.1,0,0,0-1.93-.37,3.06,3.06,0,0,0-2.21.74A2.38,2.38,0,0,0,71.58,25a2.25,2.25,0,0,0,.56,1.51,8.42,8.42,0,0,0,1.4,1.07,10.25,10.25,0,0,1,1.66,1.32A2.17,2.17,0,0,1,76,30.39a1.51,1.51,0,0,1-.49,1.14,1.73,1.73,0,0,1-.82.44l-.38,0-.38,0a2.12,2.12,0,0,1-1.06-.58A3,3,0,0,1,72,29.72h-.4l.29,2.73h.34c.14-.22.26-.33.4-.32a3.75,3.75,0,0,1,.8.15,3.34,3.34,0,0,0,.93.16A3.27,3.27,0,0,0,76.1,32l.37-.3a2.59,2.59,0,0,0,.86-2,2.91,2.91,0,0,0-1.15-2.24c-.71-.51-1.45-1-2.18-1.51a2.15,2.15,0,0,1-1.14-1.66,1.19,1.19,0,0,1,.44-1,1.43,1.43,0,0,1,1-.4,1.7,1.7,0,0,1,1.25.53,2.75,2.75,0,0,1,.67,1.48Z"/><path class="cls-2" d="M69.84,24.94l-.07-2.21a5,5,0,0,0-1.92-.37,3.16,3.16,0,0,0-2.22.74A2.45,2.45,0,0,0,64.78,25a2.18,2.18,0,0,0,.55,1.51,7.58,7.58,0,0,0,1.41,1.07,10.1,10.1,0,0,1,1.65,1.32,2.14,2.14,0,0,1,.78,1.45,1.51,1.51,0,0,1-.49,1.14,1.71,1.71,0,0,1-.84.44,3.47,3.47,0,0,1-.4,0l-.37,0A2.06,2.06,0,0,1,66,31.4a3,3,0,0,1-.84-1.67h-.4L65,32.45h.34c.14-.22.29-.33.43-.32a4.08,4.08,0,0,1,.8.15,3.26,3.26,0,0,0,.93.16A3.23,3.23,0,0,0,69.28,32a2.88,2.88,0,0,0,.38-.3,2.62,2.62,0,0,0,.85-2,2.91,2.91,0,0,0-1.15-2.24L67.18,26A2.12,2.12,0,0,1,66,24.29a1.22,1.22,0,0,1,.43-1,1.44,1.44,0,0,1,1-.4,1.7,1.7,0,0,1,1.25.53,2.55,2.55,0,0,1,.66,1.48Z"/><path class="cls-2" d="M62.79,31.3a.51.51,0,0,1-.53-.44,12.77,12.77,0,0,1-.08-1.92V25.7a4.13,4.13,0,0,0-.36-2.08,2.93,2.93,0,0,0-2.54-1.26,3.6,3.6,0,0,0-2.35,1c-.81.7-1.21,1.29-1.21,1.77a.92.92,0,0,0,.07.33l1.65-.8a1.08,1.08,0,0,1-.14-.45,1.12,1.12,0,0,1,.45-.82,1.52,1.52,0,0,1,1-.37,1.64,1.64,0,0,1,1.34.69,2.49,2.49,0,0,1,.41,1.55V27.2a8.12,8.12,0,0,1-2.13.92,6.24,6.24,0,0,0-2,.77,1.82,1.82,0,0,0-.84,1.58,1.93,1.93,0,0,0,.59,1.45.14.14,0,0,1,.07.06,2.68,2.68,0,0,0,2.59.26c.15-.07.3-.16.48-.26.36-.25.78-.58,1.29-1a2.59,2.59,0,0,0,.25,1,1,1,0,0,0,.86.48A2.71,2.71,0,0,0,63,32a13,13,0,0,0,1.14-.84L64,30.76a2,2,0,0,1-1.19.53Zm-3.63-3a9.77,9.77,0,0,0,1.4-.66v2.87a5.07,5.07,0,0,1-2,1.07,1.39,1.39,0,0,1-1-.4,1.32,1.32,0,0,1-.44-1,1.27,1.27,0,0,1,.47-1.07,8,8,0,0,1,1.58-.78Z"/><path class="cls-1" d="M104.88,22v.36h.1q.32,0,.32-.19a.15.15,0,0,0-.1-.15.65.65,0,0,0-.22,0Zm-.3,1.12V21.83h.33a1.83,1.83,0,0,1,.48,0,.31.31,0,0,1,.24.32.28.28,0,0,1-.08.21.37.37,0,0,1-.23.1h0a.2.2,0,0,1,.16.14l.24.52h-.34l-.18-.42a.25.25,0,0,0-.07-.11.24.24,0,0,0-.14,0h-.1v.55Z"/><path class="cls-1" d="M104.15,22.51a1,1,0,1,1,1,1,1,1,0,0,1-1-1Zm-.37,0a1.33,1.33,0,1,1,1.33,1.33,1.33,1.33,0,0,1-1.33-1.33Z"/><path class="cls-2" d="M25.15,70.35H6.08a6.35,6.35,0,0,0,2.21,4,6.93,6.93,0,0,0,4.58,1.49,7.92,7.92,0,0,0,5.72-2.33l5,2.35A11.81,11.81,0,0,1,19.1,79.8a14,14,0,0,1-6.2,1.27,12.25,12.25,0,0,1-9.07-3.51,12,12,0,0,1-3.5-8.8,12.36,12.36,0,0,1,3.49-9,11.72,11.72,0,0,1,8.75-3.58,12.16,12.16,0,0,1,9.09,3.58,12.93,12.93,0,0,1,3.5,9.45Zm-5.94-4.68a6,6,0,0,0-2.32-3.22,6.73,6.73,0,0,0-4-1.24,7.11,7.11,0,0,0-4.36,1.39,7.76,7.76,0,0,0-2.18,3.07Z"/><path class="cls-2" d="M30.78,65.91h11v5.52h-11Z"/><path class="cls-2" d="M48,47.67h5.94v32.8H48Z"/><path class="cls-2" d="M83,70.35H64a6.35,6.35,0,0,0,2.21,4,6.93,6.93,0,0,0,4.58,1.49,7.92,7.92,0,0,0,5.72-2.33l5,2.35A11.81,11.81,0,0,1,77,79.8a14,14,0,0,1-6.2,1.27,12.25,12.25,0,0,1-9.07-3.51,12,12,0,0,1-3.5-8.8,12.36,12.36,0,0,1,3.49-9,11.72,11.72,0,0,1,8.75-3.58,12.16,12.16,0,0,1,9.09,3.58,12.93,12.93,0,0,1,3.5,9.45Zm-5.94-4.68a6,6,0,0,0-2.32-3.22,6.73,6.73,0,0,0-4-1.24,7.11,7.11,0,0,0-4.36,1.39,7.76,7.76,0,0,0-2.18,3.07Z"/><path class="cls-2" d="M105.32,56.8h5.94V80.46h-5.94V78a11.64,11.64,0,0,1-3.49,2.38,9.76,9.76,0,0,1-3.79.73,10.53,10.53,0,0,1-7.93-3.56,12.4,12.4,0,0,1-3.35-8.84,12.71,12.71,0,0,1,3.24-9,10.31,10.31,0,0,1,7.86-3.5,10,10,0,0,1,4,.8,10.91,10.91,0,0,1,3.45,2.41Zm-6.24,4.87a6,6,0,0,0-4.57,1.95,7,7,0,0,0-1.82,5,7.09,7.09,0,0,0,1.85,5,6,6,0,0,0,4.56,2,6.12,6.12,0,0,0,4.64-1.95,7.12,7.12,0,0,0,1.84-5.1,6.91,6.91,0,0,0-1.84-5A6.19,6.19,0,0,0,99.07,61.67Z"/><path class="cls-2" d="M115.86,56.8H121v3a6.36,6.36,0,0,1,2.2-2.68,5.3,5.3,0,0,1,3-.91,5.55,5.55,0,0,1,2.41.61l-1.85,5.11a4.09,4.09,0,0,0-1.72-.52,2.72,2.72,0,0,0-2.32,1.7q-.95,1.7-.95,6.66l0,1.15v9.57h-5.89Z"/><path class="cls-2" d="M131.5,56.8h5.94v2.42a14.23,14.23,0,0,1,3.66-2.37,8.85,8.85,0,0,1,3.36-.67,8.12,8.12,0,0,1,6,2.46q2.06,2.09,2.06,6.18V80.46h-5.87V70.1a26.22,26.22,0,0,0-.38-5.63,3.86,3.86,0,0,0-1.32-2.12,3.71,3.71,0,0,0-2.33-.73,4.37,4.37,0,0,0-3.09,1.21,6.44,6.44,0,0,0-1.79,3.33,26.86,26.86,0,0,0-.26,4.8v9.49H131.5Z"/><path class="cls-2" d="M160.55,47.06a3.63,3.63,0,0,1,2.68,1.13,3.76,3.76,0,0,1,1.12,2.74,3.71,3.71,0,0,1-1.11,2.71,3.59,3.59,0,0,1-2.65,1.12,3.64,3.64,0,0,1-2.7-1.14,3.82,3.82,0,0,1-1.12-2.77,3.78,3.78,0,0,1,3.77-3.78Zm-3,9.74h5.94V80.46h-5.94Z"/><path class="cls-2" d="M168.91,56.8h5.94v2.42a14.23,14.23,0,0,1,3.66-2.37,8.85,8.85,0,0,1,3.36-.67,8.12,8.12,0,0,1,6,2.46q2.06,2.09,2.06,6.18V80.46H184V70.1a26.22,26.22,0,0,0-.38-5.63,3.86,3.86,0,0,0-1.32-2.12,3.71,3.71,0,0,0-2.33-.73,4.37,4.37,0,0,0-3.09,1.21,6.44,6.44,0,0,0-1.79,3.33,26.86,26.86,0,0,0-.26,4.8v9.49h-5.94Z"/><path class="cls-2" d="M213.12,56.8H219V77.07q0,6-2.41,8.83-3.24,3.83-9.77,3.83a17.1,17.1,0,0,1-5.85-.87,10.2,10.2,0,0,1-6.42-6.66h6.55a5.4,5.4,0,0,0,2.24,1.51,9.27,9.27,0,0,0,3.24.51,8.54,8.54,0,0,0,3.85-.74,4.47,4.47,0,0,0,2.06-1.91,9.69,9.69,0,0,0,.6-4,9.84,9.84,0,0,1-3.28,2.25,10.44,10.44,0,0,1-3.89.69,10.7,10.7,0,0,1-8-3.44,12.08,12.08,0,0,1-3.28-8.7,12.1,12.1,0,0,1,3.48-9,10.38,10.38,0,0,1,7.53-3.09,10,10,0,0,1,3.86.75,12.24,12.24,0,0,1,3.64,2.47ZM207,61.74a6.18,6.18,0,0,0-4.63,1.88,6.52,6.52,0,0,0-1.83,4.73,6.6,6.6,0,0,0,1.87,4.85,6.33,6.33,0,0,0,4.7,1.89,6.08,6.08,0,0,0,4.56-1.85,6.67,6.67,0,0,0,1.79-4.85,6.59,6.59,0,0,0-1.81-4.81A6.22,6.22,0,0,0,207,61.74Z"/><polygon class="cls-2" points="110.33 104.95 98.59 101.76 98.59 108.92 98.84 108.92 110.33 112.05 121.68 108.92 121.68 101.85 110.33 104.95"/><polygon class="cls-2" points="110.33 104.34 131.77 98.48 110.01 90.83 87.76 98.21 110.33 104.34"/><path class="cls-2" d="M94,104.4a1.21,1.21,0,0,0-.47-2.15v-1.87l-.42-.11v2a1.21,1.21,0,0,0-.52,2.2,1.26,1.26,0,0,0-.53,1v2.37h2.53v-2.37A1.26,1.26,0,0,0,94,104.4Z"/><rect class="cls-2" x="43.95" y="99.9" width="36.83" height="0.74"/><rect class="cls-2" x="138.43" y="99.9" width="36.83" height="0.74"/></g></g></svg>