<svg xmlns="http://www.w3.org/2000/svg" viewBox="0 0 549.52 281.11"><defs><style>.cls-1,.cls-2{fill:#fff;}.cls-1{fill-rule:evenodd;}.cls-3{fill:#e4b212;}</style></defs><title>Asset 9</title><g id="Layer_2" data-name="Layer 2"><g id="Capa_1" data-name="Capa 1"><path class="cls-1" d="M55.11,22.69a23.39,23.39,0,0,0-3.77,2.65,21.54,21.54,0,0,0-5.12,6.76A35.68,35.68,0,0,0,43,41.41a30.31,30.31,0,0,0-.7,5.05l.91-1.25a37.66,37.66,0,0,0-.49,5.51c.42-.73.7-1.22.91-1.5L43.5,54l2-4.81c.14.42.24.87.38,1.39,1.22-2.82,2.27-5.16,3.21-7a50.5,50.5,0,0,1,2.86-5.23A41,41,0,0,1,55,34c1-1.25,2.3-2.75,3.87-4.39a8.27,8.27,0,0,1,2-1.15c.7-.24,1.57-.52,2.68-.8.52-.14,1.78-.42,3.69-.91,1.67-.38,3-.77,4.08-1a32.22,32.22,0,0,0,7.49-2.93c2.27-1.39,3.59-3,3.9-4.88a42.49,42.49,0,0,1-6.66.94c-1.22.07-3,.1-5.51.1a47.48,47.48,0,0,0-5,.17,22.87,22.87,0,0,0-5.3,1.18,28.13,28.13,0,0,0-5.16,2.34ZM45.35,26.1l-1,1.5A25.92,25.92,0,0,1,48.55,25c1.36-.73,4.67-2.47,9.93-5.16a25,25,0,0,0,9.79-9.2,27.28,27.28,0,0,0,2.16-4.11,22.34,22.34,0,0,0,.8-2.16,5.35,5.35,0,0,0,.1-1.25,9.2,9.2,0,0,0-.07-1.74A2.58,2.58,0,0,0,70.93.1c-.21-.21-.45-.1-.7.31a41,41,0,0,1-6.62,7.14,48.6,48.6,0,0,1-9.13,6A51.93,51.93,0,0,0,44.2,20a41,41,0,0,0-7.35,8,5.92,5.92,0,0,0-.73,1.74,1.74,1.74,0,0,1,1.29-.24l-.8,1.6,1.29-1a3.28,3.28,0,0,1,1.19-.7l-.31,1.11A20.11,20.11,0,0,1,42,28l-.45,1.11a14,14,0,0,1,1.78-1.53l2-1.5ZM45.73,3a5.74,5.74,0,0,0-1,2.2,4.71,4.71,0,0,0,0,2.51,6.26,6.26,0,0,0,1,2.3,6.65,6.65,0,0,0,2,1.71,8.48,8.48,0,0,0,2.47.94,7.5,7.5,0,0,0,5.4-.94A6.9,6.9,0,0,0,57.48,10a5.47,5.47,0,0,0,1-2.2,5,5,0,0,0,0-2.47,5.68,5.68,0,0,0-1-2.34,7.74,7.74,0,0,0-2-1.71A8.53,8.53,0,0,0,53,.35a7.69,7.69,0,0,0-2.82,0,7.4,7.4,0,0,0-2.58.94A6.56,6.56,0,0,0,45.73,3Z"/><path class="cls-2" d="M10.15,48.56c3-3.27,6.95-4.92,11.94-4.92a14.72,14.72,0,0,1,8.57,2.55A13.65,13.65,0,0,1,35.85,53H37l-.55-8.77h-.89c-.17.24-.55.34-1.1.38-.17,0-1.55-.41-4.23-1.2a28.35,28.35,0,0,0-8.5-1.24q-9.5,0-15.59,5.71A18.72,18.72,0,0,0,0,62.32a18,18,0,0,0,6,13.9c4,3.61,9,5.44,15.14,5.44a34.82,34.82,0,0,0,7.36-.86,24.27,24.27,0,0,1,5-.83c.41,0,.86,0,1.27,0a30.24,30.24,0,0,0,2-3.61,38.62,38.62,0,0,0,1.89-5.19H37.5c-.24.45-.48.86-.76,1.31a15.81,15.81,0,0,1-14,7.64,15.72,15.72,0,0,1-12-5.44,19.26,19.26,0,0,1-5-13.55q0-7.74,4.44-12.59Z"/><path class="cls-2" d="M113.29,60.46a1.92,1.92,0,0,1,1.62,2V89.12c0,.45,0,.86,0,1.2h0v1.2h0a4,4,0,0,1-.86,2.34c-.55.62-1.58.89-3.13.89h-.62V96h14.24V94.76H123A4.56,4.56,0,0,1,120.1,94a3.61,3.61,0,0,1-1.1-2.44V89.12h0V79.86l1.14.41a15.71,15.71,0,0,0,4.37.83,12.8,12.8,0,0,0,4.61-.89,13.37,13.37,0,0,0,4.37-3.13,13.62,13.62,0,0,0,3.82-9.56,12.19,12.19,0,0,0-2.68-7.84,7.85,7.85,0,0,0-6.26-3.41c-2.41,0-5.54,1.48-9.36,4.4V55h-1.38l-6.3,3.85V60l2,.48Zm12.08-1.24a6.72,6.72,0,0,1,5.09,2.48c1.82,2,2.75,4.88,2.75,8.53a9.84,9.84,0,0,1-2,6.33,6.2,6.2,0,0,1-5.06,2.61c-2.34,0-4.71-1.07-7.16-3.2V62.15c2.31-2,4.44-2.92,6.4-2.92Z"/><path class="cls-2" d="M108.34,65.17c0-6.05-2-9.12-6.05-9.08-2,0-5.54,1.62-10.67,4.85C91,57.71,89,56.09,85.87,56.09a7.19,7.19,0,0,0-2.34.31,27.42,27.42,0,0,0-8.43,4.54V56.09h-.89L66.92,58.6v1l2.37.28a2,2,0,0,1,1.58,1,6.9,6.9,0,0,1,.21,2.1V74.88a5.8,5.8,0,0,1-.89,3.58c-.62.72-1.79,1.07-3.44,1.07v1.17H79.34V79.52A6.11,6.11,0,0,1,76.1,79c-.69-.52-1-1.55-1-3.2V62c3.54-2.34,6.23-3.47,8.08-3.47h.34a4.24,4.24,0,0,1,2.72,1.13,5.44,5.44,0,0,1,1.45,4V74.88a5.19,5.19,0,0,1-1.07,3.61,4.6,4.6,0,0,1-3.1,1h-.48v1.17H95.51V79.52a4.3,4.3,0,0,1-3-.76,4.22,4.22,0,0,1-.79-3V61.87c3.44-2.27,6.12-3.37,8.05-3.37,3,0,4.51,2.27,4.51,6.88v4.71c0,5.09-.28,7.91-.86,8.53a4.58,4.58,0,0,1-3.17.9H99.7v1.17h13.59V79.52h-2c-2.2,0-3.23-.93-3.17-2.72.14-3.3.17-7.19.17-11.63Z"/><path class="cls-2" d="M62.72,59.74a12.42,12.42,0,0,0-9.22-3.65,13,13,0,0,0-8.95,3.27,12,12,0,0,0-4.13,9.53,11.73,11.73,0,0,0,3.78,8.94,13.26,13.26,0,0,0,9.46,3.58,12.48,12.48,0,0,0,9.08-3.65,12.34,12.34,0,0,0,3.75-9,12.12,12.12,0,0,0-3.78-9Zm-3.54,1.55a15.16,15.16,0,0,1,2.79,9,10.61,10.61,0,0,1-2.48,7.12A6.71,6.71,0,0,1,54.32,80a8,8,0,0,1-6.64-3.75A15.61,15.61,0,0,1,45,66.83a9.49,9.49,0,0,1,2.31-6.57,6.76,6.76,0,0,1,5.37-2.75c2.51,0,4.71,1.27,6.54,3.78Z"/><path class="cls-2" d="M264.6,80.69V79.52h-1.31c-2.3,0-3.44-.79-3.37-2.41.07-1.27.17-2.58.24-3.82.17-2.2.24-4.89.24-8.12,0-6-2.13-9-6.47-9a10.86,10.86,0,0,0-4.75,1.41,54.25,54.25,0,0,0-5.68,3.27V56.16h-.93l-7,2.51v1l2.1.41a1.91,1.91,0,0,1,1.62,1,6.56,6.56,0,0,1,.17,1.93V75.74c0,2.55-1.34,3.78-4,3.78v1.17h12.11V79.52c-1.65,0-2.72-.28-3.23-.83s-.83-1.62-.83-3.3v-13c3.75-2.58,6.43-3.85,8.09-3.85,3.16,0,4.75,2.1,4.75,6.33,0,8.19-.38,12.66-1.17,13.48a4.94,4.94,0,0,1-3.54,1.2v1.17Z"/><path class="cls-2" d="M231.85,60l-.31-.31a12.5,12.5,0,0,0-9.26-3.65,12.74,12.74,0,0,0-8.91,3.27,12,12,0,0,0-4.2,9.53A11.79,11.79,0,0,0,213,77.83a13.26,13.26,0,0,0,3.48,2.37,14.6,14.6,0,0,0,6,1.2,17.06,17.06,0,0,0,1.93-.1,12.55,12.55,0,0,0,7.16-3.54,3.09,3.09,0,0,1,.31-.34,12.08,12.08,0,0,0,3.37-8.63A12,12,0,0,0,231.85,60ZM221.43,57.5c2.51,0,4.68,1.27,6.54,3.78a15.15,15.15,0,0,1,2.75,9,10.62,10.62,0,0,1-2.48,7.12A6.81,6.81,0,0,1,223.11,80a8,8,0,0,1-6.64-3.75,15.85,15.85,0,0,1-2.72-9.39,9.68,9.68,0,0,1,2.34-6.57,6.75,6.75,0,0,1,5.33-2.75Z"/><path class="cls-2" d="M205,55.78h-.93l-7.81,2.72v.93l2.82.55a2.26,2.26,0,0,1,1.72,1,8.53,8.53,0,0,1,.14,2V75.12a4.44,4.44,0,0,1-1.1,3.41c-.76.69-2,1-3.85,1v1.17h13.38V79.52c-2.92,0-4.37-1.17-4.37-3.44V55.78Z"/><path class="cls-2" d="M192.32,62.56,192.18,57a12.79,12.79,0,0,0-4.85-.93A7.67,7.67,0,0,0,181.79,58a6,6,0,0,0-2.2,4.89A5.65,5.65,0,0,0,181,66.62a21.12,21.12,0,0,0,3.51,2.68,25.71,25.71,0,0,1,4.16,3.3,5.46,5.46,0,0,1,1.93,3.65,3.78,3.78,0,0,1-1.24,2.86,4.34,4.34,0,0,1-2.06,1.1,8.63,8.63,0,0,1-1,.07,8.1,8.1,0,0,1-1-.07,5.32,5.32,0,0,1-2.65-1.45,7.52,7.52,0,0,1-2.13-4.2h-1l.72,6.85h.86c.34-.55.65-.83,1-.79a9.41,9.41,0,0,1,2,.38,8.37,8.37,0,0,0,2.34.41,8.21,8.21,0,0,0,4.4-1.2c.31-.24.62-.48.93-.76a6.49,6.49,0,0,0,2.17-5,7.31,7.31,0,0,0-2.89-5.61c-1.79-1.27-3.65-2.51-5.47-3.78s-2.85-2.72-2.85-4.16a3,3,0,0,1,1.1-2.44,3.58,3.58,0,0,1,2.58-1,4.27,4.27,0,0,1,3.13,1.34,6.9,6.9,0,0,1,1.69,3.72Z"/><path class="cls-2" d="M175.22,62.56,175,57a12.49,12.49,0,0,0-4.82-.93A7.93,7.93,0,0,0,164.66,58a6.13,6.13,0,0,0-2.13,4.89,5.46,5.46,0,0,0,1.38,3.78,19,19,0,0,0,3.54,2.68,25.34,25.34,0,0,1,4.13,3.3,5.37,5.37,0,0,1,2,3.65,3.78,3.78,0,0,1-1.24,2.86,4.29,4.29,0,0,1-2.1,1.1,6.83,6.83,0,0,1-1.93,0,5.18,5.18,0,0,1-2.65-1.45,7.49,7.49,0,0,1-2.1-4.2h-1l.65,6.85H164c.34-.55.72-.83,1.07-.79a10.23,10.23,0,0,1,2,.38,8.18,8.18,0,0,0,2.34.41,8.09,8.09,0,0,0,4.37-1.2,7.23,7.23,0,0,0,1-.76,6.58,6.58,0,0,0,2.13-5A7.31,7.31,0,0,0,174,68.89c-1.82-1.27-3.65-2.51-5.47-3.78s-2.86-2.72-2.86-4.16a3.06,3.06,0,0,1,1.07-2.44,3.61,3.61,0,0,1,2.61-1,4.27,4.27,0,0,1,3.13,1.34,6.41,6.41,0,0,1,1.65,3.72Z"/><path class="cls-2" d="M157.54,78.52a1.28,1.28,0,0,1-1.34-1.1,32,32,0,0,1-.21-4.82V64.49c0-2.61-.31-4.37-.89-5.23a7.35,7.35,0,0,0-6.36-3.16q-2.79-.05-5.88,2.58c-2,1.75-3,3.23-3,4.44a2.31,2.31,0,0,0,.17.83l4.13-2a2.7,2.7,0,0,1-.34-1.14,2.82,2.82,0,0,1,1.14-2.06,3.82,3.82,0,0,1,2.61-.93,4.11,4.11,0,0,1,3.37,1.72,6.25,6.25,0,0,1,1,3.89v4.82a20.36,20.36,0,0,1-5.33,2.3,15.65,15.65,0,0,0-5.06,1.93,4.56,4.56,0,0,0-2.1,4,4.84,4.84,0,0,0,1.48,3.65.34.34,0,0,1,.17.14,6.72,6.72,0,0,0,6.5.65c.38-.17.76-.41,1.2-.65.9-.62,2-1.45,3.23-2.48a6.49,6.49,0,0,0,.62,2.48,2.39,2.39,0,0,0,2.17,1.2,6.79,6.79,0,0,0,3.16-1.2,32.69,32.69,0,0,0,2.86-2.1l-.31-.93a5,5,0,0,1-3,1.34Zm-9.12-7.43a24.5,24.5,0,0,0,3.51-1.65v7.19c-2.55,1.79-4.2,2.68-5.06,2.68a3.49,3.49,0,0,1-2.48-1,3.31,3.31,0,0,1-1.1-2.58,3.19,3.19,0,0,1,1.17-2.68,20.14,20.14,0,0,1,4-2Z"/><path class="cls-1" d="M263.12,55.29v.9h.25q.81,0,.81-.47a.37.37,0,0,0-.26-.37,1.63,1.63,0,0,0-.55-.07Zm-.76,2.82V54.77h.83a4.58,4.58,0,0,1,1.21.1.77.77,0,0,1,.59.8.71.71,0,0,1-.21.52.93.93,0,0,1-.57.26h0a.51.51,0,0,1,.4.35l.61,1.31h-.85l-.46-1a.63.63,0,0,0-.19-.26.59.59,0,0,0-.34-.08h-.25v1.39Z"/><path class="cls-1" d="M261.28,56.47a2.41,2.41,0,1,1,2.41,2.41,2.41,2.41,0,0,1-2.41-2.41Zm-.93,0a3.34,3.34,0,1,1,3.34,3.34,3.34,3.34,0,0,1-3.34-3.34Z"/><path class="cls-3" d="M63.09,176.49H15.24a15.93,15.93,0,0,0,5.54,10.07,17.37,17.37,0,0,0,11.49,3.74,19.86,19.86,0,0,0,14.35-5.84l12.55,5.89a29.63,29.63,0,0,1-11.24,9.85,35.15,35.15,0,0,1-15.55,3.19q-14,0-22.75-8.81T.84,172.51q0-13.59,8.76-22.56t22-9q14,0,22.81,9t8.78,23.71ZM48.2,164.76a15,15,0,0,0-5.82-8.08,16.88,16.88,0,0,0-10.08-3.11,17.83,17.83,0,0,0-10.93,3.49q-3,2.18-5.47,7.69Z"/><path class="cls-2" d="M77.23,165.36h27.72v13.86H77.23Z"/><path class="cls-2" d="M120.44,119.58h14.9v82.28h-14.9Z"/><path class="cls-2" d="M208.34,176.49H160.49A15.93,15.93,0,0,0,166,186.56a17.37,17.37,0,0,0,11.49,3.74,19.86,19.86,0,0,0,14.35-5.84l12.55,5.89a29.63,29.63,0,0,1-11.24,9.85,35.15,35.15,0,0,1-15.55,3.19q-14,0-22.75-8.81t-8.78-22.07q0-13.59,8.76-22.56t22-9q14,0,22.81,9t8.78,23.71Zm-14.9-11.73a15,15,0,0,0-5.82-8.08,16.88,16.88,0,0,0-10.08-3.11,17.83,17.83,0,0,0-10.93,3.49q-3,2.18-5.47,7.69Z"/><path class="cls-2" d="M264.21,142.5h14.9v59.36h-14.9v-6.27a29.21,29.21,0,0,1-8.75,6,24.48,24.48,0,0,1-9.51,1.83q-11.5,0-19.89-8.92t-8.39-22.18q0-13.75,8.12-22.53A25.87,25.87,0,0,1,245.52,141a25.07,25.07,0,0,1,10,2,27.38,27.38,0,0,1,8.67,6.06Zm-15.66,12.22a15.05,15.05,0,0,0-11.47,4.88,17.6,17.6,0,0,0-4.57,12.52,17.78,17.78,0,0,0,4.65,12.66,15.07,15.07,0,0,0,11.45,5,15.34,15.34,0,0,0,11.64-4.88q4.62-4.88,4.62-12.79,0-7.75-4.62-12.55A15.54,15.54,0,0,0,248.55,154.72Z"/><path class="cls-2" d="M290.68,142.5h12.77V150a16,16,0,0,1,5.51-6.71,13.3,13.3,0,0,1,7.53-2.29,13.93,13.93,0,0,1,6.06,1.53l-4.64,12.82a10.25,10.25,0,0,0-4.31-1.31q-3.44,0-5.81,4.26T305.41,175l.05,2.89v24H290.68Z"/><path class="cls-2" d="M329.91,142.5h14.9v6.08a35.7,35.7,0,0,1,9.18-5.94A22.2,22.2,0,0,1,362.4,141a20.38,20.38,0,0,1,15,6.17q5.18,5.24,5.18,15.5v39.23H367.83v-26q0-10.63-1-14.11a9.67,9.67,0,0,0-3.32-5.31,9.3,9.3,0,0,0-5.85-1.83,11,11,0,0,0-7.76,3,16.15,16.15,0,0,0-4.49,8.37q-.65,2.78-.65,12v23.82h-14.9Z"/><path class="cls-2" d="M402.77,118.06a9.11,9.11,0,0,1,6.72,2.84,9.42,9.42,0,0,1,2.8,6.87,9.32,9.32,0,0,1-2.78,6.79,9,9,0,0,1-6.64,2.81,9.13,9.13,0,0,1-6.77-2.86,9.58,9.58,0,0,1-2.8-7,9.49,9.49,0,0,1,9.47-9.49Zm-7.45,24.44h14.9v59.36h-14.9Z"/><path class="cls-2" d="M423.75,142.5h14.9v6.08a35.7,35.7,0,0,1,9.18-5.94,22.2,22.2,0,0,1,8.42-1.67,20.38,20.38,0,0,1,15,6.17q5.18,5.24,5.18,15.5v39.23H461.67v-26q0-10.63-1-14.11a9.67,9.67,0,0,0-3.32-5.31,9.3,9.3,0,0,0-5.85-1.83,11,11,0,0,0-7.76,3A16.15,16.15,0,0,0,439.3,166q-.65,2.78-.65,12v23.82h-14.9Z"/><path class="cls-2" d="M534.68,142.5h14.84v50.85q0,15.06-6.06,22.15-8.13,9.6-24.5,9.6a42.9,42.9,0,0,1-14.68-2.18,25.59,25.59,0,0,1-16.1-16.7h16.42a13.56,13.56,0,0,0,5.62,3.79,23.25,23.25,0,0,0,8.13,1.28,21.43,21.43,0,0,0,9.66-1.86,11.21,11.21,0,0,0,5.16-4.8q1.5-2.95,1.5-10.15a24.69,24.69,0,0,1-8.24,5.65,26.2,26.2,0,0,1-9.77,1.72,26.84,26.84,0,0,1-20.19-8.62q-8.24-8.62-8.24-21.83,0-14.13,8.73-22.7A26,26,0,0,1,515.85,141a25.12,25.12,0,0,1,9.68,1.88,30.7,30.7,0,0,1,9.14,6.19Zm-15.44,12.39a15.51,15.51,0,0,0-11.62,4.72A16.35,16.35,0,0,0,503,171.47a16.57,16.57,0,0,0,4.69,12.17,15.89,15.89,0,0,0,11.79,4.75,15.25,15.25,0,0,0,11.43-4.64q4.5-4.64,4.5-12.17t-4.53-12.06A15.61,15.61,0,0,0,519.24,154.89Z"/><polygon class="cls-2" points="276.8 263.31 247.33 255.29 247.33 273.25 247.97 273.25 276.8 281.11 305.26 273.25 305.26 255.52 276.8 263.31"/><polygon class="cls-2" points="276.8 259.77 330.58 245.06 275.98 225.87 220.18 244.38 276.8 259.77"/><path class="cls-2" d="M235.79,261.92a3,3,0,0,0-1.17-5.38v-4.7l-1.06-.29v4.94a3,3,0,0,0-1.31,5.52,3.17,3.17,0,0,0-1.33,2.58v5.94h6.35V264.6A3.17,3.17,0,0,0,235.79,261.92Z"/><rect class="cls-2" x="110.27" y="250.62" width="92.39" height="1.86"/><rect class="cls-2" x="347.29" y="250.62" width="92.39" height="1.86"/></g></g></svg>