<svg xmlns="http://www.w3.org/2000/svg" viewBox="0 0 291.71 149.23"><defs><style>.cls-1,.cls-2{fill:#0033a0;}.cls-1{fill-rule:evenodd;}.cls-3{fill:#e4b212;}.cls-4{fill:#59903a;}</style></defs><title>Asset 1</title><g id="Layer_2" data-name="Layer 2"><g id="Capa_1" data-name="Capa 1"><path class="cls-1" d="M29.25,12a12.42,12.42,0,0,0-2,1.41A11.43,11.43,0,0,0,24.53,17,18.94,18.94,0,0,0,22.81,22a16.09,16.09,0,0,0-.37,2.68l.48-.67a20,20,0,0,0-.26,2.92c.22-.39.37-.65.48-.8l-.06,2.55,1.05-2.55c.07.22.13.46.2.74.65-1.5,1.2-2.74,1.7-3.72a26.81,26.81,0,0,1,1.52-2.78,21.75,21.75,0,0,1,1.63-2.31c.54-.67,1.22-1.46,2.05-2.33a4.39,4.39,0,0,1,1.07-.61c.37-.13.83-.28,1.42-.43l2-.48c.89-.2,1.61-.41,2.16-.54a17.1,17.1,0,0,0,4-1.55,3.92,3.92,0,0,0,2.07-2.59,22.55,22.55,0,0,1-3.53.5c-.65,0-1.61.06-2.92.06a25.2,25.2,0,0,0-2.66.09A12.14,12.14,0,0,0,32,10.8,14.93,14.93,0,0,0,29.25,12Zm-5.18,1.81-.54.8a13.76,13.76,0,0,1,2.24-1.39c.72-.39,2.48-1.31,5.27-2.74a13.27,13.27,0,0,0,5.2-4.88,14.48,14.48,0,0,0,1.15-2.18,11.86,11.86,0,0,0,.43-1.15,2.84,2.84,0,0,0,.06-.67,4.89,4.89,0,0,0,0-.93,1.37,1.37,0,0,0-.18-.67c-.11-.11-.24-.06-.37.17A21.77,21.77,0,0,1,33.77,4,25.8,25.8,0,0,1,28.92,7.2a27.57,27.57,0,0,0-5.46,3.42,21.74,21.74,0,0,0-3.9,4.26,3.14,3.14,0,0,0-.39.93.93.93,0,0,1,.68-.13l-.43.85.68-.55a1.74,1.74,0,0,1,.63-.37l-.17.59a10.68,10.68,0,0,1,1.72-1.31l-.24.59a7.42,7.42,0,0,1,.94-.81l1.07-.8Zm.2-12.25a3,3,0,0,0-.54,1.17,2.5,2.5,0,0,0,0,1.33,3.32,3.32,0,0,0,.55,1.22,3.53,3.53,0,0,0,1,.91,4.5,4.5,0,0,0,1.31.5,4,4,0,0,0,2.87-.5,3.67,3.67,0,0,0,1-.91A2.91,2.91,0,0,0,31,4.16a2.63,2.63,0,0,0,0-1.31,3,3,0,0,0-.55-1.24,4.11,4.11,0,0,0-1-.91A4.53,4.53,0,0,0,28.16.18a4.08,4.08,0,0,0-1.5,0,3.93,3.93,0,0,0-1.37.5,3.48,3.48,0,0,0-1,.93Z"/><path class="cls-2" d="M5.39,25.78a8.14,8.14,0,0,1,6.34-2.61,7.81,7.81,0,0,1,4.55,1.35A7.25,7.25,0,0,1,19,28.13h.62l-.29-4.66h-.47c-.09.13-.29.18-.58.2-.09,0-.82-.22-2.25-.64a15,15,0,0,0-4.51-.66,11.59,11.59,0,0,0-8.27,3A9.94,9.94,0,0,0,0,33.08a9.54,9.54,0,0,0,3.18,7.38,11.44,11.44,0,0,0,8,2.89,18.49,18.49,0,0,0,3.91-.46,12.88,12.88,0,0,1,2.67-.44c.22,0,.46,0,.68,0a16.05,16.05,0,0,0,1-1.92,20.5,20.5,0,0,0,1-2.76h-.6c-.13.24-.26.46-.4.69a8.39,8.39,0,0,1-7.43,4.05A8.34,8.34,0,0,1,5.7,39.66,10.23,10.23,0,0,1,3,32.46a9.51,9.51,0,0,1,2.36-6.68Z"/><path class="cls-2" d="M60.14,32.1A1,1,0,0,1,61,33.16V47.31c0,.24,0,.46,0,.64h0v.64h0a2.13,2.13,0,0,1-.46,1.24,2.18,2.18,0,0,1-1.66.47h-.33V51h7.56V50.3h-.79a2.42,2.42,0,0,1-1.55-.42,1.92,1.92,0,0,1-.58-1.3V47.31h0V42.4l.6.22a8.34,8.34,0,0,0,2.32.44,6.8,6.8,0,0,0,2.45-.47,7.09,7.09,0,0,0,2.32-1.66,7.23,7.23,0,0,0,2-5.08,6.47,6.47,0,0,0-1.42-4.16,4.17,4.17,0,0,0-3.32-1.81c-1.28,0-2.94.79-5,2.34v-3h-.73l-3.34,2v.6l1.06.26Zm6.41-.66a3.57,3.57,0,0,1,2.7,1.32,6.55,6.55,0,0,1,1.46,4.53,5.22,5.22,0,0,1-1.08,3.36A3.29,3.29,0,0,1,67,42a5.85,5.85,0,0,1-3.8-1.7V33a5.43,5.43,0,0,1,3.4-1.55Z"/><path class="cls-2" d="M57.51,34.6c0-3.21-1.06-4.84-3.21-4.82-1,0-2.94.86-5.66,2.57a2.85,2.85,0,0,0-3.05-2.57,3.82,3.82,0,0,0-1.24.16,14.56,14.56,0,0,0-4.47,2.41V29.78h-.47l-3.87,1.33v.55l1.26.15a1,1,0,0,1,.84.55,3.66,3.66,0,0,1,.11,1.11v6.28a3.08,3.08,0,0,1-.47,1.9,2.35,2.35,0,0,1-1.83.57v.62h6.68v-.62a3.25,3.25,0,0,1-1.72-.29c-.37-.27-.53-.82-.53-1.7V32.9c1.88-1.24,3.31-1.84,4.29-1.84h.18a2.25,2.25,0,0,1,1.44.6,2.89,2.89,0,0,1,.77,2.14v6A2.76,2.76,0,0,1,46,41.66a2.44,2.44,0,0,1-1.64.55h-.26v.62H50.7v-.62a2.28,2.28,0,0,1-1.59-.4,2.24,2.24,0,0,1-.42-1.59V32.84A8.75,8.75,0,0,1,53,31.06c1.61,0,2.39,1.21,2.39,3.65v2.5c0,2.7-.15,4.2-.46,4.53a2.43,2.43,0,0,1-1.68.48h-.29v.62h7.21v-.62h-1c-1.17,0-1.72-.49-1.68-1.44.07-1.75.09-3.82.09-6.17Z"/><path class="cls-2" d="M33.29,31.71a6.59,6.59,0,0,0-4.89-1.94,6.87,6.87,0,0,0-4.75,1.73,6.38,6.38,0,0,0-2.19,5.06,6.23,6.23,0,0,0,2,4.75,7,7,0,0,0,5,1.9,6.63,6.63,0,0,0,4.82-1.94,6.55,6.55,0,0,0,2-4.77,6.43,6.43,0,0,0-2-4.8Zm-1.88.82a8,8,0,0,1,1.48,4.78,5.63,5.63,0,0,1-1.31,3.78,3.56,3.56,0,0,1-2.74,1.35,4.22,4.22,0,0,1-3.52-2,8.29,8.29,0,0,1-1.44-5A5,5,0,0,1,25.09,32a3.59,3.59,0,0,1,2.85-1.46,4.24,4.24,0,0,1,3.47,2Z"/><path class="cls-2" d="M140.46,42.83v-.62h-.69c-1.22,0-1.83-.42-1.79-1.28,0-.68.09-1.37.13-2,.09-1.17.13-2.59.13-4.31,0-3.2-1.13-4.78-3.43-4.78a5.76,5.76,0,0,0-2.52.75,28.8,28.8,0,0,0-3,1.73V29.81h-.49l-3.71,1.33v.53l1.11.22a1,1,0,0,1,.86.55,3.48,3.48,0,0,1,.09,1V40.2c0,1.35-.71,2-2.14,2v.62h6.43v-.62a2.39,2.39,0,0,1-1.72-.44,2.47,2.47,0,0,1-.44-1.75V33.1c2-1.37,3.42-2,4.29-2,1.68,0,2.52,1.11,2.52,3.36,0,4.35-.2,6.72-.62,7.16a2.62,2.62,0,0,1-1.88.64v.62Z"/><path class="cls-2" d="M123.08,31.88l-.16-.16A6.64,6.64,0,0,0,118,29.78a6.77,6.77,0,0,0-4.73,1.73A6.36,6.36,0,0,0,111,36.57a6.26,6.26,0,0,0,2,4.75,7,7,0,0,0,1.84,1.26,7.75,7.75,0,0,0,3.16.64,9.06,9.06,0,0,0,1-.05,6.66,6.66,0,0,0,3.8-1.88,1.64,1.64,0,0,1,.16-.18,6.41,6.41,0,0,0,1.79-4.58,6.34,6.34,0,0,0-1.79-4.64Zm-5.53-1.35a4.27,4.27,0,0,1,3.47,2,8,8,0,0,1,1.46,4.78,5.64,5.64,0,0,1-1.31,3.78,3.61,3.61,0,0,1-2.72,1.35,4.22,4.22,0,0,1-3.52-2,8.41,8.41,0,0,1-1.44-5A5.14,5.14,0,0,1,114.71,32a3.58,3.58,0,0,1,2.83-1.46Z"/><path class="cls-2" d="M108.81,29.61h-.49l-4.15,1.44v.49l1.5.29a1.2,1.2,0,0,1,.91.51,4.53,4.53,0,0,1,.07,1.08v6.45a2.36,2.36,0,0,1-.58,1.81,3,3,0,0,1-2,.53v.62h7.1v-.62c-1.55,0-2.32-.62-2.32-1.83V29.61Z"/><path class="cls-2" d="M102.09,33.21,102,30.27a6.79,6.79,0,0,0-2.57-.49,4.07,4.07,0,0,0-2.94,1,3.18,3.18,0,0,0-1.17,2.59,3,3,0,0,0,.75,2,11.21,11.21,0,0,0,1.86,1.42,13.65,13.65,0,0,1,2.21,1.75,2.9,2.9,0,0,1,1,1.94,2,2,0,0,1-.66,1.52,2.3,2.3,0,0,1-1.1.58,4.58,4.58,0,0,1-.51,0,4.3,4.3,0,0,1-.51,0A2.82,2.82,0,0,1,97,41.81a4,4,0,0,1-1.13-2.23h-.53l.38,3.63h.46c.18-.29.35-.44.53-.42a5,5,0,0,1,1.06.2,4.44,4.44,0,0,0,1.24.22,4.36,4.36,0,0,0,2.34-.64c.16-.13.33-.26.49-.4A3.45,3.45,0,0,0,103,39.55a3.88,3.88,0,0,0-1.53-3c-.95-.68-1.94-1.33-2.9-2A2.87,2.87,0,0,1,97,32.35a1.58,1.58,0,0,1,.58-1.3A1.9,1.9,0,0,1,99,30.53a2.27,2.27,0,0,1,1.66.71,3.66,3.66,0,0,1,.89,2Z"/><path class="cls-2" d="M93,33.21l-.09-2.94a6.63,6.63,0,0,0-2.56-.49,4.21,4.21,0,0,0-3,1,3.26,3.26,0,0,0-1.13,2.59,2.9,2.9,0,0,0,.73,2,10.09,10.09,0,0,0,1.88,1.42,13.45,13.45,0,0,1,2.19,1.75,2.85,2.85,0,0,1,1,1.94A2,2,0,0,1,91.46,42a2.28,2.28,0,0,1-1.11.58,3.63,3.63,0,0,1-1,0,2.75,2.75,0,0,1-1.41-.77,4,4,0,0,1-1.11-2.23h-.53l.35,3.63h.46c.18-.29.38-.44.57-.42a5.43,5.43,0,0,1,1.06.2,4.34,4.34,0,0,0,1.24.22,4.3,4.3,0,0,0,2.32-.64,3.84,3.84,0,0,0,.51-.4,3.49,3.49,0,0,0,1.13-2.63,3.88,3.88,0,0,0-1.53-3l-2.9-2A2.82,2.82,0,0,1,88,32.35a1.62,1.62,0,0,1,.57-1.3,1.91,1.91,0,0,1,1.39-.53,2.27,2.27,0,0,1,1.66.71,3.4,3.4,0,0,1,.88,2Z"/><path class="cls-2" d="M83.63,41.68a.68.68,0,0,1-.71-.58,17,17,0,0,1-.11-2.56V34.23a5.5,5.5,0,0,0-.47-2.78A3.9,3.9,0,0,0,79,29.78a4.8,4.8,0,0,0-3.12,1.37c-1.08.93-1.61,1.72-1.61,2.36a1.23,1.23,0,0,0,.09.44l2.19-1.06a1.44,1.44,0,0,1-.18-.6,1.5,1.5,0,0,1,.6-1.1,2,2,0,0,1,1.39-.49,2.18,2.18,0,0,1,1.79.91,3.32,3.32,0,0,1,.55,2.06v2.56a10.81,10.81,0,0,1-2.83,1.22,8.31,8.31,0,0,0-2.68,1A2.42,2.42,0,0,0,74,40.57a2.57,2.57,0,0,0,.79,1.94.18.18,0,0,1,.09.07,3.57,3.57,0,0,0,3.45.35c.2-.09.4-.22.64-.35.48-.33,1-.77,1.72-1.31A3.45,3.45,0,0,0,81,42.58a1.27,1.27,0,0,0,1.15.64,3.6,3.6,0,0,0,1.68-.64,17.35,17.35,0,0,0,1.52-1.11L85.22,41a2.66,2.66,0,0,1-1.59.71Zm-4.84-3.94a13,13,0,0,0,1.86-.88v3.82A6.75,6.75,0,0,1,78,42.1a1.85,1.85,0,0,1-1.32-.53,1.76,1.76,0,0,1-.58-1.37,1.69,1.69,0,0,1,.62-1.42,10.69,10.69,0,0,1,2.1-1Z"/><path class="cls-1" d="M139.68,29.35v.48h.13q.43,0,.43-.25a.2.2,0,0,0-.14-.2.87.87,0,0,0-.29,0Zm-.41,1.5V29.07h.44a2.43,2.43,0,0,1,.64.06.41.41,0,0,1,.31.43.38.38,0,0,1-.11.28.5.5,0,0,1-.3.14h0a.27.27,0,0,1,.21.18l.32.7h-.45l-.24-.56a.34.34,0,0,0-.1-.14.32.32,0,0,0-.18,0h-.13v.74Z"/><path class="cls-1" d="M138.7,30A1.28,1.28,0,1,1,140,31.26,1.28,1.28,0,0,1,138.7,30Zm-.49,0A1.77,1.77,0,1,1,140,31.75,1.77,1.77,0,0,1,138.21,30Z"/><path class="cls-3" d="M33.49,93.69H8.09A8.45,8.45,0,0,0,11,99a9.22,9.22,0,0,0,6.1,2,10.54,10.54,0,0,0,7.62-3.1L31.41,101a15.73,15.73,0,0,1-6,5.23A18.66,18.66,0,0,1,17.19,108a16.31,16.31,0,0,1-12.08-4.68A15.92,15.92,0,0,1,.45,91.58a16.46,16.46,0,0,1,4.65-12,15.61,15.61,0,0,1,11.66-4.76A16.19,16.19,0,0,1,28.86,79.6q4.66,4.76,4.66,12.58Zm-7.91-6.23a7.93,7.93,0,0,0-3.09-4.29,9,9,0,0,0-5.35-1.65,9.47,9.47,0,0,0-5.8,1.85,10.33,10.33,0,0,0-2.9,4.08Z"/><path class="cls-2" d="M41,87.78H55.71v7.36H41Z"/><path class="cls-2" d="M63.94,63.48h7.91v43.68H63.94Z"/><path class="cls-2" d="M110.6,93.69H85.19A8.45,8.45,0,0,0,88.13,99a9.22,9.22,0,0,0,6.1,2,10.54,10.54,0,0,0,7.62-3.1l6.66,3.13a15.73,15.73,0,0,1-6,5.23A18.66,18.66,0,0,1,94.29,108a16.31,16.31,0,0,1-12.08-4.68,15.92,15.92,0,0,1-4.66-11.72,16.46,16.46,0,0,1,4.65-12,15.61,15.61,0,0,1,11.66-4.76A16.19,16.19,0,0,1,106,79.6q4.66,4.76,4.66,12.58Zm-7.91-6.23a7.93,7.93,0,0,0-3.09-4.29,9,9,0,0,0-5.35-1.65,9.47,9.47,0,0,0-5.8,1.85,10.33,10.33,0,0,0-2.9,4.08Z"/><path class="cls-2" d="M140.26,75.65h7.91v31.51h-7.91v-3.33a15.51,15.51,0,0,1-4.64,3.17,13,13,0,0,1-5,1A14,14,0,0,1,120,103.23a16.52,16.52,0,0,1-4.46-11.77,16.93,16.93,0,0,1,4.31-12,13.73,13.73,0,0,1,10.47-4.66,13.31,13.31,0,0,1,5.32,1.07,14.53,14.53,0,0,1,4.6,3.22Zm-8.31,6.49a8,8,0,0,0-6.09,2.59,9.34,9.34,0,0,0-2.42,6.65,9.44,9.44,0,0,0,2.47,6.72,8,8,0,0,0,6.08,2.64,8.15,8.15,0,0,0,6.18-2.59,9.48,9.48,0,0,0,2.45-6.79,9.2,9.2,0,0,0-2.45-6.66A8.25,8.25,0,0,0,131.94,82.13Z"/><path class="cls-2" d="M154.3,75.65h6.78v4A8.47,8.47,0,0,1,164,76.05a7.06,7.06,0,0,1,4-1.22,7.4,7.4,0,0,1,3.22.81l-2.46,6.81a5.44,5.44,0,0,0-2.29-.7q-1.82,0-3.08,2.26t-1.26,8.86l0,1.54v12.74H154.3Z"/><path class="cls-2" d="M175.13,75.65H183v3.23a19,19,0,0,1,4.87-3.15,11.78,11.78,0,0,1,4.47-.89,10.82,10.82,0,0,1,8,3.27q2.75,2.78,2.75,8.23v20.83h-7.82V93.36a34.92,34.92,0,0,0-.51-7.49A5.14,5.14,0,0,0,193,83a4.94,4.94,0,0,0-3.11-1,5.83,5.83,0,0,0-4.12,1.61,8.57,8.57,0,0,0-2.38,4.44,35.77,35.77,0,0,0-.35,6.39v12.64h-7.91Z"/><path class="cls-2" d="M213.81,62.67a4.83,4.83,0,0,1,3.57,1.51,5,5,0,0,1,1.49,3.65,4.94,4.94,0,0,1-1.47,3.61,4.78,4.78,0,0,1-3.52,1.49,4.85,4.85,0,0,1-3.6-1.52,5.08,5.08,0,0,1-1.49-3.69,5,5,0,0,1,5-5Zm-4,13h7.91v31.51h-7.91Z"/><path class="cls-2" d="M224.95,75.65h7.91v3.23a19,19,0,0,1,4.87-3.15,11.78,11.78,0,0,1,4.47-.89,10.82,10.82,0,0,1,8,3.27q2.75,2.78,2.75,8.23v20.83h-7.82V93.36a34.92,34.92,0,0,0-.51-7.49A5.14,5.14,0,0,0,242.81,83a4.94,4.94,0,0,0-3.11-1,5.83,5.83,0,0,0-4.12,1.61,8.57,8.57,0,0,0-2.38,4.44,35.77,35.77,0,0,0-.35,6.39v12.64h-7.91Z"/><path class="cls-2" d="M283.83,75.65h7.88v27q0,8-3.22,11.76-4.32,5.1-13,5.1a22.77,22.77,0,0,1-7.79-1.16,13.58,13.58,0,0,1-8.54-8.86h8.72a7.2,7.2,0,0,0,3,2,12.34,12.34,0,0,0,4.32.68,11.38,11.38,0,0,0,5.13-1,6,6,0,0,0,2.74-2.55,12.91,12.91,0,0,0,.8-5.39,13.11,13.11,0,0,1-4.37,3,13.91,13.91,0,0,1-5.18.91,14.25,14.25,0,0,1-10.72-4.58A16.09,16.09,0,0,1,259.18,91q0-7.5,4.63-12a13.82,13.82,0,0,1,10-4.11,13.33,13.33,0,0,1,5.14,1,16.3,16.3,0,0,1,4.85,3.29Zm-8.2,6.57a8.23,8.23,0,0,0-6.17,2.51A8.68,8.68,0,0,0,267,91a8.8,8.8,0,0,0,2.49,6.46,8.43,8.43,0,0,0,6.26,2.52,8.1,8.1,0,0,0,6.07-2.46,8.88,8.88,0,0,0,2.39-6.46,8.77,8.77,0,0,0-2.4-6.4A8.28,8.28,0,0,0,275.63,82.22Z"/><polygon class="cls-2" points="146.94 139.77 131.29 135.52 131.29 145.05 131.63 145.05 146.94 149.23 162.04 145.05 162.04 135.64 146.94 139.77"/><polygon class="cls-2" points="146.94 136.96 175.49 129.15 146.5 118.96 116.88 128.79 146.94 136.96"/><path class="cls-2" d="M125.17,139a1.61,1.61,0,0,0-.62-2.86v-2.5l-.56-.15v2.62a1.61,1.61,0,0,0-.7,2.93,1.68,1.68,0,0,0-.71,1.37v3.15H126v-3.15A1.68,1.68,0,0,0,125.17,139Z"/><rect class="cls-4" x="58.53" y="133.04" width="49.05" height="0.99"/><rect class="cls-4" x="184.36" y="133.04" width="49.05" height="0.99"/></g></g></svg>