<svg xmlns="http://www.w3.org/2000/svg" viewBox="0 0 61.12 52.11"><defs><style>.cls-1{fill:#0033a0;}</style></defs><title>Asset 9</title><g id="Layer_2" data-name="Layer 2"><g id="Capa_1" data-name="Capa 1"><path class="cls-1" d="M0,.25H11V5.74H0ZM0,7.93H11V45.28H0ZM2,38.36a3.43,3.43,0,1,0,3.43-3.43A3.43,3.43,0,0,0,2,38.36ZM0,51.86H11V47.47H0ZM13.18,46.7v5.16H27.46V46.68c-.58-.42-2.39-1.4-6.59-1.4a18.55,18.55,0,0,0-7.69,1.43Zm0-31.59a18.54,18.54,0,0,0,7.69,1.43c4.17,0,6-1,6.59-1.41v-3.9H13.18Zm0,2.38V44.33a21.92,21.92,0,0,1,7.69-1.25,16.43,16.43,0,0,1,6.59,1.11V17.63a16.43,16.43,0,0,1-6.59,1.11,22,22,0,0,1-7.69-1.25ZM50.75,0,43.21,1.54l1.11,5.38,7.53-1.55Zm9,44.11-7.53,1.55L44.76,9.08l7.53-1.54Zm-2.61-6.52c-.38-1.86-1.87-3.12-3.31-2.82s-2.31,2-1.93,3.9,1.86,3.12,3.31,2.82,2.31-2,1.93-3.9Zm3.05,8.67-7.53,1.55.88,4.3,7.53-1.54ZM30.75,5.74h11V.25h-11Zm0,46.13h11V47.47h-11Zm0-12.08h11V13.42h-11Zm0,5.49h11V42h-11Zm0-34h11V7.93h-11Zm0,0"/></g></g></svg>