<svg xmlns="http://www.w3.org/2000/svg" viewBox="0 0 210 210"><defs><style>.cls-1{fill:#e6e6e6;}.cls-2{fill:#0033a0;}</style></defs><title>Asset 4</title><g id="Layer_2" data-name="Layer 2"><g id="Capa_1" data-name="Capa 1"><circle class="cls-1" cx="105" cy="105" r="105"/><path class="cls-2" d="M179.21,179.28c-8.77-12.8-26-13-51.44-27.64V141.48c6.28-4.35,8.46-13.3,10.63-21.52,1,0,1.94-1.69,1.94-3.39l-.24-.48a15.39,15.39,0,0,0,1.93-4.83c.72-2.42,3.63-10.16,1-11.85-1-1-1.93-.49-2.66.72,0,0,3.38-18.38.73-26.35C135.5,53.21,87.38,47.66,87.38,60.23c-20.55,6-16.69,25.39-14,40.15a1.94,1.94,0,0,0-3.14-.25c-2.17,2.67.24,8.23,1,11.13a12.09,12.09,0,0,0,1.94,4.35c0,.48-.25.48-.25,1,0,1.94,1,3.39,1.93,3.39H75c2.42,9.19,3.87,17.9,10.64,22.73v8.95c-27.14,15.6-44.87,13.86-53,29.44a105,105,0,0,0,146.57-1.8Z"/></g></g></svg>