<svg xmlns="http://www.w3.org/2000/svg" viewBox="0 0 75.14 59"><defs><style>.cls-1{fill:#e4b212;}</style></defs><title>Asset 1</title><g id="Layer_2" data-name="Layer 2"><g id="Capa_1" data-name="Capa 1"><path class="cls-1" d="M7.34,0V44.91S22.9,44.62,35.81,59V16.44S27.59,1.76,7.34,0Z"/><path class="cls-1" d="M67.81,0V44.91S52.25,44.62,39.33,59V16.44S47.55,1.76,67.81,0Z"/><path class="cls-1" d="M0,11.15V57.24S15,52,30.53,59c0,0-7.78-10.13-25.1-11a1.72,1.72,0,0,1-1.76-1.76V10.13Z"/><path class="cls-1" d="M75.14,11.15V57.24S60.17,52,44.62,59c0,0,7.78-10.13,25.1-11a1.72,1.72,0,0,0,1.76-1.76V10.13Z"/></g></g></svg>